<?xml version="1.0" encoding="utf-8"?>
<!-- Generator: Adobe Illustrator 23.1.1, SVG Export Plug-In . SVG Version: 6.00 Build 0)  -->
<svg version="1.1" id="baed4b18-14ee-447f-bd84-b0265ca0ad8a"
	 xmlns="http://www.w3.org/2000/svg" xmlns:xlink="http://www.w3.org/1999/xlink" x="0px" y="0px" viewBox="0 0 823 823"
	 style="enable-background:new 0 0 823 823;" xml:space="preserve">
<style type="text/css">
	.st0{fill:#85848B;}
	.st1{fill:#504F60;}
	.st2{opacity:0.2;enable-background:new    ;}
	.st3{fill:#8338EC;}
	.st4{fill:#514E7F;}
	.st5{fill:#464353;}
	.st6{fill:#A1616A;}
	.st7{opacity:0.1;enable-background:new    ;}
	.st8{fill:#33323D;}
	.st9{fill:#8DD070;}
	.st10{fill:#FBBEBE;}
	.st11{opacity:5.000000e-02;enable-background:new    ;}
	.st12{fill:#3F3D56;}
	.st13{fill:url(#SVGID_1_);}
	.st14{fill:#2D293D;}
	.st15{opacity:5.000000e-02;}
	.st16{fill:#FFCDD3;}
	.st17{fill:#575988;}
	.st18{opacity:0.1;}
</style>
<title>wallet</title>
<g>
	<rect x="-19" y="683.6" class="st0" width="861" height="6.3"/>
	<path class="st1" d="M663.1,572.5c0,4.8-28.2,19-61.7,19s-59.6-14.1-59.6-19c0-4.8,27.2-3.3,60.7-3.3S663.1,567.6,663.1,572.5z"/>
	<path class="st2" d="M663.1,572.5c0,4.8-28.2,19-61.7,19s-59.6-14.1-59.6-19"/>
	<path class="st3" d="M325.7,483.6c5.4,0.7,11.1,1.1,16.3-0.5c0.8-0.3,1.7-0.8,1.6-1.6c-0.1-0.3-0.2-0.6-0.4-0.8
		c-2-2.9-3.6-6.1-4.9-9.4c-0.1-0.2-0.2-0.3-0.3-0.4c-0.2-0.1-0.4-0.1-0.5,0c-2.4,0.6-4.5,2.2-6.9,2.8c-1.2,0.3-2.5,0.4-3.7,0.3
		c-1.1-0.1-2.6-1-3.5-0.9C323.9,476.6,325.2,480,325.7,483.6z"/>
	<path class="st3" d="M428.5,474.6c3.6-2.5,7.3-5,9.4-8.8c0.2-0.2,0.2-0.5,0.3-0.8c0-0.3-0.1-0.5-0.3-0.7c-2-3.2-4.6-6-7.7-8.3
		c-1.6,1.1-3,2.4-4.3,3.9c-0.9,1-3.4,2.5-3.4,3.9c0,0.8,1,1.8,1.4,2.5c0.6,0.9,1.2,1.8,1.7,2.7C426,469.4,428.8,474.4,428.5,474.6z"
		/>
	<path class="st4" d="M347,494.6c0.1,0.8-0.2,1.7-0.7,2.4c-0.4,0.4-0.9,0.7-1.4,0.8c-7.6,2.7-16.4-0.7-24,2c-1.6,0.5-3,1.3-4.6,1.9
		c-1.9,0.6-3.8,0.9-5.7,1c-2.7,0.3-5.4,0.4-8.1,0.5c-2,0.1-4.1,0-6.1-0.5c-2-0.5-3.7-1.9-4.7-3.7c-0.4-0.8-0.5-1.8-0.2-2.6
		c0.1-0.3,0.3-0.6,0.5-0.8c0.5-0.6,1.1-1.1,1.8-1.5l2.8-1.8c1.3-0.9,2.7-1.7,4.2-2.2c1.1-0.4,2.3-0.5,3.4-0.8
		c3.9-1.1,6.9-4.3,9.7-7.3l3.8-4.1c0.4-0.4,0.8-0.8,1.3-1.1c0.5-0.2,1.1-0.2,1.6-0.2c3.7,0.3,7.3,1.5,10.4,3.5
		c0.8,0.6,1.7,1.1,2.6,1.5c2.2,0.9,5.1,0.2,7.2-0.9c1-0.5,0.8-0.8,1.2-1.8c0.4-0.9,1.4-1.5,2.3-0.7c0.3,0.3,0.4,0.6,0.5,1
		c0.8,2.7,0.5,5.6,0.5,8.5c0,0.4,0,0.9,0.2,1.3c0.2,0.4,0.5,0.8,0.7,1.2c0.1,0.1,0.1,0.2,0.2,0.3C346.9,491.9,347.1,493.3,347,494.6
		z"/>
	<path class="st5" d="M347,494.6c0.1,0.8-0.2,1.7-0.7,2.4c-0.4,0.4-0.9,0.7-1.4,0.8c-7.6,2.7-16.4-0.7-24,2c-1.6,0.5-3,1.3-4.6,1.9
		c-1.9,0.6-3.8,0.9-5.7,1c-2.7,0.3-5.4,0.4-8.1,0.5c-2,0.1-4.1,0-6.1-0.5c-2-0.5-3.7-1.9-4.7-3.7c-0.4-0.8-0.5-1.8-0.2-2.6
		c0.1-0.3,0.3-0.6,0.5-0.8c0.4,0.9,0.8,2.2,1,2.6c0.8,1.3,2.1,2.3,3.6,2.6c1.1,0.1,2.2-0.1,3.3-0.4c6.9-1.7,14.2-1.7,20.8-4.3
		c2.3-0.9,4.4-2.1,6.8-2.6c2.4-0.5,4.9-0.4,7.4-0.6c3.9-0.3,7.7-1.5,11.5-2.1C347,491.9,347.1,493.3,347,494.6z"/>
	<path class="st4" d="M445.9,474.1c-0.4,2.9-2.2,5.4-4.2,7.5c-2,2.1-4.3,4-5.9,6.4c-2,3-2.9,6.7-5.4,9.3c-1,0.9-2.1,1.7-3.3,2.3
		c-1.3,0.8-2.8,1.4-4.2,1.9c-3.8,1.2-7.9,0.9-11.9,0.6c-1.3,0-2.6-0.3-3.8-0.7c-0.6-0.3-1.1-0.6-1.6-1c-1-0.6-1.8-1.5-2.5-2.5
		c-0.3-0.5-0.4-1.2-0.2-1.8c0.2-0.7,0.6-1.3,1.1-1.7c0.9-0.9,1.9-1.8,2.9-2.6c1.4-0.9,2.7-2,3.8-3.3c0.7-1,1.2-2.1,1.5-3.3
		c0.6-2,0.9-4.2,1.1-6.3c0-1.4,0.1-2.8,0.4-4.2c0.6-2.2,2.2-4.1,2-6.3c-0.1-0.3,0-0.7,0.1-1c0.2-0.2,0.5-0.4,0.8-0.5
		c1.3-0.5,2.6-0.8,3.9-0.9c1.4-0.1,2.7,0.4,3.6,1.4c0.6,0.7,0.9,1.6,1.7,1.9c0.4,0.1,0.8,0.1,1.2,0c2-0.2,4.2-0.5,5.7-1.8
		c1.5-1.3,2.3-3.2,2.4-5.2c0-0.7-0.3-1.5,0.8-1.6c0.9-0.1,1.6,0.8,2,1.4c1.6,2.1,3.2,4.4,3.8,7c0.2-0.1,0.5-0.1,0.7-0.1
		c1,0,2,0.5,2.6,1.3C445.9,471.6,446.1,472.8,445.9,474.1z"/>
	<path class="st5" d="M445.9,474.1c-0.4,2.9-2.2,5.4-4.2,7.5c-2,2.1-4.3,4-5.9,6.4c-2,3-2.9,6.7-5.4,9.3c-1,0.9-2.1,1.7-3.3,2.3
		c-1.3,0.8-2.8,1.4-4.2,1.9c-3.8,1.2-7.9,0.9-11.9,0.6c-1.3,0-2.6-0.3-3.8-0.7c-0.6-0.3-1.1-0.6-1.6-1c-1-0.6-1.8-1.5-2.5-2.5
		c0.8-0.4,1.6-0.6,2.5-0.6c1.8,0.1,3.1,1.8,4.8,2.3c2.4,0.7,4.8-1,7.3-1.6c1.6-0.4,3.3-0.3,4.9-0.8c1.3-0.5,2.5-1.2,3.6-2.2
		c1.5-1,2.8-2.3,3.8-3.7c0.9-1.4,1.7-2.9,2.3-4.5c1.3-3,2.8-5.9,4.6-8.7c0.3-0.4,0.6-0.8,0.9-1.2c0.4-0.4,0.8-0.6,1.3-0.9
		c1.6-1.2,2.3-3.3,2.9-5.3c0.2-0.6,0.4-1.2,0.6-1.8c1,0,2,0.5,2.6,1.3C445.9,471.5,446.1,472.8,445.9,474.1z"/>
	<path class="st6" d="M273.9,218.3c2,1.5,3.7,3.5,4.9,5.7c1.1,2.2,7.8,19.7,7.4,22.2c2.2-2.2,10.7-2.5,12.8-4.7
		c0.9-0.9,5.8-5.5,6.6-6.5c0.7-1.1,6.2-3.3,6.8-4.4c2.2-4-15.9-19.2-13.6-23.2c0.1-0.2,0.2-0.4,0.2-0.6c-0.1-0.2-0.2-0.4-0.3-0.5
		c-1.5-1.5-3.5-2.5-5.2-3.6c-1.8-1.1-3.5-2.7-4-4.8c-1.7,0.8-3.3,1.8-4.6,3.1c-3.3,2.8-6.6,5.8-9.8,8.7c-1.3,1.2-3.7,2.7-4.3,4.4
		C270.1,216,272.7,217.3,273.9,218.3z"/>
	<path class="st4" d="M303.3,211.8c-2.8,1.9-5.4,4-7.8,6.3c-2.2,2.2-4.4,4.8-4.9,7.9c-0.2,1.2-0.2,2.5-0.4,3.7
		c-0.8,5.4-5.5,9.3-7.5,14.3c-0.6,1.6-1,3.2-1.3,4.8c-0.6,3.1-0.9,6.3-0.9,9.4c0,3.1,3,5.2,4.1,8c1.1,2.9,1.4,5.8,2,8.7
		c1.1,5.5,3,10.9,4.9,16.2c4,11.2,17.2,42.1,21.2,53.2c12.4-3.1,45.4-10.3,56.4-16.8c3.7-2.2-25.4-26.8-21.5-28.5
		c0.8-0.1,1.3-0.9,1.2-1.7c0-0.1-0.1-0.3-0.1-0.4c-3.9-17.1-16.2-31.2-21.7-47.8c-1.9-5.8-5.4-10.7-8-16.2c-2.4-5-3.7-10.5-6.5-15.2
		c-0.5-1-1.2-1.8-2.1-2.6c-0.7-0.5-1.5-1-2.3-1.4C306.3,213.1,304.8,212.6,303.3,211.8z"/>
	<circle class="st6" cx="274.6" cy="196.9" r="19.4"/>
	<path class="st5" d="M294.3,206.1c2-1.8,4.9-2.2,7.3-1.1c1.3,0.7,2.5,2.1,2.2,3.5l9.6,0.1c1.5,0,3.1,0.1,4.6,0.4
		c1.5,0.3,2.9,1.2,3.8,2.4c0.1,0.2,0.2,0.3,0.4,0.4c0.2,0,0.3,0,0.4-0.1c1.5-0.7,3.1-1,4.8-0.8c5.2,0.3,10,2.9,14.1,6.2
		c0.7,0.5,1.3,1.2,1.6,2c0.3,1.1-0.1,2.5,0.8,3.2c0,9,3.1,17.5,5.2,26.3c0.4,1.6,1.9,3,2.9,4.2c1.3,1.4,2.3,2.9,3.1,4.6
		c1.8,4.6-0.7,9.9,1,14.5c0.7,1.9,2.1,3.5,3.3,5.2c1.5,1.9,2.5,4.3,2.8,6.7c0.1,1.1-0.1,2.2,0,3.3c0.1,1.5,0.4,2.9,0.8,4.4
		c0.7,2.6,1.4,5.3,2.2,7.9c1.2,4.3,2.9,8.9,6.7,11.1c-9.2,1.6-19,3.1-27.8-0.1c-1.2-0.4-2.4-1-3.5-1.7c-3.2-2.3-4.7-6.1-6.1-9.8
		c-1.5-4.1-3.1-8.3-3.4-12.6c0-1.4-0.2-2.8-0.6-4.1c-0.9-2.4-3.3-3.8-5.4-5.1c-2.4-1.3-4.7-3.1-6.6-5.1c-1.9-2.1-2.9-4.9-2.7-7.7
		c0.2-1.4,0.7-2.7,0.7-4c0-1.4-0.6-2.9-1.9-3.3c-6.7-2-9.9-10-11.4-16.9c-0.6-3.5-0.9-7.1-0.9-10.7l-0.1-7c-1.9-1.7-3-4.1-3-6.6
		c0.1-0.7,0.1-1.5,0-2.2c-0.3-0.9-0.9-1.7-1.5-2.3C296.5,209.7,295.3,207.9,294.3,206.1z"/>
	<path class="st5" d="M273.6,228.2c-0.2,2.2,0.3,4.4-0.2,6.5c-0.2,0.8-0.5,1.6-0.8,2.4c-0.7,3.1-0.4,6.3,0.9,9.1
		c1.3,2.8,2.9,5.5,4.7,8.1c0.6,0.9,1.1,1.8,1.5,2.8c0.3,1,0.5,2.1,0.6,3.2c0.5,4.3,1.2,8.7,2.3,12.9c0.9,3.7,11.4,35.1,13.8,38
		c0.4,0.6,1.1,1.1,1.9,1.3c0.5,0,1.1-0.1,1.6-0.3l4.9-1.9c0.4-0.1,0.8-0.3,1.1-0.6c0.5-0.5,0.7-1.2,0.7-1.9
		c0.4-4-10.1-35.6-11.4-39.4c-4-11.4-9.4-22.4-12-34.3c-0.7-3.3-1.1-8.3-3.5-11c-1-1.1-0.7-0.6-1.8-0.1c-0.6,0.3-1.2,0.6-1.7,0.9
		C274.7,225,273.8,226.5,273.6,228.2z"/>
	<path class="st5" d="M368.3,299.3"/>
	<path class="st3" d="M288.6,249.9c1.3,7,2.7,13.9,4,20.9l19.3-5c0.2-2-0.9-3.9-1.6-5.7c-1.8-4.4-1.8-9.3-3.2-13.8
		c-1.1-3.4-2.9-6.6-4-10.1c-0.6-2-0.9-4.1-1.5-6.1c-0.6-2-1.4-4-2.3-5.9c-1.1-2.8-2.5-5.4-4.2-7.8c-2.5,0.9-5.1,2-6.5,4.2
		c-0.7,1.3-1.1,2.7-1.2,4.1c-0.3,4.3,1.2,8.7,0.7,13C287.7,241.7,287.8,245.9,288.6,249.9z"/>
	<path class="st5" d="M312.2,342.8c1.1,4.1-0.5,8.4-1.8,12.5c-1.9,6.1-3.2,12.4-3.9,18.8c-0.1,1.6-0.4,3.2-1,4.7
		c-0.6,1.4-1.6,2.5-2.3,3.8c-1.9,3.4-1.9,7.6-1.5,11.5c0.3,2.6,0.7,5.2,1.2,7.7c0.6,3.1,1.4,6.4,0.5,9.4c1.5-0.3,2.6,1.6,2.5,3.2
		c-0.1,1.6-0.6,3.3,0.1,4.6c1.9,0.7,1.9,3.3,1.8,5.3c0,3.5,0.5,7,1.3,10.3c2.9,13.7,5.9,27.4,9.1,41.1c6.9,2.1,15,4.4,21.6,1.4
		c1.2-0.5,2.5-1.4,2.7-2.8c0.1-0.7,0-1.4-0.3-2.1l-3.1-11.4c-0.8-2.8-1.5-5.6-1.1-8.4c0.3-2.1,1.2-4.4,0.2-6.2
		c-0.4-0.6-0.9-1.1-1.3-1.7c-1.6-2.4-0.8-5.6-0.6-8.5c0.1-0.7,0-1.3-0.1-2c-0.2-0.7-0.5-1.5-0.9-2.1c-2.6-5-3.8-10.6-3.6-16.3
		c0.1-0.7,0-1.5-0.3-2.1c-0.2-0.3-0.4-0.6-0.5-0.9c-0.1-0.5-0.1-1.1,0.2-1.6c-0.9-0.7-1.8-1.5-2.5-2.5c1.7-1,2.2-3.2,1.1-4.9
		c-0.1-0.2-0.3-0.5-0.5-0.7c1-0.2,1.6-1.2,1.4-2.2c-0.1-0.4-0.3-0.7-0.6-1c-0.4-0.3-0.9-0.4-1.2-0.8c-0.4-0.6-0.1-1.5,0.3-2.1
		l1.9-3.5c1.4-2.6,1.7-5.7,3.3-8.2c2.2-3.6,3.6-7.6,5.1-11.5l5.5-15.2l3.7,3.2c1.2,0.9,2.3,2.1,3.1,3.5c0.5,1.3,0.9,2.7,1,4.2
		c1.4,8.3,6.6,15.4,8.5,23.6c0.4,1.8,0.7,3.7,1.8,5.3c0.4,0.5,0.7,1,1,1.5c0.3,0.8,0.4,1.7,0.4,2.5c0.3,3.4,2.1,6.4,4.9,8.4
		c1.8,1.3,4.1,2.1,5.1,4.1c0.2,0.6,0.5,1.2,0.8,1.7c0.9,1.1,2.8,1.2,3.2,2.5c0.2,0.7-0.2,1.6,0.2,2.3c0.2,0.3,0.6,0.5,0.9,0.7
		l5.3,2.7c6,3,9,9.8,13.4,14.8c1.5,1.6,2.9,3.4,4,5.3c1.9,3.4,2.8,7.7,6,9.8c0.9,0.4,1.7,1,2.3,1.7c1,1.3,0.6,3.2,0.7,4.9
		c0.1,1.7,1.4,3.7,3,3.2c-0.6,2-0.6,4.2,0,6.2c7-0.4,13.7-3.1,18.9-7.7c1.6-1.4,3.1-3.1,3.1-5.2c0-0.4-0.1-0.7-0.2-1
		c-0.3-0.4-0.7-0.7-1.2-0.9c-5-2.7-6.5-9-9-14.1c-2.2-4.5-5.5-8.4-8.2-12.5c-5.9-9-10-19.9-19-25.8c-2-1.3-4.3-2.5-5.3-4.6
		c-0.5-1.2-0.6-2.6-1.1-3.8c-0.4-1.2-1.5-2.5-2.8-2.5c0.7-1.8,0.6-4,0.6-6c0.1-0.9,0-1.7-0.3-2.6c-0.3-0.9-0.8-1.7-1.3-2.5
		c-2.3-4-3.5-8.5-3.4-13.1c0.1-2.4,0.5-4.8-0.2-7.1c-0.4-1.1-1-2.2-1.4-3.3c-0.7-2-1-4.1-1-6.2l-0.5-7.9c-0.1-2.6-0.4-5.2-1-7.8
		c-1.6-6.1-3.3-31.8-8.9-34.6c-5.6-2.9-15.3,16.8-21.6,17.2c-2.8,0.1-5.6,0.7-8.2,1.6c-4.2,1.6-7.7,4.5-11.2,7.4l-11.6,9.8
		C317,339.4,314.9,341.3,312.2,342.8z"/>
	<path class="st5" d="M256.4,175.4c2.6-3.5,7-5.3,11.3-5.5c4.3-0.2,8.6,1.2,12.5,3.1c1.1,0.7,2.4,1.2,3.6,1.5
		c2.1,0.4,4.3-0.1,6.2,0.8c2.5,1.3,2.9,4.6,2.7,7.4c-0.2,2.8-0.7,5.8,0.7,8.2c0.5,0.7,1,1.4,1.4,2.1c0.6,1.4,0.3,3.1-0.1,4.6
		c-1-0.8-1.5-2.1-2.4-3s-2.3-1.6-3.4-0.9c-1.1,0.7-1,2-1.1,3.2s-0.4,2.6-1.5,2.9c-0.9,0.2-1.9-0.2-2.5-1c-1.9-2.3-1.1-6-3-8.3
		c-1.1-1.3-2.8-2-3.8-3.3c-0.8-1.1-1-2.5-1.6-3.6s-2.2-2-3.3-1.2c-0.4,0.3-0.7,0.7-0.9,1.2c-1.3,1.9-3.8,2.7-6,1.8
		c-0.8-0.5-1.7-0.9-2.6-1.1c-1.2-0.1-2.4,0.6-3,1.6c-0.6,1-0.9,2.2-0.8,3.4c0,1.6,0.3,3.4-0.6,4.7c-0.4,0.5-0.8,0.9-1.3,1.2
		c-1.4,0.9-3.3,1.5-4.5,0.5c-0.9-0.8-1.3-2-1-3.2c0.2-1.1,0.6-2.3,1-3.4c0.7-2.5-0.2-5.4,0.6-7.8C253.9,179.3,255,177.2,256.4,175.4
		z"/>
	<path class="st3" d="M266.8,233.3c-0.1,0.6-0.1,1.2,0.2,1.8c0.2,0.4,0.6,0.7,1,0.9c2.8,1.7,5.9,2.7,9.1,3c0.4,0,0.9,0.1,1.3,0.3
		c0.8,0.5,0.8,1.6,0.5,2.5c-0.4,0.9-0.6,1.8-0.6,2.7c0.2,1.7,2.3,2.5,4,2.7c2.4,0.3,5,0.1,6.9-1.4c1.3-1.2,2.3-2.6,2.9-4.3
		c4.7-10.8,6.4-22.8,11.1-33.6c0.4-0.7,0.6-1.5,0.7-2.2c0.1-0.8-0.2-1.6-0.9-2.1c-0.9-0.5-2.3-0.2-2.9-1.1c-0.3-0.4-0.3-1-0.5-1.5
		c-0.5-1-2-0.8-3-1.4c-0.8-0.4-1.3-1.3-2.2-1.4c-0.9,0-1.7,0.3-2.2,1c-2.8,2.6-4.3,6.3-5.8,9.8c-2.4,5.4-5.2,10.5-8.3,15.5
		c0.4-0.6-1.8-4.9-2.6-5.1c-1.5-0.3-3.3,2.3-4.1,3.2C268.8,225.7,267.2,229.4,266.8,233.3z"/>
	<path class="st7" d="M296.6,200.5c-1.2,0-2.3,0.6-3,1.5c-0.9,1.1-1.1,2.6-1.3,4.1c-0.7,4.6-2.4,9-4.8,13"/>
	<path class="st7" d="M300.8,203.8c-1.7,0-3.2,0.9-4,2.4c-0.5,1.3-0.9,2.7-1,4.1c-0.7,3.1-2.1,6-4,8.5"/>
	<path class="st8" d="M495.7,364.2V354c0-15.6-12.7-28.3-28.3-28.3H65.1c-15.6,0-28.3,12.7-28.3,28.3v18.8L495.7,364.2z"/>
	<path class="st9" d="M177,313.7c0,0-1.1,71.3,11.5,94.7s18,125.4,18,125.4s132.4,13.7,224.7-16.4s288.7-42.4,288.7-42.4l-33.1-223
		c0,0-163.5-10.5-256.5,33.9S177,313.7,177,313.7z"/>
	<path class="st7" d="M177,313.7c0,0-1.1,71.3,11.5,94.7s18,125.4,18,125.4s132.4,13.7,224.7-16.4s288.7-42.4,288.7-42.4l-33.1-223
		c0,0-163.5-10.5-256.5,33.9S177,313.7,177,313.7z"/>
	<path class="st9" d="M206.3,339.8c0,0-4.1,58.8,6.3,77.6c10.4,18.8,10.9,102.7,10.9,102.7s119.2,5.5,204-23.3
		c84.8-28.9,263-47.6,263-47.6l-20.2-182.4c0,0-147.4-1.5-233.5,39.1S206.3,339.8,206.3,339.8z"/>
	
		<ellipse transform="matrix(0.9923 -0.1236 0.1236 0.9923 -45.8462 55.8426)" class="st7" cx="427.1" cy="397.4" rx="30.9" ry="66.4"/>
	<path class="st2" d="M597.2,143.4c0,0-158.8,40.2-233.7,111S130.9,358.6,130.9,358.6s20.8,68.2,40,86.6
		c19.2,18.4,55.7,113.9,55.7,113.9s130.2-27.6,208.8-84.6s261.8-129,261.8-129L597.2,143.4z"/>
	<path class="st9" d="M128.5,348.4c0,0,20.8,68.2,40,86.6c19.2,18.4,55.7,113.9,55.7,113.9s130.3-27.6,208.9-84.6
		s261.7-129,261.7-129l-99.9-202.1c0,0-158.8,40.2-233.7,111S128.5,348.4,128.5,348.4z"/>
	<path class="st7" d="M128.5,348.4c0,0,20.8,68.2,40,86.6c19.2,18.4,55.7,113.9,55.7,113.9s130.3-27.6,208.9-84.6
		s261.7-129,261.7-129l-99.9-202.1c0,0-158.8,40.2-233.7,111S128.5,348.4,128.5,348.4z"/>
	<path class="st9" d="M164.4,364.1c0,0,14.1,57.2,29.8,71.9s41.8,94.3,41.8,94.3s115.1-31.3,187-84.8s235.7-125.9,235.7-125.9
		l-75.2-167.5c0,0-140.8,43.8-210.2,108.9S164.4,364.1,164.4,364.1z"/>
	
		<ellipse transform="matrix(0.9065 -0.4221 0.4221 0.9065 -111.6086 198.4223)" class="st7" cx="392.3" cy="351.2" rx="30.9" ry="66.4"/>
	<path class="st7" d="M506.6,374.2v283c0,13.5-11,24.5-24.5,24.5c0,0,0,0,0,0H61.3c-13.5,0-24.5-11-24.5-24.5V345.6
		c12.1,4.5,12.1,4.5,24.5,4.1h420.8C495.6,349.7,506.6,360.7,506.6,374.2z"/>
	<path class="st1" d="M506.6,377.8v283c0,13.5-11,24.5-24.5,24.5H61.3c-13.5,0-24.5-11-24.5-24.5V349.2c12.1,4.5,12.1,4.5,24.5,4.1
		h420.8C495.6,353.3,506.6,364.3,506.6,377.8z"/>
	<path class="st7" d="M505.4,482.4v90.5h-87.8c-25-0.3-45-20.9-44.6-45.9c0.3-24.5,20.1-44.3,44.6-44.6H505.4z"/>
	<path class="st8" d="M506.6,480v90.5h-87.8c-25-0.3-45-20.9-44.6-45.9c0.3-24.5,20.1-44.3,44.6-44.6L506.6,480z"/>
	<circle class="st7" cx="423" cy="527.7" r="17.6"/>
	<circle class="st3" cx="424.2" cy="525.3" r="17.6"/>
	<path class="st10" d="M658.9,479.2c0.7,7.6-5,14.9-3.4,22.3c0.4,1.6,1,3.1,1.3,4.7c0.7,4.4-1.9,8.6-4.4,12.2L631,549.9
		c-0.9,1.4-1.9,2.7-3.1,3.8c-4.1,3.7-10.3,3.3-15.7,4.4c-3.8,0.8-7.4,2.4-10.5,4.6c-0.3,0.2-0.3,0.6-0.1,0.9
		c1.8,2.5,4.8,3.8,7.8,3.7c0.6,0.7,0,1.8-0.8,2.4c-1.2,0.8-2.7,1-3,3c-0.1,0.7,0.1,1.4,0.4,2c0.9,1.3,2.2,2.3,3.8,2.6
		c7.4,2.3,15.5-1.7,21.1-7.2s9.6-12.3,15-17.8c3-3.1,6.5-5.7,9.6-8.7c6.2-5.9,11.1-13.1,15.7-20.3c1.4-2.2,2.8-4.4,3.4-6.9
		c0.6-2.5,0.3-5.1,1-7.5c0.9-3.2,3.2-5.7,5.2-8.4c3.8-5.3,6.4-11.7,5.9-18.1c-0.5-6.5-4.5-12.9-10.6-15.1c-1.9-0.8-4-0.9-5.9-0.4
		c-2.5,0.8-4.3,2.8-6.1,4.8l-4.1,4.7c-1,1-1.8,2.3-2.4,3.6c-0.5,1.4-0.2,3,0.8,4"/>
	<path class="st11" d="M658.9,479.2c0.7,7.6-5,14.9-3.4,22.3c0.4,1.6,1,3.1,1.3,4.7c0.7,4.4-1.9,8.6-4.4,12.2L631,549.9
		c-0.9,1.4-1.9,2.7-3.1,3.8c-4.1,3.7-10.3,3.3-15.7,4.4c-3.8,0.8-7.4,2.4-10.5,4.6c-0.3,0.2-0.3,0.6-0.1,0.9
		c1.8,2.5,4.8,3.8,7.8,3.7c0.6,0.7,0,1.8-0.8,2.4c-1.2,0.8-2.7,1-3,3c-0.1,0.7,0.1,1.4,0.4,2c0.9,1.3,2.2,2.3,3.8,2.6
		c7.4,2.3,15.5-1.7,21.1-7.2s9.6-12.3,15-17.8c3-3.1,6.5-5.7,9.6-8.7c6.2-5.9,11.1-13.1,15.7-20.3c1.4-2.2,2.8-4.4,3.4-6.9
		c0.6-2.5,0.3-5.1,1-7.5c0.9-3.2,3.2-5.7,5.2-8.4c3.8-5.3,6.4-11.7,5.9-18.1c-0.5-6.5-4.5-12.9-10.6-15.1c-1.9-0.8-4-0.9-5.9-0.4
		c-2.5,0.8-4.3,2.8-6.1,4.8l-4.1,4.7c-1,1-1.8,2.3-2.4,3.6c-0.5,1.4-0.2,3,0.8,4"/>
	<path class="st12" d="M675.2,673.7c-4.7,2.9-10.5,3-16,2.4c-0.9-0.1-1.9-0.2-2.5,0.5c-0.8,1,0.1,2.5,1.1,3.2c3.2,2.4,7,4,11,4.5
		c3.6,0.5,7.2,0.7,10.7,0.7c9.8,0.2,19.7,0.3,29.4-1.1c0.6,0,1.1-0.2,1.6-0.5c0.6-0.4,1.1-1.1,1.2-1.8c0.7-2.5-0.6-5.2-2.6-7
		c-1.9-1.8-4.4-2.7-6.8-3.7l-8.5-3.3c-2-0.8-5.2-2.8-7.4-2.7C682.5,665.3,678.6,671.7,675.2,673.7z"/>
	<path class="st11" d="M675.2,673.7c-4.7,2.9-10.5,3-16,2.4c-0.9-0.1-1.9-0.2-2.5,0.5c-0.8,1,0.1,2.5,1.1,3.2c3.2,2.4,7,4,11,4.5
		c3.6,0.5,7.2,0.7,10.7,0.7c9.8,0.2,19.7,0.3,29.4-1.1c0.6,0,1.1-0.2,1.6-0.5c0.6-0.4,1.1-1.1,1.2-1.8c0.7-2.5-0.6-5.2-2.6-7
		c-1.9-1.8-4.4-2.7-6.8-3.7l-8.5-3.3c-2-0.8-5.2-2.8-7.4-2.7C682.5,665.3,678.6,671.7,675.2,673.7z"/>
	<path class="st5" d="M681.2,560.4c-3.6,4.7-7.2,10.2-6.3,16c0.5,3.2,2.2,5.9,3.5,8.8c1.8,4,2.7,8.2,3.6,12.4
		c1.3,6.2,2.7,12.4,3.5,18.7c0.9,7.1-3.4,27.6-3.8,34.8c-0.1,1.7-0.3,3.6-1.5,4.8c-0.5,0.5-1.1,0.9-1.3,1.5c-0.1,0.6,0,1.3,0.3,1.8
		c2,4.5,6.1,7.9,10.7,9.8c4.6,1.9,15.6,5.2,20.6,5.4c0.7,0.1,1.3,0,1.9-0.3c0.7-0.4,1.2-1,1.5-1.7c3.6-6.8,0.1-31.1,0.2-38.8
		c0-6.4,1.6-12.8,1.3-19.2c-0.2-5.2-1.6-10.2-2.1-15.3c-0.8-8.4,0.7-16.9,2.3-25.2c1.2-6.4,2.4-12.8,3.9-19.1
		c0.9-3.8,2-7.7,4.1-11.1c1.6-2.6,3.9-4.9,5.9-7.4c5.3-7,7.7-15.7,6.6-24.4c-0.1-0.8-12.3,3.1-13.4,3.6c-4.4,1.9-8.4,4.5-11.9,7.7
		c-2.8,2.7-5,6.3-7.5,9.3c-3.5,4.3-6.9,8.6-10.4,12.9C688.7,550.5,684.9,555.5,681.2,560.4z"/>
	<path class="st11" d="M681.2,560.2c-3.6,4.7-7.2,10.2-6.3,16c0.5,3.2,2.2,5.9,3.5,8.9c1.8,3.9,2.7,8.2,3.6,12.4
		c1.3,6.2,2.7,12.4,3.5,18.7c0.9,7.1-3.4,27.6-3.8,34.8c-0.1,1.7-0.3,3.6-1.5,4.8c-0.5,0.5-1.1,0.9-1.3,1.5c-0.1,0.6,0,1.3,0.3,1.8
		c2,4.5,6.1,7.9,10.7,9.8c4.6,2,15.6,3.7,20.6,3.8c0.7,0.1,1.3,0,1.9-0.3c0.7-0.4,1.2-1,1.5-1.7c3.6-6.8,0.1-29.5,0.2-37.2
		c0-6.4,1.6-12.8,1.3-19.2c-0.2-5.2-1.6-10.2-2.1-15.3c-0.8-8.4,0.7-16.9,2.3-25.2c1.2-6.4,2.4-12.8,3.9-19.1
		c0.9-3.8,2-7.7,4.1-11.1c1.6-2.6,3.9-4.9,5.9-7.4c5.3-7,7.7-15.7,6.6-24.4c-0.1-0.8-12.3,3.1-13.4,3.6c-4.4,1.9-8.4,4.5-11.9,7.7
		c-2.8,2.7-5,6.3-7.5,9.3c-3.5,4.3-6.9,8.6-10.4,12.9C688.7,550.2,684.9,555.2,681.2,560.2z"/>
	<circle class="st10" cx="641.7" cy="436.5" r="19.9"/>
	<path class="st10" d="M659.6,435.6c3.7,5.9,9.7,10.1,16.5,11.5l-1.5,5.5c-2.6,9.4-5.5,19.3-12.7,25.8c0.8-3.2-0.2-6.6-2-9.3
		c-1.8-2.8-4.3-4.9-6.8-7.1l-11.5-9.9c-0.3-0.3-0.6-0.6-0.8-1c-0.3-0.7-0.3-1.5,0-2.2c1.5-4.5,5.6-7.4,9-10.5
		c1.7-1.6,3.2-3.4,4.5-5.3C656.7,429.9,658.1,433.2,659.6,435.6z"/>
	<path class="st5" d="M615.4,416.5l-0.5-3.7c3.1,0.8,6.1-1.9,8.1-4.6c2-2.8,3.9-6,6.9-7.2c3.7-1.4,7.7,0.8,11.2,2.7
		c4,2.2,8.3,3.6,12.9,4.2c0.7,0,1.4,0.1,2.1,0.3c2.3,0.8,3.4,3.7,3.7,6.4s0.2,5.4,1.4,7.8c0.8,1.8,2.3,3.1,3.3,4.9
		c2.5,4.7,0.1,11.1,2.6,15.8l-6.4-5.8c-0.6-0.5-1.4-1.1-2.1-0.6c-0.5,0.4-0.5,1.1-0.8,1.8c-0.6,1.8-2.9,2.4-4.5,1.6
		c-1.6-0.7-2.9-2.3-4.1-3.7c-2.8-3.3-6.2-6.3-10.1-7.7c-3.5-1.3-7.4-1-10.7,0.7c-3,1.7-5.2,5.6-8.8,5.7c-5,0.2-7.1-9.1-9.4-12.8
		c1.7-1.3,2.3-3.7,1.3-5.6C612.1,416.3,615.4,415.9,615.4,416.5z"/>
	<path class="st6" d="M369.2,300c-1.6,1.4-3.1,3-4.4,4.6c-1.4,1.7-2.1,3.8-2,6c0,0.6,0.2,1.2,0.6,1.7c0.4,0.5,1,0.7,1.6,0.5
		c0.3-0.2,0.6-0.4,0.8-0.7c0.9-1,1.8-2,2.8-3c0.4-0.4,0.8-0.7,1.3-0.6c0.2,0.1,0.4,0.2,0.6,0.4c0.6,0.5,1,1.1,1.2,1.8
		c0.3,1.3-0.4,2.5-1.3,3.5c-0.8,1-1.8,1.9-2.1,3.2c-0.1,0.3-0.1,0.7,0,1c0.2,0.2,0.4,0.4,0.6,0.5c2.4,1.3,5.2,1.5,7.7,0.5
		c1.6-0.7,3.1-1.8,4.8-2.4c0.7-0.2,1.4-0.5,2.1-0.8c1-0.6,1.7-1.7,1.9-2.8c0.2-1.1,0.3-2.3,0.1-3.5c-0.2-4.5-1.2-8.8-2.8-13
		c-0.1-0.3-0.3-0.5-0.5-0.7c-0.2-0.2-0.5-0.2-0.8-0.2c-2.1-0.2-5.5-1.3-7.6-0.5c-0.7,0.4-1.3,0.9-1.8,1.6
		C371.5,297.6,369.2,299.5,369.2,300z"/>
	<path class="st5" d="M368.5,298.2c0-2-2.5-6.8,1.5-7.2c0-2.1-3-3.5-2.5-5.7c0.2-0.8,0.8-1.4,0.9-2.1c0.2-2.2-3.7-3.4-3.1-5.5
		c0.2-0.8,1.1-1.3,1.3-2.1c0.4-1.9-2.9-2.7-3-4.7c0-0.7,0.4-1.3,0.3-1.9c0-0.8-0.7-1.4-1.1-2.2c-1-1.8-0.5-4.7-2.4-5.6
		c1.2,0.1,1.6-1.7,1.1-2.9c-0.5-1.1-1.6-2.1-1.6-3.3c0.1-0.5,0.1-0.9,0-1.4c-0.3-1.2-2.3-1.3-2.6-2.5c0-0.4-0.1-0.9,0-1.3
		c-0.1-0.9-1.1-1.5-2-1.8c-0.9-0.2-1.8-0.5-2.6-0.9c-0.6-0.4-1.2-1.2-1.9-0.8c-0.2,0.1-0.3,0.4-0.5,0.6c-0.7,0.9-2.1,0.5-3.1-0.1
		c-2.7-1.9-4.1-5.2-4.7-8.5c-0.6-3.3-0.6-6.6-1.3-9.8c-0.2-1-0.5-2-0.9-3c-0.3-0.8-1.3-2.1-1.4-2.9c-0.1-1.9,3.8-0.6,5.2-0.4
		c1.4,0.1,2.9,0.4,4.3,0.8c1.5,0.6,2.9,1.2,4.4,1.9c5.9,2.6,13.1,2.9,17.8,7.3c1.6,1.4,2.9,3.3,4.9,4c0.9,0.2,1.9,0.4,2.8,0.7
		c2.3,1.1,2.6,4.1,3.8,6.2c0.4,0.6,0.7,1.2,1,1.8c0.2,0.7,0.3,1.5,0.3,2.3l0.2,5.7c0.3,9.5,0.6,19.1-0.5,28.5
		c-0.3,3.1-0.8,6.3,0.1,9.3c0.2,0.8,0.6,1.6,0.8,2.4c0.2,1,0.3,2,0.3,3l0.1,3.7c0,0.3,0,0.6-0.2,0.8c-0.3,0.2-0.6,0.3-1,0.2
		c-5.1-0.5-10.3-3.3-15.2-1.6"/>
	<ellipse class="st1" cx="602.5" cy="572.5" rx="60.7" ry="8.8"/>
	
		<linearGradient id="SVGID_1_" gradientUnits="userSpaceOnUse" x1="644.8215" y1="122.9344" x2="644.8215" y2="523.8084" gradientTransform="matrix(1 0 0 -1 -84.46 704.18)">
		<stop  offset="0" style="stop-color:#808080;stop-opacity:0.25"/>
		<stop  offset="0.54" style="stop-color:#808080;stop-opacity:0.12"/>
		<stop  offset="1" style="stop-color:#808080;stop-opacity:0.1"/>
	</linearGradient>
	<path class="st13" d="M654.7,572.9c-1.1-4.6-1.7-8.6-1.7-8.6s0.2-5-2-8.7v-1.2l0,0v-9.2c0.6-1.7,1.4-3.3,2.3-4.8
		c1.6-2.9,0-13.5,0-13.5s-6.1-14.9-4.6-24.4s-12.6-42-12.6-42c0.1-3.1,0.5-6.3,1.3-9.3c0.2-0.6,0.2-1.3,0.2-2c0-0.1,0-0.2,0-0.2
		c0-0.1,0,0,0,0.1c-0.2-6.2-5.2-17.9-5.2-17.9l0.7-22.3c0,0,3.2-13.1-2-30.8c-1.8-6.2-2.9-11.1-3.7-14.9c-0.1-0.4-0.2-0.8-0.2-1.2
		c10.6-1.6,18.7-3,18.7-3s-6.1-25.7-10.3-30.2s-7.5-18.6-7.5-18.6s-2.2-18.1,1.3-23.4c3.5-5.3,4-14.4,4-14.4s7.9-5.7,9-8.3
		c1-2.6,2.6-8.3,2.6-11.4c0-3-1-5.7-0.7-7.4s-2.3-7.7-1-10.6c0.3-0.9,0.5-1.8,0.5-2.8c0,0,0-0.1,0-0.1l0,0c0-2.5-0.2-5-0.7-7.5
		c-2.3-1.9-5-3.4-7.9-4.2l-0.2-0.7l-0.5-1.8c-0.3-0.2-0.5-0.3-0.8-0.5v-0.7l-0.1-2.6l1.2-5.9c2.5-10.2-11.1-11.7-11.1-11.7
		c-0.8-1.6-2.2-2.8-3.9-3.4c-2.7-1-0.5,15.3,0.8,16.4c1,0.8,3.9,5.9,5.4,8.4l0,0l0.2,0.4c-0.2,0.2-0.4,0.4-0.6,0.7l0.5,3.5l0.1,0.5
		c-0.9,1.1-1.6,2.4-2.2,3.7c0,0,2.5,2.7,2,5.7c-0.5,3,0.8,6.9,0.8,7.1c-0.1-0.2-1.9-2.1-3.6-1.6c-1.7,0.5-6.6,1.9-6.6,1.9
		s-3.6,0.6-3.3,1.4s-2.5,4.3-2.5,4.3l-9.8-9.3c-0.1-0.3-0.2-0.6-0.3-0.8c-0.4-1.3-0.7-2.7-0.8-4.1c1.1-0.3,2.1-0.6,3.1-1
		c1-0.4,2-0.9,2.7-1.7c1-1.2,1.2-2.8,1.6-4.2c0.8-2.9,2.5-5.4,3.6-8.1c2-4.6,2.6-9.6,1.8-14.6c-0.2-1.5-0.7-3-1.5-4.3
		c-1.6-2.2-4.5-3.1-6.6-4.8c-2.1-1.8-3.5-4.4-5.9-5.7c-2.2-1.2-4.9-1.1-7.4-0.6c-4.9,0.8-9.6,2.5-13.9,5.1c-1.4,0.8-3,1.8-4.6,1.5
		c-1.4-0.3-2.5-1.4-3.3-2.5c0,0,0-0.1,0-0.1c0,0-0.1-0.1-0.1-0.1c-1,2.3-1.6,4.8-1.5,7.3c0,0.4,0,0.8,0,1.2v0.4c0,0.1,0,0.2,0,0.3
		l0,0c0,0.2,0,0.3-0.1,0.5c-0.2,0.5-0.5,1-0.9,1.3c-0.3,0.3-0.6,0.7-0.8,1.1c0-0.1,0.1-0.3,0.1-0.4c-0.6,0.9-1,2-1,3.1
		c0,0.8,0.2,1.6,0.7,2.2c0.5,0.5,1,0.9,1.6,1.3c-0.2,1.1-0.3,2.2-0.3,3.3c0,6.6,3.5,12.8,9.2,16.2c0.1,0.3,0.2,0.5,0.3,0.8
		c1.3,3.3,2.2,7.1,1.8,10.7c0,0.3-0.1,0.5-0.1,0.8c0,0.3-0.2,0.3-0.4,0.4l0,0c0,0-16.2,0.2-20-3.3c-3.8-3.4-9.6,8.4-9.6,8.4
		s-5.8,1.1-7,0c-1.2-1.1-7.9-0.2-7.9-0.2c-2.8-2.5-6.4-3.8-10.1-3.7c-2.3-1.7-4.7-3.1-7.4-4.1l0,0l-0.2-0.1l0,0
		c-1.2-0.4-2.4-0.6-3.7-0.5c0,0-8-6.6-10.3-10.1c-2.3-3.5-13.4-16.6-13.4-16.7v-0.6l-0.1-1.9c-0.3,0.1-0.7,0.1-1,0.1
		c-0.1-0.2-0.1-0.4-0.2-0.7c-0.6-1.9-1.4-3.7-2.3-5.4c0,0,0-2.4,0.7-3s-0.3-9.4-0.3-9.4s-7.2-16.8-13.6-4.2c0,0-12.1,8.1-2,17.5
		c0,0,4.1,2,4.6,3.5c0.4,1,1.8,3.8,2.7,5.7l0.4,0.8l-0.1,0.1l0.1,1.6l0.1,0.6c-1.9,1.1-3.2,2.2-2.9,3c0.6,1.4,1,2.8,1.2,4.3
		c0,0,14.1,17.7,15.9,25.2c0,0,37.8,22.5,50.2,24.1l-2.2,11.2c-0.3,3-0.5,6.1-0.5,9.1c0.2,2.4-1.5,13.3-1.5,13.3s-2.2,16-4,18.3
		c-1.8,2.2-1.5,11.9-1.5,11.9c-0.4,4.6-1.3,9.2-2.5,13.6c-1.8,6.1-0.5,13.6-0.5,13.6s-6.3,14.4,8.8,4.7c0,0,7.4-0.5,15.9-0.8
		c0,0.3,0,0.6,0,0.8c0,1.1,0,2.3-0.1,3.5c-0.1,8.3-0.2,19.7,0.2,28.3c0.7,15.2,5.3,45.4,5.3,45.4v15.2c-0.3,1.4-0.4,2.9-0.4,4.3
		c-0.1,5.3,1.3,10.6,4.1,15.2l1.2,10.1c0,0,2.7,6.7,2.8,10.7c0,0.3,0,0.6-0.1,1c-0.1,0.5-0.2,1-0.1,1.6c-0.2,4.6,2.6,15.6,2.6,15.6
		s0.2,11.1,1.8,11.7c1.4,0.5-1.9,6.4-2.9,8c0-0.1,0-0.2-0.1-0.3l-0.2,0.3c-0.3,0.9-0.5,1.8-0.5,2.8c-0.2,1.5,0.5,3.1,1.8,3.9
		c3.2,1.9,4.8,3.5,2.2,4.2c-1,0.2-2,0.4-2.9,0.6c0-0.1-0.1-0.3-0.1-0.4c-0.8,0.3-1.2,1.1-1.1,1.9c0,1.3,0.4,2.6,1,3.7
		c2.6,5.9,4.5,8.2,4.5,8.2l1.3-0.1c-0.2,0.5-0.4,0.9-0.7,1.4c-0.5,0.7-1.1,1.3-1.9,1.6c-0.7,0.4-1.5,0.7-2.3,0.8
		c-1.8,0.1-3.5,0.9-4.7,2.3c-1.6,2.1-2.7,5.1,0.6,7.6l11.9,4.1c0,0,20.4,2.6,19.3-1.9c-1.1-4.6-1.7-8.6-1.7-8.6
		c0.1-2.8-0.5-5.6-1.6-8.1c-0.2-0.4-0.5-0.8-0.7-1.2l0.7-0.1c0,0,1.5-10.1,3.5-12c0.5-0.4,0.6-0.8,0.5-1.1c0.2-0.5-0.3-0.9-1-1.1
		l-0.1,0.4c-0.6-0.1-1.3-0.2-2-0.2c0,0-0.7-5.3,1.5-7.2c0.4-0.4,0.5-1,0.4-1.6c0-0.7-0.1-1.5-0.2-2.2c0,0,0,0.1-0.1,0.1
		c-1.1-4.8-4.8-12.4-4.8-12.4s-0.2-4.8,1.2-6.7c1.3-1.9-0.2-26.2-0.2-26.2s0.5-11.7-1-17.2c-1.5-5.5,1.8-11.9,1.8-11.9s0-0.1,0-0.3
		V461l-0.2-1.8c0,0,0,0.1,0,0.1c-0.3-3.1-1-8.7-1.4-11.3c-0.7-3.7,0.2-21.3,0.2-21.3l3-7.5l5.3,13l5.6,17.3c0,0,2.8,3.7,2.9,7.4
		c0,0.2,0,0.4,0,0.5c0,0.4-0.1,0.8-0.1,1.2c-0.1,2.2,0.5,4.4,1.7,6.2c0,0,1.5,8.2,3.8,10.3s2.3,6.1,2.3,6.1s2.8,11.9,4.1,13.9
		c1.1,1.8,1.2,6.6,1.2,8.1l0,0c0,0.3,0,0.4,0,0.4s0.4,4.2,0.4,7.8c0,0.4,0,0.9,0,1.3c0,0,0-0.1,0-0.1c0,1-0.1,1.9-0.3,2.9l0,0.2
		c0-0.2,0-0.4,0.1-0.6c-0.6,2.4-0.9,4.9-0.8,7.4c-0.1,4.3,0.6,9.3,3.2,12.3c4.5,5.1,7.3,4.5,7.3,4.5s-2.1,6.4-4.8,7.7
		c-0.1,0-0.2,0.1-0.3,0.2c0-0.1,0-0.3-0.1-0.4c-0.6,0.6-0.9,1.5-0.8,2.4c-0.2,2.8,1.6,7.4,3.3,9.5c0.6,0.6,1.4,1.1,2.2,1.3
		c-0.1,0.1-0.3,0.2-0.4,0.3c-0.3,0.2-0.6,0.3-0.9,0.4c-0.4,0.2-0.9,0.3-1.4,0.4c-1.8,0-3.5,0.9-4.7,2.3c-1.6,2.1-2.7,5,0.6,7.6
		l11.9,4.1C635.5,574.8,655.8,577.4,654.7,572.9z"/>
	<path class="st14" d="M576.8,580.5l-11.5-4.1c-3.2-2.6-2.2-5.5-0.6-7.6c1.1-1.4,2.8-2.2,4.5-2.3c0.8-0.1,1.5-0.4,2.2-0.8
		c0.7-0.4,1.4-1,1.8-1.6c0.8-1.3,1.3-2.9,1.3-4.4c0,0,12.6-3.7,16,0c0.6,0.7,1.1,1.4,1.5,2.2c1.1,2.5,1.7,5.3,1.6,8.1
		c0,0,0.6,4,1.7,8.6C596.6,583.1,576.8,580.5,576.8,580.5z"/>
	<path class="st14" d="M633,574.8l-11.5-4.1c-3.2-2.6-2.2-5.5-0.6-7.6c1.1-1.4,2.8-2.2,4.5-2.3c0.5,0,0.9-0.2,1.3-0.4
		c0.3-0.1,0.6-0.3,0.9-0.4c3.2-1.8,3.1-6.1,3.1-6.1s12.6-3.7,16,0c0.5,0.5,0.9,1.1,1.2,1.6c2.2,3.7,1.9,8.7,1.9,8.7s0.6,4,1.6,8.6
		C652.6,577.4,633,574.8,633,574.8z"/>
	<path class="st7" d="M590.7,559.6c0.6,0.7,1.1,1.4,1.5,2.2l0,0l-18.9,2.2c0.8-1.3,1.3-2.9,1.3-4.4
		C574.7,559.6,587.3,555.9,590.7,559.6z"/>
	<path class="st7" d="M648.1,555.6v3.5c-2.9,4.8-17.1,3.8-21.3,1.4c0.3-0.1,0.6-0.3,0.9-0.4c3.2-1.8,3.1-6.1,3.1-6.1s12.6-3.7,16,0
		C647.3,554.4,647.7,555,648.1,555.6z"/>
	<path class="st5" d="M650.3,540.3c-0.9,1.5-1.6,3.2-2.2,4.8v12.7c-3.2,5.3-19.9,3.5-22.1,0.6c-2.3-2.9-4.6-10.4-2.1-11.7
		c2.5-1.3,4.7-7.7,4.7-7.7s-2.7,0.6-7.1-4.5c-4.3-5.1-3-16.5-2.2-19.2c0.8-2.7,0-11.9,0-11.9s0.2-6.4-1.1-8.5s-4-13.9-4-13.9
		s0-4-2.2-6.1c-2.2-2.1-3.7-10.3-3.7-10.3c-1.3-2-1.9-4.5-1.6-6.9c0.5-4-2.7-8.3-2.7-8.3l-5.5-17.3l-5.1-13l-2.9,7.5
		c0,0-0.8,17.6-0.2,21.3c0.7,3.7,1.6,13.5,1.6,13.5s-3.2,6.4-1.8,11.9c1.4,5.5,0.9,17.2,0.9,17.2s1.4,24.2,0.2,26.1
		c-1.3,1.9-1.1,6.7-1.1,6.7s6.6,14.1,4.5,16c-2.1,1.9-1.4,7.2-1.4,7.2s4.5,0,2.6,1.9c-1.9,1.9-3.4,12-3.4,12l-19.4,2.3
		c0,0-1.8-2.2-4.3-8.2c-2.6-6,0.5-5.3,3.1-5.9c2.6-0.6,1-2.2-2.1-4.2c-3.1-1.9-1.3-6.3-1.3-6.3s4.7-7.9,3-8.5
		c-1.6-0.6-1.8-11.7-1.8-11.7s-3.2-13.1-2.4-16.7c0.8-3.6-2.6-12-2.6-12l-1.1-10.1c-3.4-5.7-4.7-12.5-3.5-19.1v-15.6
		c0,0-4.5-30.2-5.1-45.4c-0.4-9.8-0.3-23.1-0.2-31.4c0.1-4.7,0.2-7.8,0.2-7.8l69.3-7.2c0,0-0.1,3.2,1.3,10.3
		c0.7,3.8,1.8,8.7,3.6,14.9c5,17.6,1.9,30.8,1.9,30.8l-0.6,22.3c0,0,6.1,14.9,4.8,20c-0.8,3-1.2,6.2-1.3,9.3c0,0,13.6,32.6,12.2,42
		c-1.4,9.5,4.5,24.4,4.5,24.4S651.9,537.5,650.3,540.3z"/>
	<path class="st11" d="M610.7,456.8l21.1-2.8C631.8,453.9,619.8,466.1,610.7,456.8z"/>
	<path class="st7" d="M628.7,433.3c0,0,0.7,7.5-3.8,10.3C624.9,443.6,633.1,442.3,628.7,433.3z"/>
	<path class="st7" d="M627.4,409.6c0,0-17.6,14.5-24.1,13.3C597,421.7,627.4,409.6,627.4,409.6z"/>
	<path class="st7" d="M584.5,463.6c0,0-13.4,3-13.8,8.4S584.5,463.6,584.5,463.6z"/>
	<path class="st11" d="M587.5,530.5c0,0-18.9,3.5-13.6,5.9c5.4,2.4,14.2,4.3,14.2,4.3S594.2,541.1,587.5,530.5z"/>
	<g class="st15">
		<path d="M570.1,540.2c-1-0.6-1.6-1.6-1.7-2.7l-0.2,0.3c0,0-1.8,4.3,1.3,6.3c0.3,0.2,0.7,0.4,1,0.7c0.6-0.1,1.2-0.2,1.8-0.3
			C574.8,543.8,573.2,542.2,570.1,540.2z"/>
		<path d="M594.5,538.9c0.5-0.5,0.5-1.7,0.2-3.3c-0.8,1.2-1.1,3.2-1.1,4.6C593.8,539.8,594.1,539.3,594.5,538.9z"/>
		<path d="M591.6,459.1c-0.7,1.9-1.1,3.9-1.3,5.9c0.4-1.4,0.9-2.7,1.5-4.1L591.6,459.1z"/>
		<path d="M634.9,450.7c0.1-0.6,0.2-1.2,0.2-1.8c-0.2,1.2-0.4,2.3-0.5,3.3C634.7,451.7,634.8,451.3,634.9,450.7z"/>
		<path d="M591.1,516.2c0.3-0.4,0.4-1.7,0.5-3.6c-0.6,1.4-0.9,3-0.9,4.5C590.8,516.8,590.9,516.5,591.1,516.2z"/>
		<path d="M595.1,546.4c-1,3.2-1.7,6.5-2.2,9.8l-19.4,2.2c0,0-1.8-2.2-4.3-8.2c-0.2-0.5-0.4-0.9-0.5-1.4c-1.2,0.5-1.6,1.7-0.1,5.3
			c2.6,5.9,4.3,8.2,4.3,8.2l19.4-2.2c0,0,1.4-10.1,3.4-12C596.6,547.2,596,546.7,595.1,546.4z"/>
		<path d="M569.5,517.6c0,0,0.2,11.1,1.8,11.7l0,0c0.8-1.8,1.4-3.6,0.6-3.9c-1.6-0.6-1.8-11.7-1.8-11.7s-3.2-13.1-2.4-16.7
			c0.8-3.6-2.6-12-2.6-12l-1.1-10.1c-3.4-5.7-4.7-12.5-3.5-19.1v-15.6c0,0-4.5-30.2-5.1-45.4c-0.4-9.8-0.3-23.1-0.2-31.4
			c0-1.5,0-2.8,0.1-4l-0.5,0.1c0,0-0.1,3.1-0.2,7.8c-0.1,8.3-0.3,21.6,0.2,31.4c0.6,15.2,5.1,45.4,5.1,45.4v15.6
			c-1.2,6.6,0.1,13.4,3.5,19.1l1.1,10.1c0,0,3.4,8.5,2.6,12C566.2,504.5,569.5,517.6,569.5,517.6z"/>
		<path d="M626.6,554.2c-1.6-2.3-2.6-4.9-3.1-7.6c-2,1.8,0.3,8.7,2.5,11.5c2.2,2.9,18.9,4.7,22.1-0.6v-3.1
			C643.7,558.6,628.7,556.9,626.6,554.2z"/>
		<path d="M651,536.1c-0.9,1.5-1.6,3.2-2.2,4.8v2.3c0.4-0.8,0.9-1.9,1.6-3.2c0.5-1.3,0.7-2.6,0.7-4C651.1,536,651,536,651,536.1z"/>
		<path d="M627.6,538.6c0.6-1.2,1.1-2.5,1.6-3.8c0,0-2.7,0.6-7.1-4.5c-3.2-3.7-3.3-10.8-2.9-15.4c-0.8,2.7-2.1,14.1,2.2,19.3
			C624.3,537.5,626.4,538.4,627.6,538.6z"/>
		<path d="M619.2,503c0.3,3.2,0.4,6.3,0.3,9.5c0.1-0.5,0.2-1,0.3-1.5c0.8-2.7,0-11.9,0-11.9s0.2-6.4-1.1-8.5c-1.3-2.1-4-14-4-14
			s0-4-2.2-6.1c-2.2-2.1-3.7-10.3-3.7-10.3c-1.3-2-1.9-4.5-1.6-6.9c0.5-4-2.7-8.3-2.7-8.3l-5.5-17.3l-5.1-13l-2.9,7.5
			c0,0,0,1-0.1,2.5l2.3-6.1l5.1,13l5.5,17.3c0,0,3.2,4.3,2.7,8.3c-0.3,2.4,0.3,4.9,1.6,6.9c0,0,1.4,8.2,3.7,10.3
			c2.2,2.1,2.2,6.1,2.2,6.1s2.7,11.9,4,13.9C619.4,496.6,619.2,503,619.2,503z"/>
	</g>
	<path class="st16" d="M632.7,207.8l-1.2,5.9l0.1,2.6l0,1.9l-6.7,0.7l-0.7-1.4l0,0c-1.4-2.5-4.3-7.6-5.2-8.4
		c-1.2-1-3.4-17.3-0.8-16.4c1.6,0.6,2.9,1.8,3.7,3.4C621.8,196.2,635,197.7,632.7,207.8z"/>
	<path class="st7" d="M631.6,218.2l-6.7,0.7l-0.7-1.4l0,0c1.9-2.1,4.9-2.6,7.4-1.2L631.6,218.2z"/>
	<path class="st3" d="M633.3,221.4l-8.8,2l-0.2-1.3l-0.5-3.5c0,0,3.5-4.7,8.5-1.2l0.4,1.8L633.3,221.4z"/>
	<path class="st16" d="M490.3,208.5l-9.4,5.1l-0.8-1.8c-0.9-1.9-2.2-4.7-2.6-5.7c-0.6-1.6-4.5-3.5-4.5-3.5
		c-9.8-9.4,1.9-17.5,1.9-17.5c6.2-12.5,13.1,4.2,13.1,4.2s1,8.8,0.3,9.4c-0.7,0.6-0.7,3-0.7,3c0.9,1.7,1.7,3.5,2.3,5.4
		C490.1,207.9,490.3,208.5,490.3,208.5z"/>
	<path class="st7" d="M490.3,208.5l-9.4,5.1l-0.8-1.8c1.3-1.1,6-4.9,7.6-4.8c0.7,0.1,1.5,0.1,2.2,0.1
		C490.1,207.9,490.3,208.5,490.3,208.5z"/>
	<path class="st3" d="M491.2,211.3l-10.6,5.2l-0.2-2.3l-0.1-1.6c0,0,6.1-5.3,7.9-5.1c0.9,0.1,1.8,0.1,2.8,0l0.1,1.9L491.2,211.3z"/>
	<path class="st16" d="M607,246.8c0,0-46.2,5.2-37.5,2.4c6-2,8.4-5.7,8.9-10c0.4-3.6-0.5-7.4-1.7-10.7c-1.1-2.9-2.5-5.7-4.1-8.3
		c0,0,35.3-19.4,28.2-1.8c-1.1,2.7-1.8,5.5-2,8.4c-0.2,2.9,0.1,5.7,0.9,8.5C601,239.7,603.5,243.7,607,246.8z"/>
	<path class="st7" d="M600.7,218.4c-1.1,2.7-1.8,5.5-2,8.4c-3.3,2.8-7,2.6-11.6,2.6c-3.6,0-7.6,0.9-10.5-0.9
		c-1.1-2.9-2.5-5.7-4.1-8.3C572.5,220.1,607.8,200.7,600.7,218.4z"/>
	<circle class="st16" cx="586.5" cy="211.5" r="19.1"/>
	<path class="st7" d="M607,246.8c0,0-46.2,5.2-37.5,2.4c6-2,8.4-5.7,8.9-10c2.3-2.5,6.9-4.3,9.8-5.2c2.7-0.9,5.6-1,8.4-0.1
		c1.1,0.3,2.1,0.8,3,1.4C600.9,239.7,603.5,243.7,607,246.8z"/>
	<path class="st7" d="M633.3,221.4l-8.8,2l-0.2-1.3c1.9-2.7,5.3-3.8,8.5-2.9L633.3,221.4z"/>
	<path class="st7" d="M491.2,211.3l-10.6,5.2l-0.2-2.3c3.4-1.8,7-3.4,10.7-4.7L491.2,211.3z"/>
	<path class="st7" d="M625.3,363.1c-17.9,2.9-43.3,6.5-47.4,5.3c-3.4-1-14.1-0.9-23.4-0.6c0.1-4.7,0.2-7.8,0.2-7.8l69.3-7.2
		C624,352.8,623.9,356,625.3,363.1z"/>
	<path class="st12" d="M643.1,358.9c0,0-58.9,10.1-65.2,8.2s-38.8,0.2-38.8,0.2c-14.6,9.8-8.5-4.7-8.5-4.7s-1.3-7.5,0.5-13.6
		c1.2-4.5,2-9,2.4-13.7c0,0-0.3-9.6,1.4-11.9c1.8-2.2,3.9-18.3,3.9-18.3s1.6-10.9,1.4-13.3s0.5-9.1,0.5-9.1l2.1-11.2
		c-12-1.6-48.6-24.1-48.6-24.1c-1.8-7.5-15.4-25.2-15.4-25.2c-0.2-1.5-0.6-2.9-1.1-4.3c-1-2.6,13.5-7.7,13.5-7.7s10.7,13.1,13,16.7
		c2.2,3.6,9.9,10.1,9.9,10.1c1.2-0.1,2.4,0,3.5,0.5l0.2,0.1l0,0c2.6,1,5,2.4,7.2,4.1c3.6-0.1,7.1,1.2,9.8,3.7c0,0,6.6-1,7.7,0.2
		c1.1,1.1,6.7,0,6.7,0s5.6-11.9,9.3-8.4s19.4,3.3,19.4,3.3c2.1-2.8,7.2-4.8,10.3-5.7c2.7-0.9,5.6-1,8.4-0.1c1.2,0.4,2.3,0.9,3.3,1.6
		l9.5,9.3c0,0,2.7-3.5,2.4-4.3c-0.3-0.8,3.2-1.4,3.2-1.4s4.7-1.4,6.4-1.9s3.4,1.4,3.5,1.6c-0.1-0.2-1.3-4.1-0.8-7.1
		c0.4-3-1.9-5.7-1.9-5.7c5.6-13.8,18.3-2.2,18.3-2.2s1.4,7.5,0.2,10.4c-1.3,2.9,1.3,9,1,10.6c-0.3,1.6,0.6,4.3,0.6,7.4
		s-1.6,8.8-2.6,11.4c-0.9,2.6-8.7,8.3-8.7,8.3s-0.5,9.1-3.9,14.4c-3.4,5.3-1.3,23.4-1.3,23.4s3.2,14.1,7.2,18.6
		C637.2,333.3,643.1,358.9,643.1,358.9z"/>
	<path class="st7" d="M557.3,253.3c0,0-1.8-5.3-3.4-5.7c-1.6-0.6-3.2-1.3-4.7-2.1l1-2c0,0,6,1.6,7,3.4S557.3,253.3,557.3,253.3z"/>
	<path class="st7" d="M525,241.6c-0.3,1.6-14.6,3-14.6,3l7.2-7.2l0,0l0.2,0.1l0,0C520.4,238.5,522.8,239.9,525,241.6z"/>
	<circle class="st17" cx="483.7" cy="219.6" r="1.3"/>
	<circle class="st17" cx="485.3" cy="222.2" r="1.3"/>
	<circle class="st17" cx="486.9" cy="224.5" r="1.3"/>
	<circle class="st17" cx="488.6" cy="227.1" r="1.3"/>
	<circle class="st17" cx="639.9" cy="227" r="1"/>
	<circle class="st17" cx="640" cy="229.3" r="1"/>
	<circle class="st17" cx="640.2" cy="231.7" r="1"/>
	<path class="st7" d="M557.3,296.8c-0.2-0.2,36,45.5,64.1,19.1C621.4,315.9,577.1,321.9,557.3,296.8z"/>
	<path class="st7" d="M536.6,320.6c0,0,21.6,0.6,23.9,6.8v6.5c-1.3,0.7-2.8,0.7-4,0c-2.2-1.2-15.3-7.8-19.9-4.6L536.6,320.6z"/>
	<path class="st12" d="M537,320.6c0,0,20.7,0.6,22.9,6.5v6.2c-1.2,0.7-2.7,0.7-3.9,0c-2.1-1.1-14.6-7.5-19-4.4V320.6z"/>
	<path class="st7" d="M548.4,273.6c2.2,5.1,5,10,8.4,14.4c3.7,4.9,8.1,9.2,13.1,12.7C569.9,300.6,548.7,276.5,548.4,273.6z"/>
	<path class="st7" d="M541.3,248.4c0,0,3.6,15.6,12.9,20.9L541.3,248.4z"/>
	<path class="st7" d="M535.8,250c-0.1-0.3-3.2,12.3,12,19.3C547.8,269.3,541.3,267.1,535.8,250z"/>
	<path class="st7" d="M630.3,239.5c-0.2,0,7.5,4.9,9.6,7.2C639.9,246.8,634.8,239.2,630.3,239.5z"/>
	<path class="st14" d="M581.3,228.8c0,1.7,1.4,3,3,3c0.1,0,0.2,0,0.3,0c5.8,0.4,11.9,0.6,17.2-1.6c1-0.4,1.9-1,2.6-1.7
		c1-1.2,1.1-2.8,1.5-4.2c0.8-2.9,2.4-5.4,3.5-8.1c2-4.6,2.6-9.6,1.9-14.6c-0.2-1.5-0.7-3-1.5-4.3c-1.5-2.2-4.4-3.1-6.4-4.9
		c-2-1.8-3.4-4.4-5.7-5.7c-2.1-1.2-4.8-1.1-7.2-0.6c-4.8,0.8-9.3,2.5-13.4,5c-1.4,0.8-2.9,1.8-4.5,1.5c-1.4-0.3-2.4-1.4-3.3-2.5
		c-1.1,2.6-1.6,5.5-1.4,8.3c0.1,0.4,0,0.8,0,1.3c-0.2,0.5-0.5,0.9-0.9,1.3c-1.4,1.6-2.3,4.3-0.9,6c0.6,0.7,1.6,1.1,2.2,1.9
		c1.1,1.3,0.7,3.3,0.7,5c-0.1,0.6,0.1,1.2,0.4,1.7c0.6,0.6,1.5,0.8,2.4,0.6c0.8-0.2,1.7-0.3,2.5-0.2c0.9,0.3,1.7,0.9,2.2,1.6
		C579.1,220.9,580.2,224.6,581.3,228.8z"/>
	<g class="st18">
		<path d="M605.1,226.9c-0.7,0.8-1.6,1.4-2.6,1.7c-5.4,2.2-11.4,2-17.2,1.6c-0.6,0-1.2-0.1-1.8-0.4c-0.9-0.5-1.2-1.6-1.5-2.6
			c-1.1-4.1-2.2-7.9-4.9-11.3c-0.5-0.8-1.3-1.4-2.2-1.7c-0.8-0.1-1.7,0-2.5,0.2c-0.8,0.2-1.7,0-2.4-0.6c-0.3-0.5-0.5-1.1-0.4-1.7
			c0-1.7,0.4-3.7-0.7-5c-0.6-0.7-1.6-1.1-2.2-1.9c-0.8-1.1-1-2.6-0.4-3.8c-1,1.6-1.5,3.7-0.3,5.1c0.6,0.7,1.6,1.1,2.2,1.9
			c1.1,1.3,0.7,3.3,0.7,5c-0.1,0.6,0.1,1.2,0.4,1.7c0.6,0.6,1.5,0.8,2.4,0.6c0.8-0.2,1.7-0.3,2.5-0.2c0.9,0.3,1.7,0.9,2.2,1.6
			c2.7,3.4,3.7,7.2,4.9,11.3c0.1,1,0.6,1.9,1.4,2.6c0.6,0.3,1.2,0.4,1.8,0.4c5.8,0.4,11.9,0.6,17.2-1.6c1-0.4,1.9-1,2.6-1.7
			c0.4-0.5,0.6-1,0.8-1.5C605.2,226.7,605.2,226.8,605.1,226.9z"/>
		<path d="M568,199.1c0.3-0.3,0.5-0.6,0.6-1c0.1-0.4,0.1-0.8,0-1.3c-0.2-2.3,0.1-4.7,0.9-6.9l-0.1-0.1c-1.1,2.6-1.6,5.5-1.4,8.3
			C568,198.5,568,198.8,568,199.1z"/>
	</g>
	<path class="st7" d="M577.9,240.3c0,0,23.8,3.2,26-0.4"/>
	<path class="st7" d="M624.3,230.5c0,0,13.3,0,16.2,5"/>
	<path class="st12" d="M698.4,673.6c-3.9,3.5-9,5.4-14.3,5.3c-1.3,0-3.2,0.3-3.2,1.6c0,0.4,0.2,0.8,0.4,1.1c1.7,2.8,4.3,4.8,7.4,5.8
		c2.9,0.9,5.9,0.7,8.9,0.6l8.7-0.5c1.6-0.1,3.3-0.2,4.9-0.4s3.4-0.5,5.1-0.8c4.2-0.6,8.5-0.8,12.7-0.6c1.1,0,2.5,0,3.1-0.8
		s0.3-2.4,0.1-3.6c-0.5-2.5,0-5.2-0.5-7.7c-0.8-4.5-4.7-7.9-8.9-9.5c-3.9-1.5-10.9-3.2-14.6-0.7C704.4,666,702,670.4,698.4,673.6z"
		/>
	<path class="st5" d="M707.1,524.1c0.8,3.7,4.3,6.5,4.4,10.2c0.1,3-2.1,5.5-3.6,8.1c-1.5,2.7-2.7,5.4-3.7,8.3
		c-2.9,7.5-6.5,14.6-10.8,21.4c-2.1,3.3-4.3,6.8-3.9,10.6c0.3,1.8,1,3.5,1.9,5.1l6.2,12.2c1.3,2.4,2.4,5,3.1,7.7
		c0.5,2.3,0.6,4.7,0.9,7.1c1,7.5,4.5,15,2.4,22.3c-0.2,0.6-0.8,1.4-1.3,0.9c2,3.8,3.7,7.6,3.5,11.9c-0.1,2.3-0.8,4.6,0.1,6.7
		c0.4,0.9,1,1.7,1,2.6c0,0.6-0.3,1.2-0.4,1.8c-0.2,1.7,1.4,3.2,3.1,3.7s3.4,0.5,5.1,1c3.2,1,5.5,3.7,8.2,5.6c2.8,1.9,6.1,3,9.5,3.1
		c0.5,0.1,1,0,1.4-0.3c0.5-0.4,0.8-1,0.8-1.7c0.3-3.1-1-6.2-3.4-8.2c-0.5-0.3-1-0.8-1.3-1.3c-0.2-0.5-0.2-1-0.1-1.5
		c0.5-6.7,0.4-13.5-0.4-20.2c-0.3-2.1-0.4-4.3-0.3-6.4c0.2-1.8,0.7-3.6,0.5-5.3c-0.2-1.8-1.1-3.4-1.6-5.1c-1-3.1-0.7-6.3-0.8-9.5
		c-0.2-5.5-1.4-11-2.7-16.4c-0.5-2.1-1.1-4.3-2.6-5.9c-1.3-1.3-3.3-2.6-2.9-4.4c0.3-0.7,0.7-1.3,1.2-1.7c1.2-1.5,1.7-3.4,1.5-5.3
		c1.1,0.3,2.3-0.3,2.8-1.3c10-4.7,18-14.2,21.6-24.6c0.2-0.8,0.5-1.5,1-2.2c0.9-1.3,2.5-1.9,4-2.6c4.5-2.3,7.6-6.5,10.4-10.6
		c1.6-2.4,3.3-4.9,4-7.7c0.4-1.8,0.6-3.7,0.5-5.6l0.3-9.6c0.1-0.6,0-1.3-0.2-1.9c-0.2-0.6-0.6-1.1-1-1.5c-2.7-2.9-6.3-4.8-10.2-5.5
		c-2.6-0.5-5.3-0.4-8-0.6c-5.2-0.4-10.2-2-15.4-1.6c-8.1,0.6-15.3,6.2-19.1,13.4C711.4,521.8,710,524,707.1,524.1z"/>
	<path class="st3" d="M662.1,461.4c0.1,1.5-0.1,3-0.6,4.4c-0.6,1.3-2.2,2.4-3.6,1.8c0.4-0.9-0.7-2-1.7-1.9c-1,0.2-1.9,1-2.3,2
		c-0.7,1.4-0.9,2.9-0.7,4.5c0.3,1.9,1.4,3.7,1.1,5.6c-0.2,1.6-1.4,3.1-0.8,4.6c0.4,0.7,0.9,1.3,1.5,1.8c1.7,2.1,1.4,5.1-0.5,6.9
		l15.5,0.3c-0.6,2.6,0.6,5.2,1.9,7.5c7.5,12.8,20.7,21.4,35.5,23.2c-1.5,0.9-2,2.7-1.1,4.2c0.1,0.2,0.2,0.3,0.4,0.5
		c1.3,1.3,3.4,1.1,5,0.3s2.8-2.2,4.3-3.2c2.5-1.8,5.7-2.6,8.8-2.4c1.9,0.2,3.8,0.8,5.8,0.9c5.7,0.3,10.7-3.8,16.2-5.5
		c4-1.2,8.6-1.2,12-3.8c1.5-1.1,2.7-2.9,2.2-4.6c-0.4-1-0.9-1.9-1.6-2.7c-1.9-2.5-3.1-5.5-4.5-8.4c-2.8-5.7-6.6-10.8-11.2-15
		c-3.5-3.1-7.2-5.9-11.1-8.4c-0.9-0.7-1.9-1.3-3-1.8c-1.4-0.6-2.9-0.9-4.1-1.6c-1.8-1.1-2.9-3.2-4.3-4.8c-3.1-3.6-7.8-5.2-11.6-8.1
		c-2.5-1.9-4.8-4.4-7.8-5.3c-1.5-0.5-3-0.5-4.5-0.9c-3.4-1-5.8-4-9.1-5.2c-2.6-1-5.5-0.7-8.2-1c-3.1-0.4-6-1.5-8.6-3.3
		c-0.8-0.7-1.7-1.2-2.7-1.6c-4.2-1.3-4.5,6.5-4.9,9.2C663.1,453.4,662.1,457.4,662.1,461.4z"/>
	<path class="st10" d="M666.2,487.4c0.7,7.6-5,14.9-3.3,22.3c0.4,1.6,1,3.1,1.3,4.7c0.7,4.4-1.9,8.5-4.4,12.2l-21.5,31.5
		c-0.9,1.4-1.9,2.7-3.1,3.8c-4.1,3.7-10.3,3.3-15.7,4.4c-3.8,0.8-7.4,2.4-10.5,4.6c-0.3,0.2-0.4,0.6-0.1,0.9
		c1.8,2.5,4.7,3.8,7.8,3.7c0.6,0.7,0,1.8-0.8,2.4c-1.1,0.8-2.7,1-3,3c-0.1,0.7,0.1,1.4,0.4,2c0.9,1.3,2.2,2.3,3.8,2.6
		c7.4,2.3,15.5-1.7,21.1-7.2s9.6-12.3,15-17.8c3-3.1,6.5-5.7,9.6-8.7c6.2-5.9,11.1-13.1,15.7-20.3c1.4-2.2,2.8-4.4,3.4-6.9
		c0.6-2.5,0.3-5.1,1-7.5c0.9-3.2,3.2-5.7,5.2-8.4c3.8-5.3,6.4-11.7,5.9-18.1c-0.5-6.5-4.5-12.9-10.6-15.1c-1.9-0.8-4-0.9-5.9-0.4
		c-2.5,0.8-4.3,2.8-6.1,4.8l-4.1,4.7c-1,1-1.8,2.3-2.3,3.6c-0.5,1.4-0.2,3,0.8,4"/>
	<path class="st3" d="M677.1,456.3c-2.8,0.2-5.9,0.4-7.9,2.5c-0.8,0.9-1.5,2-2,3.1c-1.9,3.9-3.8,8.1-4,12.5
		c-0.1,3.5,0.9,6.9,1.4,10.4c0.4,2.9-0.7,5.8-0.9,8.8c3.5-1.1,8.1-2.5,11.3-4.3c2.2-1.2,4.3-2.6,6.6-3.4c3.4-1.1,9,0.8,12.2,2.4
		c0.2-2.2-1.5-6.2-1.3-8.4c0-0.9,0.2-1.9,0.5-2.8c0.5-1,1-1.9,1.7-2.7c2.5-4.1,2.1-9.3-1-12.9c-2.8-3.2-7.3-4.4-11.6-4.9
		c-2.7-0.3-5.4-0.4-8.1-0.3"/>
</g>
</svg>
