<?xml version="1.0" encoding="utf-8"?>
<!-- Generator: Adobe Illustrator 23.1.1, SVG Export Plug-In . SVG Version: 6.00 Build 0)  -->
<svg version="1.1" id="Capa_1" xmlns="http://www.w3.org/2000/svg" xmlns:xlink="http://www.w3.org/1999/xlink" x="0px" y="0px"
	 viewBox="0 0 256 256" style="enable-background:new 0 0 256 256;" xml:space="preserve">
<style type="text/css">
	.st0{fill:#FF5722;}
	.st1{fill:#FFFFFF;}
</style>
<g>
	<polygon class="st0" points="16.9,1 37.1,229.6 128,255 218.8,229.6 239.1,1 	"/>
	<polygon class="st1" points="195.2,75.8 128,75.8 88.7,75.8 91.2,104.5 128,104.5 192.7,104.5 185.1,190.6 128,206.5 128,206.5 
		70.9,190.6 66.9,145.6 94.9,145.6 96.9,168.9 128,177.4 128,177.3 128,177.3 159.1,168.9 162.3,132.5 128,132.5 128,132.5 
		65.8,132.5 58.3,47.7 128,47.7 197.7,47.7 	"/>
</g>
</svg>
