<?xml version="1.0" encoding="utf-8"?>
<!-- Generator: Adobe Illustrator 23.1.1, SVG Export Plug-In . SVG Version: 6.00 Build 0)  -->
<svg version="1.1" id="Capa_1" xmlns="http://www.w3.org/2000/svg" xmlns:xlink="http://www.w3.org/1999/xlink" x="0px" y="0px"
	 viewBox="0 0 823 823" style="enable-background:new 0 0 823 823;" xml:space="preserve">
<style type="text/css">
	.st0{opacity:0.1;fill:#8338EC;enable-background:new    ;}
	.st1{fill:url(#SVGID_1_);}
	.st2{fill:#535461;}
	.st3{fill:#D6D6E3;}
	.st4{fill:#A8A8A8;}
	.st5{fill:#8338EC;}
	.st6{opacity:0.1;}
	.st7{fill:#FFFFFF;}
	.st8{fill:#575988;}
	.st9{fill:#FA595F;}
	.st10{fill:#FFD037;}
	.st11{fill:url(#SVGID_2_);}
	.st12{opacity:8.000000e-02;}
	.st13{fill:url(#SVGID_3_);}
	.st14{fill:url(#SVGID_4_);}
	.st15{fill:url(#SVGID_5_);}
	.st16{opacity:5.000000e-02;}
	.st17{fill:url(#SVGID_6_);}
	.st18{fill:url(#SVGID_7_);}
	.st19{fill:url(#SVGID_8_);}
	.st20{fill:url(#SVGID_9_);}
	.st21{fill:url(#SVGID_10_);}
	.st22{fill:url(#SVGID_11_);}
	.st23{fill:url(#SVGID_12_);}
	.st24{fill:url(#SVGID_13_);}
	.st25{fill:url(#SVGID_14_);}
	.st26{fill:url(#SVGID_15_);}
	.st27{fill:url(#SVGID_16_);}
	.st28{fill:url(#SVGID_17_);}
	.st29{fill:url(#SVGID_18_);}
	.st30{fill:url(#SVGID_19_);}
	.st31{fill:url(#SVGID_20_);}
	.st32{fill:url(#SVGID_21_);}
	.st33{fill:url(#SVGID_22_);}
	.st34{fill:url(#SVGID_23_);}
	.st35{fill:url(#SVGID_24_);}
	.st36{opacity:5.000000e-02;fill:url(#SVGID_25_);enable-background:new    ;}
	.st37{fill:#F7C4A7;}
	.st38{opacity:8.000000e-02;enable-background:new    ;}
	.st39{opacity:0.1;enable-background:new    ;}
	.st40{opacity:5.000000e-02;enable-background:new    ;}
	.st41{fill:#6A5C99;}
	.st42{fill:#632652;}
</style>
<title>old_day</title>
<g>
	<path class="st0" d="M688.9,225.7c5.3,50.7,46.8,93.2,85.9,121.7c13.1,9.5,27.2,19.4,35.5,35.1c10.1,19.2,8.3,41.7,1.8,58.9
		c-11.8,31.3-38.1,51.1-68.6,51.8c-26.3,0.5-54.5-12.3-80.6-10.9c-43.8,2.4-72.6,44-91.2,88c-13.2,31.1-25.9,67.5-55.2,75.3
		c-20.6,5.5-45-5.3-65.6-21.6c-10-7.9-19.8-17.3-30.7-20.8c-6.5-2-12.9-1.8-19-0.9c-55.9,8.1-92.8,66.5-149.7,70.6
		c-38.4,2.8-80.5-20.4-115-53.3c-34.5-32.9-62.7-75.1-89.3-117.4c-19-30-38.3-63-41.2-97.1c-3.1-36.2,13.9-66.5,37.8-81.6
		s54.1-16.8,83.8-13.6c37.2,4,77,15.2,109.1,0.9c21.9-9.8,37.7-30.5,54.8-48.5c28.5-30.1,61.7-53.6,94.9-76.5
		c31.9-21.9,64.3-43.6,100.8-55.5c25.9-8.5,53.4-5.6,80-10.5c17.3-3.2,31.8-13.2,50-13.6c22.4-0.6,50.1,9.1,64.2,37.6
		C694.9,170.6,686.1,198.8,688.9,225.7z"/>
	
		<linearGradient id="SVGID_1_" gradientUnits="userSpaceOnUse" x1="467.5574" y1="139.3915" x2="467.5574" y2="680.0967" gradientTransform="matrix(1 0 0 -1 -44.49 790.84)">
		<stop  offset="0" style="stop-color:#808080;stop-opacity:0.25"/>
		<stop  offset="0.54" style="stop-color:#808080;stop-opacity:0.12"/>
		<stop  offset="1" style="stop-color:#808080;stop-opacity:0.1"/>
	</linearGradient>
	<path class="st1" d="M582.9,115.9l-49.9-3l-28.9-2.1v-0.1h-0.4h-0.4v0.1l-155.3,12.4h-12.9l-1.5,53.6l25,8.8l15.1,77.1l-68.9,136.5
		l-41.7,31.6v30.1l25,24.2l1.5,110.9l7.6,1.5v-1.2l3.8,0.7v0.4l147.9,49.7l6.2,4.2l13-8.1l104.8-60.5L582.9,115.9z M423.9,460.3
		L423.9,460.3l40.5-34.3l0,0L423.9,460.3z M283.3,474.5l11,10.6v0.7L283.3,474.5z"/>
	<polygon class="st2" points="303.2,487.4 450.8,524.7 428.9,499.8 416.5,484.5 287.2,458.9 281.3,464 	"/>
	<polygon class="st3" points="281.3,464 426.7,497.6 427.4,462.6 385.8,446.5 302.5,432.6 278.4,432.6 	"/>
	<polygon class="st3" points="386.5,265.3 534.9,274.8 534.9,247 524.6,184.9 519.5,180.5 371.2,184.9 	"/>
	<polygon class="st3" points="351.5,125.7 344.1,125.7 342.7,179.1 366.8,187.8 381.4,264.6 314.9,400.5 274.7,431.9 274.7,461.8 
		298.8,486 300.3,596.3 307.6,597.8 306.1,488.1 282,462.6 281.3,431.9 320,401.2 388,265.3 373.4,187.8 349.3,177.6 351.5,125.7 	
		"/>
	<polygon class="st2" points="345.6,125.7 338.3,125.7 336.8,179.1 361,187.8 375.6,264.6 309.1,400.5 268.9,431.9 268.9,461.8 
		293,486 294.5,596.3 301.8,597.8 300.3,488.1 276.2,462.6 275.5,431.9 315.6,401.2 382.1,265.3 367.5,187.8 343.4,177.6 
		345.6,125.7 	"/>
	<polygon class="st4" points="345.2,173.6 348.9,178.7 369.4,188.2 531.6,183.8 515.9,179.1 499.1,171.8 501.2,165.9 	"/>
	<polygon class="st5" points="317.8,403.4 466.2,427.5 496.1,363.9 537.1,272.6 386.5,265.3 	"/>
	<g class="st6">
		<polygon class="st7" points="394.6,291.6 494.7,299.6 442.8,401.9 345.6,387.3 		"/>
	</g>
	<g class="st6">
		<polygon class="st7" points="401.5,299 405.9,299.4 403.6,303.9 399.3,303.2 		"/>
	</g>
	<g class="st6">
		<polygon class="st7" points="402.2,341.4 406.6,341.8 404.3,346.3 400,345.6 		"/>
	</g>
	<g class="st6">
		<polygon class="st7" points="426.3,304.1 430.7,304.5 428.4,309 424.2,308.4 		"/>
	</g>
	<g class="st6">
		<polygon class="st7" points="472.4,306.3 476.8,306.7 474.5,311.2 470.2,310.5 		"/>
	</g>
	<g class="st6">
		<polygon class="st7" points="410.2,312.2 414.7,312.5 412.4,317 408.1,316.4 		"/>
	</g>
	<g class="st6">
		<polygon class="st7" points="426.3,356.7 430.7,357.1 428.4,361.6 424.2,361 		"/>
	</g>
	<g class="st6">
		<polygon class="st7" points="386.9,331.2 391.3,331.5 389,336 384.7,335.4 		"/>
	</g>
	<g class="st6">
		<polygon class="st7" points="454.1,304.1 458.5,304.5 456.2,309 451.9,308.4 		"/>
	</g>
	<g class="st6">
		<polygon class="st7" points="419,329 423.4,329.3 421.1,333.8 416.9,333.2 		"/>
	</g>
	<g class="st6">
		<polygon class="st7" points="413.9,301.2 418.3,301.6 416,306.1 411.7,305.4 		"/>
	</g>
	<g class="st6">
		<polygon class="st7" points="436.5,326.8 441,327.1 438.7,331.7 434.4,331 		"/>
	</g>
	<g class="st6">
		<polygon class="st7" points="441.7,304.1 446.1,304.5 443.8,309 439.5,308.4 		"/>
	</g>
	<g class="st6">
		<polygon class="st7" points="395.6,314.4 400,314.7 397.8,319.2 393.5,318.6 		"/>
	</g>
	<polygon class="st3" points="278.4,432.6 423.1,461.8 462.9,427 318.2,402.3 	"/>
	<polygon class="st2" points="305.4,483.8 305.4,597.8 448.6,647.4 450.8,529.1 445,518.1 418.7,511.5 	"/>
	<ellipse class="st8" cx="324.1" cy="412.9" rx="6.2" ry="3.7"/>
	<ellipse class="st9" cx="329.2" cy="420.9" rx="6.2" ry="3.7"/>
	<ellipse class="st10" cx="311.6" cy="418.7" rx="6.2" ry="3.7"/>
	<ellipse class="st8" cx="390.5" cy="426" rx="6.2" ry="3.7"/>
	<ellipse class="st10" cx="378.1" cy="432.6" rx="6.2" ry="3.7"/>
	<ellipse class="st4" cx="354.7" cy="421.7" rx="9.1" ry="4.4"/>
	<ellipse class="st9" cx="397.1" cy="434.1" rx="6.2" ry="3.7"/>
	<path class="st4" d="M357.3,420.9h-4.4l-3.8-14.6c-0.6-2.2,0.8-4.5,3-5c0.3-0.1,0.7-0.1,1-0.1l0,0c2.3,0,4.1,1.9,4.1,4.1
		L357.3,420.9z"/>
	<ellipse class="st4" cx="420.5" cy="433.3" rx="9.1" ry="4.4"/>
	<path class="st4" d="M423.1,432.6h-4.4l-3.8-14.6c-0.6-2.2,0.8-4.5,3-5c0.3-0.1,0.7-0.1,1-0.1l0,0c2.3,0,4.1,1.9,4.1,4.1
		L423.1,432.6z"/>
	<polygon class="st2" points="350.7,125.7 501.2,113.3 497.6,168.1 347.1,175.4 	"/>
	<polygon class="st3" points="500.5,113.3 569.9,118.4 560.4,583.1 454.1,651.5 446.8,646.3 446.4,524.7 423.1,498.4 423.1,461.8 
		464,426 533.4,271.9 523.5,183.8 528.7,183.8 496.1,172.5 	"/>
	<polygon class="st2" points="507.1,114 577.2,118.4 567.7,583.1 453.8,651.1 453.8,524.7 430.4,498.4 430.4,461.8 471.3,426 
		540.7,271.9 528.3,183.4 503.4,172.5 	"/>
	
		<linearGradient id="SVGID_2_" gradientUnits="userSpaceOnUse" x1="399.8904" y1="378.9357" x2="399.8904" y2="404.4795" gradientTransform="matrix(1 0 0 -1 -44.49 790.84)">
		<stop  offset="0" style="stop-color:#808080;stop-opacity:0.25"/>
		<stop  offset="0.54" style="stop-color:#808080;stop-opacity:0.12"/>
		<stop  offset="1" style="stop-color:#808080;stop-opacity:0.1"/>
	</linearGradient>
	<path class="st11" d="M383.7,395.6c-10.2,21.2-35.4,15.7-35.4,15.7c-1.3-1.2-9.4-3.2-15.6-4.6c-4-0.9-7.1-1.5-7.1-1.5l8.6-12
		l6.5,1.3l9.7,2C350.3,396.4,394,374.4,383.7,395.6z"/>
	<g class="st12">
		
			<linearGradient id="SVGID_3_" gradientUnits="userSpaceOnUse" x1="399.8904" y1="378.9357" x2="399.8904" y2="404.4795" gradientTransform="matrix(1 0 0 -1 -44.49 790.84)">
			<stop  offset="0" style="stop-color:#808080;stop-opacity:0.25"/>
			<stop  offset="0.54" style="stop-color:#808080;stop-opacity:0.12"/>
			<stop  offset="1" style="stop-color:#808080;stop-opacity:0.1"/>
		</linearGradient>
		<path class="st13" d="M383.7,395.6c-10.2,21.2-35.4,15.7-35.4,15.7c-1.3-1.2-9.4-3.2-15.6-4.6c-4-0.9-7.1-1.5-7.1-1.5l8.6-12
			l6.5,1.3l9.7,2C350.3,396.4,394,374.4,383.7,395.6z"/>
	</g>
	<g class="st6">
		
			<linearGradient id="SVGID_4_" gradientUnits="userSpaceOnUse" x1="377.5995" y1="384.1874" x2="377.5995" y2="397.764" gradientTransform="matrix(1 0 0 -1 -44.49 790.84)">
			<stop  offset="0" style="stop-color:#808080;stop-opacity:0.25"/>
			<stop  offset="0.54" style="stop-color:#808080;stop-opacity:0.12"/>
			<stop  offset="1" style="stop-color:#808080;stop-opacity:0.1"/>
		</linearGradient>
		<path class="st14" d="M340.7,394.4l-8,12.3c-4-0.9-7.1-1.5-7.1-1.5l8.6-12L340.7,394.4z"/>
	</g>
	
		<linearGradient id="SVGID_5_" gradientUnits="userSpaceOnUse" x1="339.0757" y1="381.4908" x2="339.0757" y2="467.8396" gradientTransform="matrix(1 0 0 -1 -44.49 790.84)">
		<stop  offset="0" style="stop-color:#808080;stop-opacity:0.25"/>
		<stop  offset="0.54" style="stop-color:#808080;stop-opacity:0.12"/>
		<stop  offset="1" style="stop-color:#808080;stop-opacity:0.1"/>
	</linearGradient>
	<path class="st15" d="M250.8,350.6c0,0,37.7,58.9,78,58.7l11-16.8c0,0-36.9-26.4-41.8-40.1c-1.8-5.1-5.6-12.1-9.5-19
		c-12.3-21.1-45.3-7.3-38,15.8C250.5,349.7,250.7,350.2,250.8,350.6z"/>
	<g class="st16">
		
			<linearGradient id="SVGID_6_" gradientUnits="userSpaceOnUse" x1="339.0757" y1="381.4908" x2="339.0757" y2="467.8396" gradientTransform="matrix(1 0 0 -1 -44.49 790.84)">
			<stop  offset="0" style="stop-color:#808080;stop-opacity:0.25"/>
			<stop  offset="0.54" style="stop-color:#808080;stop-opacity:0.12"/>
			<stop  offset="1" style="stop-color:#808080;stop-opacity:0.1"/>
		</linearGradient>
		<path class="st17" d="M250.8,350.6c0,0,37.7,58.9,78,58.7l11-16.8c0,0-36.9-26.4-41.8-40.1c-1.8-5.1-5.6-12.1-9.5-19
			c-12.3-21.1-45.3-7.3-38,15.8C250.5,349.7,250.7,350.2,250.8,350.6z"/>
	</g>
	
		<linearGradient id="SVGID_7_" gradientUnits="userSpaceOnUse" x1="300.3538" y1="77.4928" x2="300.3538" y2="113.1407" gradientTransform="matrix(1 0 0 -1 -44.49 790.84)">
		<stop  offset="0" style="stop-color:#808080;stop-opacity:0.25"/>
		<stop  offset="0.54" style="stop-color:#808080;stop-opacity:0.12"/>
		<stop  offset="1" style="stop-color:#808080;stop-opacity:0.1"/>
	</linearGradient>
	<path class="st18" d="M226.3,692.9l1.8,20.5c0,0,57.9-9.6,57.4-28.8S226.3,692.9,226.3,692.9z"/>
	<g class="st6">
		
			<linearGradient id="SVGID_8_" gradientUnits="userSpaceOnUse" x1="300.3538" y1="77.4928" x2="300.3538" y2="113.1407" gradientTransform="matrix(1 0 0 -1 -44.49 790.84)">
			<stop  offset="0" style="stop-color:#808080;stop-opacity:0.25"/>
			<stop  offset="0.54" style="stop-color:#808080;stop-opacity:0.12"/>
			<stop  offset="1" style="stop-color:#808080;stop-opacity:0.1"/>
		</linearGradient>
		<path class="st19" d="M226.3,692.9l1.8,20.5c0,0,57.9-9.6,57.4-28.8S226.3,692.9,226.3,692.9z"/>
	</g>
	
		<linearGradient id="SVGID_9_" gradientUnits="userSpaceOnUse" x1="376.2202" y1="73.7954" x2="376.2202" y2="106.4537" gradientTransform="matrix(1 0 0 -1 -44.49 790.84)">
		<stop  offset="0" style="stop-color:#808080;stop-opacity:0.25"/>
		<stop  offset="0.54" style="stop-color:#808080;stop-opacity:0.12"/>
		<stop  offset="1" style="stop-color:#808080;stop-opacity:0.1"/>
	</linearGradient>
	<path class="st20" d="M294,699.3l-1,17.7c0,0,80.4-5.9,77.3-22.7c-3-16.7-45.5-7.4-45.5-7.4L294,699.3z"/>
	
		<linearGradient id="SVGID_10_" gradientUnits="userSpaceOnUse" x1="302.3726" y1="92.4156" x2="302.3726" y2="334.1409" gradientTransform="matrix(1 0 0 -1 -44.49 790.84)">
		<stop  offset="0" style="stop-color:#808080;stop-opacity:0.25"/>
		<stop  offset="0.54" style="stop-color:#808080;stop-opacity:0.12"/>
		<stop  offset="1" style="stop-color:#808080;stop-opacity:0.1"/>
	</linearGradient>
	<path class="st21" d="M295,525.8c0,0-4.7,13.2-10.8,28.2c-5.8,14.4-12.8,30.6-18,38.8c-10.6,16.8-12.1,68.5-12.1,68.5
		c-2,8.4,8.1,24.7,8.1,24.7c-20.2,21.2-38.9,8.9-38.9,8.9c3.5-6.4-2.5-24.7-2.5-24.7s8.1-84.3,13.2-88.3s9.1-23.7,9.1-23.7l-4.5-67
		l-1-15.3l43.5-19.2L284,472l3.1,15.1L295,525.8z"/>
	<g class="st6">
		
			<linearGradient id="SVGID_11_" gradientUnits="userSpaceOnUse" x1="302.3726" y1="92.4156" x2="302.3726" y2="334.1409" gradientTransform="matrix(1 0 0 -1 -44.49 790.84)">
			<stop  offset="0" style="stop-color:#808080;stop-opacity:0.25"/>
			<stop  offset="0.54" style="stop-color:#808080;stop-opacity:0.12"/>
			<stop  offset="1" style="stop-color:#808080;stop-opacity:0.1"/>
		</linearGradient>
		<path class="st22" d="M295,525.8c0,0-4.7,13.2-10.8,28.2c-5.8,14.4-12.8,30.6-18,38.8c-10.6,16.8-12.1,68.5-12.1,68.5
			c-2,8.4,8.1,24.7,8.1,24.7c-20.2,21.2-38.9,8.9-38.9,8.9c3.5-6.4-2.5-24.7-2.5-24.7s8.1-84.3,13.2-88.3s9.1-23.7,9.1-23.7l-4.5-67
			l-1-15.3l43.5-19.2L284,472l3.1,15.1L295,525.8z"/>
	</g>
	
		<linearGradient id="SVGID_12_" gradientUnits="userSpaceOnUse" x1="339.7778" y1="88.0091" x2="339.7778" y2="318.8617" gradientTransform="matrix(1 0 0 -1 -44.49 790.84)">
		<stop  offset="0" style="stop-color:#808080;stop-opacity:0.25"/>
		<stop  offset="0.54" style="stop-color:#808080;stop-opacity:0.12"/>
		<stop  offset="1" style="stop-color:#808080;stop-opacity:0.1"/>
	</linearGradient>
	<path class="st23" d="M332.9,688.9c-9.1,15.8-40.9,13.8-40.9,13.8v-46.3c0,0-9.1-51.8-4-63.6s-2-33.5-2-33.5l-1.7-5.3l-20.6-63.6
		l-6-18.4h68.2c0,0,0,3.2,0,8.3c0.1,19.7,0.5,68.6,2.5,80c2.5,14.3-4.6,23.7-4.6,23.7s4,58.2,0.5,76.4
		C320.8,678.6,332.9,688.9,332.9,688.9z"/>
	
		<linearGradient id="SVGID_13_" gradientUnits="userSpaceOnUse" x1="319.4368" y1="483.0162" x2="319.4368" y2="535.2768" gradientTransform="matrix(1 0 0 -1 -44.49 790.84)">
		<stop  offset="0" style="stop-color:#808080;stop-opacity:0.25"/>
		<stop  offset="0.54" style="stop-color:#808080;stop-opacity:0.12"/>
		<stop  offset="1" style="stop-color:#808080;stop-opacity:0.1"/>
	</linearGradient>
	<path class="st24" d="M276.8,255.6c0,0-10.6,28.6-31.8,38.9c-21.2,10.4,34.9,13.3,34.9,13.3s9.1-21.7,29.8-37L276.8,255.6z"/>
	<g class="st6">
		
			<linearGradient id="SVGID_14_" gradientUnits="userSpaceOnUse" x1="326.1427" y1="299.0464" x2="326.1427" y2="334.1482" gradientTransform="matrix(1 0 0 -1 -44.49 790.84)">
			<stop  offset="0" style="stop-color:#808080;stop-opacity:0.25"/>
			<stop  offset="0.54" style="stop-color:#808080;stop-opacity:0.12"/>
			<stop  offset="1" style="stop-color:#808080;stop-opacity:0.1"/>
		</linearGradient>
		<path class="st25" d="M325.9,480.3c-8.5,1.6-23.4,4.4-38.8,6.8c-8,1.3-16.2,2.4-23.5,3.3c-11.3,1.3-20.8,1.9-25.2,0.8l-1-15.3
			l43.5-19.2L284,472h41.9C325.9,472,325.9,475.2,325.9,480.3z"/>
	</g>
	
		<linearGradient id="SVGID_15_" gradientUnits="userSpaceOnUse" x1="321.234" y1="300.519" x2="321.234" y2="502.7315" gradientTransform="matrix(1 0 0 -1 -44.49 790.84)">
		<stop  offset="0" style="stop-color:#808080;stop-opacity:0.25"/>
		<stop  offset="0.54" style="stop-color:#808080;stop-opacity:0.12"/>
		<stop  offset="1" style="stop-color:#808080;stop-opacity:0.1"/>
	</linearGradient>
	<path class="st26" d="M332.9,477.4c0,0-85.4,17.3-96,11.8s-13.2-19.2-10.1-34.5c3-15.3,0-53.2-5.6-101.6
		c-2.8-24.3,3.4-40.7,10.2-50.9c6.1-8.9,16.2-14.3,27-14.2c9.2,0,18.2,3.1,25.5,8.8c2.1,1.7,4.3,3.1,6.1,3.6
		c1.4,0.4,3.5,1.8,5.8,3.9c10.5,9.1,17.2,21.9,18.5,35.7c0.9,9.2,1.8,20.8,2.3,32.4c0.5,10,0.4,20-0.3,30c-0.5,7.3-0.1,14.6,1,21.9
		C321.2,450.9,332.9,477.4,332.9,477.4z"/>
	<g class="st6">
		
			<linearGradient id="SVGID_16_" gradientUnits="userSpaceOnUse" x1="338.2419" y1="366.4969" x2="338.2419" y2="460.2834" gradientTransform="matrix(1 0 0 -1 -44.49 790.84)">
			<stop  offset="0" style="stop-color:#808080;stop-opacity:0.25"/>
			<stop  offset="0.54" style="stop-color:#808080;stop-opacity:0.12"/>
			<stop  offset="1" style="stop-color:#808080;stop-opacity:0.1"/>
		</linearGradient>
		<path class="st27" d="M317.3,424.3c-31-18.9-47-71.7-47-71.7c0-0.5,0-0.9-0.1-1.4c-0.7-24.2,34.9-28.9,41-5.4
			c2,7.7,3.7,15.4,4,20.8c0.2,2,0.6,3.9,1.4,5.8c0.5,10,0.4,20-0.3,30C315.8,409.8,316.1,417.1,317.3,424.3z"/>
	</g>
	<g class="st6">
		
			<linearGradient id="SVGID_17_" gradientUnits="userSpaceOnUse" x1="334.3413" y1="500.1076" x2="334.3413" y2="532.3174" gradientTransform="matrix(1 0 0 -1 -44.49 790.84)">
			<stop  offset="0" style="stop-color:#808080;stop-opacity:0.25"/>
			<stop  offset="0.54" style="stop-color:#808080;stop-opacity:0.12"/>
			<stop  offset="1" style="stop-color:#808080;stop-opacity:0.1"/>
		</linearGradient>
		<path class="st28" d="M271.5,272.6c5,8.3,9,16.7,19.3,18.2c5-6.4,10.9-12.1,17.4-16.9l-32.9-15.3
			C275.3,258.5,277.2,263.7,271.5,272.6z"/>
	</g>
	
		<linearGradient id="SVGID_18_" gradientUnits="userSpaceOnUse" x1="297.0598" y1="534.5755" x2="297.0598" y2="599.6527" gradientTransform="matrix(1 0 0 -1 0 822.67)">
		<stop  offset="0" style="stop-color:#808080;stop-opacity:0.25"/>
		<stop  offset="0.54" style="stop-color:#808080;stop-opacity:0.12"/>
		<stop  offset="1" style="stop-color:#808080;stop-opacity:0.1"/>
	</linearGradient>
	<ellipse class="st29" cx="297.1" cy="255.6" rx="33.4" ry="32.5"/>
	<g class="st6">
		
			<linearGradient id="SVGID_19_" gradientUnits="userSpaceOnUse" x1="340.6802" y1="510.6113" x2="340.6802" y2="583.7039" gradientTransform="matrix(1 0 0 -1 -44.49 790.84)">
			<stop  offset="0" style="stop-color:#808080;stop-opacity:0.25"/>
			<stop  offset="0.54" style="stop-color:#808080;stop-opacity:0.12"/>
			<stop  offset="1" style="stop-color:#808080;stop-opacity:0.1"/>
		</linearGradient>
		<path class="st30" d="M330,265.8c1.4,0.1,2.7-0.3,3.9-1c1.6-1.2,2.1-3.2,2.5-5.2c0.9-4.5,1.5-9.3,0-13.6c-1-2.9-2.9-5.4-4.3-8.1
			c-3-6-3.5-13.2-7.8-18.3c-2.7-3.2-12,0-16-1.6c-8.4-3.5-12.1-10.7-21.2-10.7c-3.4-0.1-6.7,0.3-10,1.2c-4.1,1.3-7.7,3.7-11.1,6.3
			c-5.8,4.5-11.6,10.8-11.1,18.1c0.3,4.7,3.2,8.8,4.9,13.1c2.8,7.3,2.3,15.5,0.3,23.1c-0.9,3.2-1.8,7.1,0.4,9.5
			c1.5,1.5,3.8,2,5.8,1.6c2.1-0.5,4-1.2,5.8-2.3c3.3-1.7,6.6-3.5,9.3-6.1c1.8-1.7,3.2-3.7,4.9-5.5c3.3-3.4,7-6.3,11-8.8
			c3.2-1.9,6.6-0.7,10,0.5C314.9,260.7,321.8,265.9,330,265.8z"/>
	</g>
	
		<linearGradient id="SVGID_20_" gradientUnits="userSpaceOnUse" x1="340.176" y1="511.1082" x2="340.176" y2="584.2007" gradientTransform="matrix(1 0 0 -1 -44.49 790.84)">
		<stop  offset="0" style="stop-color:#808080;stop-opacity:0.25"/>
		<stop  offset="0.54" style="stop-color:#808080;stop-opacity:0.12"/>
		<stop  offset="1" style="stop-color:#808080;stop-opacity:0.1"/>
	</linearGradient>
	<path class="st31" d="M329.5,265.3c1.4,0.1,2.7-0.3,3.9-1c1.6-1.2,2.1-3.2,2.5-5.2c0.9-4.5,1.5-9.3,0-13.6c-1-2.9-2.9-5.4-4.3-8.1
		c-3-6-3.5-13.2-7.8-18.3c-2.7-3.2-11.5,0.5-15.5-1.1c-8.4-3.5-12.6-11.2-21.7-11.2c-3.4-0.1-6.7,0.3-10,1.2
		c-4.1,1.3-7.7,3.7-11.1,6.3c-5.8,4.5-11.6,10.8-11.1,18.1c0.3,4.7,3.2,8.8,4.9,13.1c2.8,7.3,2.3,15.5,0.3,23.1
		c-0.9,3.2-1.8,7.1,0.4,9.5c1.5,1.5,3.8,2,5.8,1.6c2.1-0.5,4-1.2,5.8-2.3c3.3-1.7,6.6-3.5,9.3-6.1c1.8-1.7,3.2-3.7,4.9-5.5
		c3.3-3.4,7-6.3,11-8.8c3.2-1.9,6.6-0.7,10,0.5C314.4,260.2,321.3,265.4,329.5,265.3z"/>
	<g class="st16">
		
			<linearGradient id="SVGID_21_" gradientUnits="userSpaceOnUse" x1="331.718" y1="300.5252" x2="331.718" y2="495.5648" gradientTransform="matrix(1 0 0 -1 -44.49 790.84)">
			<stop  offset="0" style="stop-color:#808080;stop-opacity:0.25"/>
			<stop  offset="0.54" style="stop-color:#808080;stop-opacity:0.12"/>
			<stop  offset="1" style="stop-color:#808080;stop-opacity:0.1"/>
		</linearGradient>
		<path class="st32" d="M317.3,424.3c-1.2-7.2-1.5-14.6-1-21.9c0.7-10,0.8-20,0.3-30c-0.5-11.7-1.4-23.3-2.3-32.4
			c-1.3-13.9-7.9-26.7-18.5-35.8c-2.3-2-4.4-3.5-5.8-3.9c-1.8-0.5-3.9-1.9-6.1-3.6c-7.2-5.7,1.9,5.4,4.3,7.4
			c10.6,9.1,17.2,21.9,18.5,35.8c0.9,9.2,1.8,20.8,2.3,32.4c0.5,10,0.4,20-0.3,30c-0.5,7.3-0.1,14.6,1,21.9
			c3.9,26.6,15.6,53.1,15.6,53.1s-57.2,11.6-83.8,12.8c20.9,1.5,91.4-12.8,91.4-12.8S321.2,450.9,317.3,424.3z"/>
	</g>
	
		<linearGradient id="SVGID_22_" gradientUnits="userSpaceOnUse" x1="403.7804" y1="351.9443" x2="403.7804" y2="377.0118" gradientTransform="matrix(1 0 0 -1 -44.49 790.84)">
		<stop  offset="0" style="stop-color:#808080;stop-opacity:0.25"/>
		<stop  offset="0.54" style="stop-color:#808080;stop-opacity:0.12"/>
		<stop  offset="1" style="stop-color:#808080;stop-opacity:0.1"/>
	</linearGradient>
	<path class="st33" d="M387,429.1c-15.7,17.7-38.4,5.9-38.4,5.9c-0.9-1.5-8.2-5.6-13.8-8.5c-3.6-1.9-6.4-3.3-6.4-3.3l11.6-9.4l5.9,3
		l8.8,4.4C354.7,421.2,402.7,411.4,387,429.1z"/>
	<g class="st6">
		
			<linearGradient id="SVGID_23_" gradientUnits="userSpaceOnUse" x1="381.644" y1="364.3193" x2="381.644" y2="377.0118" gradientTransform="matrix(1 0 0 -1 -44.49 790.84)">
			<stop  offset="0" style="stop-color:#808080;stop-opacity:0.25"/>
			<stop  offset="0.54" style="stop-color:#808080;stop-opacity:0.12"/>
			<stop  offset="1" style="stop-color:#808080;stop-opacity:0.1"/>
		</linearGradient>
		<path class="st34" d="M345.9,416.8l-11.1,9.7c-3.6-1.9-6.4-3.3-6.4-3.3l11.6-9.4L345.9,416.8z"/>
	</g>
	
		<linearGradient id="SVGID_24_" gradientUnits="userSpaceOnUse" x1="352.8927" y1="362.7117" x2="352.8927" y2="461.7564" gradientTransform="matrix(1 0 0 -1 -44.49 790.84)">
		<stop  offset="0" style="stop-color:#808080;stop-opacity:0.25"/>
		<stop  offset="0.54" style="stop-color:#808080;stop-opacity:0.12"/>
		<stop  offset="1" style="stop-color:#808080;stop-opacity:0.1"/>
	</linearGradient>
	<path class="st35" d="M271.3,351.2c0,0,20.2,66.6,59.1,76.9l15.2-13.3c0,0-28.4-35-29.4-49.6c-0.4-5.4-2-13.2-4-20.8
		c-6.1-23.5-41.7-18.8-41,5.4C271.2,350.3,271.3,350.8,271.3,351.2z"/>
	
		<linearGradient id="SVGID_25_" gradientUnits="userSpaceOnUse" x1="305.4087" y1="369.8581" x2="305.4087" y2="380.2189" gradientTransform="matrix(1 0 0 -1 -44.49 790.84)">
		<stop  offset="0" style="stop-color:#808080;stop-opacity:0.25"/>
		<stop  offset="0.54" style="stop-color:#808080;stop-opacity:0.12"/>
		<stop  offset="1" style="stop-color:#808080;stop-opacity:0.1"/>
	</linearGradient>
	<path class="st36" d="M232.1,416c0,0,13.2-10.4,25.3-2.5c12.1,7.9,29.8,6.9,32.3,7.4"/>
	<path class="st37" d="M379.9,394.5c-9.8,20.7-33.7,15.3-33.7,15.3c-1.2-1.2-9-3.1-14.9-4.5c-3.8-0.9-6.8-1.5-6.8-1.5l8.2-11.8
		l6.2,1.3l9.2,1.9C348.2,395.3,389.7,373.8,379.9,394.5z"/>
	<path class="st38" d="M379.9,394.5c-9.8,20.7-33.7,15.3-33.7,15.3c-1.2-1.2-9-3.1-14.9-4.5c-3.8-0.9-6.8-1.5-6.8-1.5l8.2-11.8
		l6.2,1.3l9.2,1.9C348.2,395.3,389.7,373.8,379.9,394.5z"/>
	<path class="st39" d="M339,393.3l-7.6,12c-3.8-0.9-6.8-1.5-6.8-1.5l8.2-11.8L339,393.3z"/>
	<path class="st8" d="M253.5,350.6c0,0,35.9,57.5,74.3,57.3l10.4-16.4c0,0-35.1-25.7-39.8-39.2c-1.7-5-5.3-11.8-9.1-18.5
		c-11.7-20.5-43.1-7.1-36.2,15.5C253.2,349.8,253.3,350.2,253.5,350.6z"/>
	<path class="st40" d="M253.5,350.6c0,0,35.9,57.5,74.3,57.3l10.4-16.4c0,0-35.1-25.7-39.8-39.2c-1.7-5-5.3-11.8-9.1-18.5
		c-11.7-20.5-43.1-7.1-36.2,15.5C253.2,349.8,253.3,350.2,253.5,350.6z"/>
	<path class="st2" d="M230.1,684.6l1.7,20c0,0,55.1-9.4,54.6-28.1C285.9,657.6,230.1,684.6,230.1,684.6z"/>
	<path class="st39" d="M230.1,684.6l1.7,20c0,0,55.1-9.4,54.6-28.1C285.9,657.6,230.1,684.6,230.1,684.6z"/>
	<path class="st2" d="M294.6,690.8l-1,17.3c0,0,76.5-5.8,73.6-22.1s-43.3-7.2-43.3-7.2L294.6,690.8z"/>
	<path class="st41" d="M295.5,521.5c0,0-4.5,12.8-10.3,27.5c-5.5,14.1-12.2,29.9-17.1,37.9c-10.1,16.4-11.5,66.9-11.5,66.9
		c-1.9,8.2,7.7,24.1,7.7,24.1c-19.2,20.7-37,8.7-37,8.7c3.4-6.3-2.4-24.1-2.4-24.1s7.7-82.3,12.5-86.1c4.8-3.8,8.7-23.1,8.7-23.1
		l-4.3-65.4l-1-14.9l41.4-18.8l3,14.9l2.9,14.8L295.5,521.5z"/>
	<path class="st39" d="M295.5,521.5c0,0-4.5,12.8-10.3,27.5c-5.5,14.1-12.2,29.9-17.1,37.9c-10.1,16.4-11.5,66.9-11.5,66.9
		c-1.9,8.2,7.7,24.1,7.7,24.1c-19.2,20.7-37,8.7-37,8.7c3.4-6.3-2.4-24.1-2.4-24.1s7.7-82.3,12.5-86.1c4.8-3.8,8.7-23.1,8.7-23.1
		l-4.3-65.4l-1-14.9l41.4-18.8l3,14.9l2.9,14.8L295.5,521.5z"/>
	<path class="st41" d="M331.6,680.7c-8.7,15.4-39,13.5-39,13.5V649c0,0-8.7-50.5-3.9-62.1c4.8-11.5-1.9-32.7-1.9-32.7l-1.6-5.2
		l-19.6-62l-5.7-18h64.9c0,0,0,3.1,0,8.1c0.1,19.2,0.5,67,2.4,78c2.4,13.9-4.3,23.1-4.3,23.1s3.9,56.8,0.5,74.5
		C320,670.6,331.6,680.7,331.6,680.7z"/>
	<path class="st37" d="M278.2,257.9c0,0-10.1,27.9-30.3,38s33.2,13,33.2,13s8.7-21.2,28.4-36.1L278.2,257.9z"/>
	<path class="st39" d="M324.9,477.2c-8.1,1.6-22.3,4.3-36.9,6.7c-7.6,1.2-15.4,2.4-22.4,3.2c-10.8,1.3-19.8,1.8-23.9,0.8l-1-14.9
		l41.4-18.8l3,14.9h39.8C324.9,469.1,324.9,472.1,324.9,477.2z"/>
	<path class="st8" d="M331.6,474.3c0,0-81.3,16.8-91.4,11.5c-10.1-5.3-12.5-18.8-9.6-33.7c2.9-14.9,0-52-5.3-99.1
		c-2.7-23.7,3.2-39.7,9.7-49.6c5.7-8.7,15.4-13.9,25.7-13.9c8.8,0,17.4,3,24.2,8.5c2,1.7,4.1,3,5.8,3.5c1.3,0.4,3.3,1.8,5.5,3.8
		c10.1,9,16.4,21.4,17.6,34.9c0.8,9,1.7,20.2,2.1,31.7c0.4,9.7,0.3,19.5-0.3,29.2c-0.4,7.1-0.1,14.3,1,21.3
		C320.5,448.5,331.6,474.3,331.6,474.3z"/>
	<path class="st39" d="M316.7,422.6c-29.5-18.4-44.8-69.9-44.8-69.9c0-0.4,0-0.9-0.1-1.3c-0.7-23.6,33.3-28.2,39-5.2
		c1.9,7.5,3.5,15,3.8,20.3c0.2,1.9,0.6,3.8,1.3,5.6c0.4,9.7,0.3,19.5-0.3,29.2C315.3,408.3,315.6,415.5,316.7,422.6z"/>
	<path class="st39" d="M273.2,274.5c4.8,8.1,8.6,16.3,18.3,17.7c4.8-6.2,10.3-11.8,16.5-16.5l-31.3-14.9
		C276.8,260.8,278.6,265.9,273.2,274.5z"/>
	<circle class="st37" cx="297.5" cy="257.9" r="31.7"/>
	<path class="st39" d="M328.8,267.8c1.3,0.1,2.6-0.3,3.7-1c1.5-1.1,2-3.2,2.4-5c0.8-4.4,1.5-9.1,0-13.3c-0.9-2.8-2.8-5.2-4.1-7.9
		c-2.9-5.8-3.4-12.8-7.4-17.9c-2.5-3.2-11.5,0-15.2-1.6c-8-3.4-11.5-10.4-20.2-10.4c-3.2-0.1-6.4,0.3-9.5,1.2
		c-3.9,1.2-7.4,3.6-10.6,6.1c-5.6,4.4-11,10.5-10.5,17.6c0.3,4.5,3,8.5,4.6,12.8c2.7,7.1,2.2,15.1,0.3,22.5
		c-0.8,3.1-1.8,6.9,0.4,9.3c1.4,1.5,3.6,1.9,5.6,1.6c2-0.4,3.9-1.2,5.6-2.3c3.1-1.7,6.3-3.4,8.8-5.9c1.7-1.7,3-3.6,4.6-5.3
		c3.1-3.3,6.6-6.2,10.5-8.6c3.1-1.9,6.2-0.7,9.5,0.5C314.5,262.9,321,268,328.8,267.8z"/>
	<path class="st42" d="M328.4,267.3c1.3,0.1,2.6-0.3,3.7-1c1.5-1.1,2-3.2,2.4-5c0.8-4.4,1.5-9.1,0-13.3c-0.9-2.8-2.8-5.2-4.1-7.9
		c-2.9-5.8-3.4-12.8-7.4-17.9c-2.5-3.2-11,0.5-14.7-1.1c-8-3.4-12-11-20.7-11c-3.2-0.1-6.4,0.3-9.5,1.2c-3.9,1.2-7.4,3.6-10.6,6.1
		c-5.6,4.4-11,10.5-10.5,17.6c0.3,4.5,3,8.5,4.6,12.8c2.7,7.1,2.2,15.1,0.3,22.5c-0.8,3.1-1.8,6.9,0.4,9.3c1.4,1.5,3.6,1.9,5.6,1.6
		c2-0.4,3.9-1.2,5.6-2.3c3.1-1.7,6.3-3.4,8.8-5.9c1.7-1.7,3-3.6,4.6-5.3c3.1-3.3,6.7-6.2,10.6-8.5c3.1-1.9,6.2-0.7,9.5,0.5
		C314,262.4,320.5,267.5,328.4,267.3z"/>
	<path class="st40" d="M316.7,422.6c-1.1-7-1.4-14.2-1-21.3c0.6-9.7,0.7-19.5,0.3-29.2c-0.4-11.4-1.3-22.7-2.1-31.7
		c-1.2-13.5-7.5-25.9-17.6-34.9c-2.2-2-4.2-3.4-5.5-3.8c-1.7-0.5-3.7-1.8-5.8-3.5c-6.8-5.6,1.8,5.3,4.1,7.2
		c10.1,9,16.4,21.4,17.6,34.9c0.8,9,1.7,20.2,2.1,31.7c0.4,9.7,0.3,19.5-0.3,29.2c-0.4,7.1-0.1,14.3,1,21.3
		c3.7,26,14.9,51.8,14.9,51.8s-54.4,11.3-79.7,12.5c19.8,1.5,87-12.5,87-12.5S320.5,448.5,316.7,422.6z"/>
	<path class="st37" d="M383.1,427.2c-14.9,17.3-36.5,5.8-36.5,5.8c-0.9-1.5-7.8-5.4-13.2-8.3c-3.4-1.8-6.1-3.2-6.1-3.2l11.1-9.1
		l5.6,2.9l8.4,4.3C352.3,419.5,398,409.9,383.1,427.2z"/>
	<path class="st39" d="M343.9,415.2l-10.5,9.5c-3.4-1.8-6.1-3.2-6.1-3.2l11.1-9.1L343.9,415.2z"/>
	<path class="st8" d="M272.9,351.2c0,0,19.2,64.9,56.3,75l14.4-13c0,0-27-34.2-27.9-48.4c-0.3-5.2-1.9-12.8-3.8-20.3
		c-5.8-22.9-39.7-18.4-39,5.2C272.9,350.3,272.9,350.8,272.9,351.2z"/>
	<path class="st40" d="M235.6,414.5c0,0,12.5-10.1,24.1-2.4c11.5,7.7,28.4,6.7,30.8,7.2"/>
</g>
</svg>
