<?xml version="1.0" encoding="utf-8"?>
<!-- Generator: Adobe Illustrator 23.1.1, SVG Export Plug-In . SVG Version: 6.00 Build 0)  -->
<svg version="1.1" id="af276b94-b3c8-433b-9b31-66faa65c3372"
	 xmlns="http://www.w3.org/2000/svg" xmlns:xlink="http://www.w3.org/1999/xlink" x="0px" y="0px" viewBox="0 0 823 823"
	 style="enable-background:new 0 0 823 823;" xml:space="preserve">
<style type="text/css">
	.st0{fill:#F2F2F2;}
	.st1{opacity:3.000000e-02;enable-background:new    ;}
	.st2{fill:#3F3D56;}
	.st3{fill:#8338EC;}
	.st4{fill:none;stroke:#F2F2F2;stroke-width:2;stroke-miterlimit:10;}
	.st5{fill:#FFFFFF;}
	.st6{opacity:0.3;fill:#8338EC;enable-background:new    ;}
	.st7{fill:#3ACC6C;}
	.st8{fill:none;stroke:#3F3D56;stroke-width:4;stroke-miterlimit:10;}
	.st9{fill:#57B894;}
	.st10{opacity:0.1;enable-background:new    ;}
	.st11{fill:#656380;}
	.st12{opacity:0.2;enable-background:new    ;}
	.st13{fill:#FFC1C7;}
	.st14{fill:#FF6584;}
	.st15{fill:#3C354C;}
	.st16{opacity:0.1;fill:none;stroke:#000000;stroke-miterlimit:10;enable-background:new    ;}
</style>
<title>checking boxes</title>
<g>
	<path class="st0" d="M321,276.8l-35.5,43.9l28.3-49c-4.3-2.7-8.9-4.8-13.7-6.5c3.8-38.7-24.5-73.3-63.2-77.1s-73.3,24.5-77.1,63.2
		c-0.3,3.3-0.4,6.7-0.3,10l64.1,4.2l-62.9,5.7c3.6,19.1,14.9,35.9,31.2,46.4l35.1-22.8L197.8,321c2.9,1.5,5.9,2.8,9,3.9
		c-3.2,32.4,16.2,62.7,46.9,73.4c-3.8,38.7,24.5,73.2,63.2,77.1c11.1,1.1,22.3-0.5,32.7-4.5c0.6,2.8,1.7,5.4,3.3,7.8
		c2.2,3.5,5.3,6.4,8.9,8.3c0.5,8.4,5.3,15.9,12.7,19.9c0.5,8.4,5.3,15.9,12.7,19.8c0.5,8.4,5.3,15.9,12.7,19.9
		c0.2,4.1,1.5,8.1,3.7,11.6c5.7,9,15.9,12.7,22.8,8.3c6.9-4.3,7.8-15.2,2-24.2c-2.2-3.5-5.3-6.4-8.9-8.3
		c-0.5-8.4-5.3-15.9-12.7-19.9c-0.5-8.4-5.3-15.9-12.7-19.8c-0.5-8.4-5.3-15.9-12.7-19.8c-0.2-4.1-1.5-8.1-3.7-11.6
		c-1.5-2.4-3.4-4.4-5.6-6.2c28.4-26.6,29.8-71.2,3.2-99.6c-7.8-8.3-17.4-14.6-28.1-18.3C349.3,315,339.5,291.7,321,276.8L321,276.8z
		"/>
	<path class="st0" d="M466.5,241.5l-6.3,4l3.8-7c-1.1-0.9-2.4-1.4-3.8-1.4h-0.1c-0.4,0-0.9,0-1.3-0.1l-2.1,1.4l0.9-1.7
		c-1.5-0.5-2.8-1.5-3.8-2.8l-3.8,2.4l2.4-4.4c-2.1-2.7-5.2-4.3-8.6-4.4c-4,0-7.6,2.4-9.8,6.1c-1.4,2.2-3.9,3.6-6.5,3.5h-0.2
		c-4.4,0-8,5-8,11.1c0,6.1,3.6,11.2,8,11.2c1,0,1.9-0.2,2.8-0.7c3-1.5,6.6-1.5,9.7-0.2c2.6,1.2,5.6,1.2,8.2,0
		c3.1-1.3,6.6-1.3,9.6,0.2c0.9,0.5,1.8,0.7,2.8,0.7c4.4,0,8-5,8-11.2C468.2,245.9,467.6,243.6,466.5,241.5z"/>
	<path class="st1" d="M454.6,257.9c-2.3-0.4-4.7-0.2-6.8,0.7c-2.6,1.2-5.6,1.2-8.2,0c-3.1-1.4-6.6-1.3-9.7,0.2
		c-0.9,0.5-1.8,0.7-2.8,0.7c-3.9,0-7.2-3.9-7.9-9.1c0.8-0.6,1.4-1.3,2-2.1c2.3-3.7,5.9-6.1,9.8-6.1c4,0,7.5,2.3,9.8,6
		c1.4,2.3,3.9,3.6,6.5,3.6h0.1C450.6,251.7,453.2,254.2,454.6,257.9z"/>
	<path class="st0" d="M700.9,214.4l-6.3,4l3.8-7c-1.1-0.9-2.4-1.4-3.8-1.4h-0.1c-0.4,0-0.9,0-1.3-0.1l-2.1,1.4l0.9-1.7
		c-1.5-0.5-2.8-1.5-3.8-2.8l-3.8,2.4l2.4-4.4c-2.1-2.7-5.2-4.3-8.6-4.4c-4,0-7.6,2.4-9.8,6.1c-1.4,2.2-3.9,3.6-6.5,3.5h-0.2
		c-4.4,0-8,5-8,11.1s3.6,11.2,8,11.2c1,0,1.9-0.2,2.8-0.7c3-1.5,6.6-1.5,9.7-0.2c2.6,1.2,5.6,1.2,8.2,0c3.1-1.3,6.6-1.3,9.6,0.2
		c0.9,0.5,1.8,0.7,2.8,0.7c4.4,0,8-5,8-11.2C702.6,218.8,702,216.5,700.9,214.4z"/>
	<path class="st1" d="M689,230.7c-2.3-0.4-4.7-0.2-6.8,0.7c-2.6,1.2-5.6,1.2-8.2,0c-3.1-1.4-6.6-1.3-9.7,0.2
		c-0.9,0.5-1.8,0.7-2.8,0.7c-3.9,0-7.2-3.9-7.9-9.1c0.8-0.6,1.4-1.3,2-2.1c2.3-3.7,5.9-6.1,9.8-6.1s7.5,2.3,9.8,6
		c1.4,2.3,3.9,3.6,6.5,3.6h0.1C684.9,224.6,687.6,227.1,689,230.7z"/>
	<path class="st0" d="M544.6,280.1l10.2,6.5l-6.2-11.2c1.8-1.4,3.9-2.2,6.2-2.2h0.2c0.7,0,1.4,0,2.1-0.2l3.4,2.2l-1.5-2.7
		c2.4-0.9,4.5-2.5,6-4.6l6.2,3.9l-3.9-7.1c3.6-4.3,8.5-7,13.8-7c6.4,0,12.1,3.8,15.8,9.7c2.2,3.6,6.2,5.8,10.4,5.6h0.3
		c7.1,0,12.8,8,12.8,17.9s-5.7,17.9-12.8,17.9c-1.6,0-3.1-0.4-4.5-1.1c-4.9-2.4-10.6-2.5-15.5-0.3c-4.2,1.9-9,1.9-13.2,0
		c-4.9-2.1-10.5-2-15.4,0.3c-1.4,0.7-2.9,1.1-4.4,1.1c-7.1,0-12.8-8-12.8-17.9C541.9,287.2,542.8,283.4,544.6,280.1z"/>
	<path class="st1" d="M563.7,306.3c3.7-0.7,7.5-0.3,11,1.2c4.2,1.9,9,1.9,13.2,0c5-2.2,10.6-2.1,15.5,0.3c1.4,0.7,2.9,1.1,4.5,1.1
		c6.3,0,11.5-6.3,12.6-14.7c-1.3-0.9-2.3-2.1-3.1-3.4c-3.7-5.9-9.4-9.7-15.8-9.7s-12.1,3.8-15.7,9.7c-2.2,3.6-6.2,5.8-10.4,5.7h-0.2
		C570.2,296.5,565.9,300.5,563.7,306.3z"/>
	<ellipse class="st2" cx="411.5" cy="620.6" rx="409.3" ry="14.6"/>
	<path class="st0" d="M135.7,296.3h551.7c7.8,0,14.2,6.4,14.2,14.2v288.8c0,7.8-6.4,14.2-14.2,14.2H135.7c-7.8,0-14.2-6.4-14.2-14.2
		V310.5C121.5,302.7,127.8,296.3,135.7,296.3z"/>
	<path class="st2" d="M701.5,310.5v8.1H121.5v-8.1c0-7.8,6.4-14.2,14.2-14.2c0,0,0,0,0,0h551.7C695.2,296.3,701.5,302.7,701.5,310.5
		z"/>
	<circle class="st3" cx="136.4" cy="307.8" r="4.2"/>
	<circle class="st3" cx="146.9" cy="307.8" r="4.2"/>
	<circle class="st3" cx="157.3" cy="307.8" r="4.2"/>
	<path class="st4" d="M235.9,449"/>
	<path class="st4" d="M226.1,448.3"/>
	<path class="st5" d="M216.3,355.4h53.8c3.6,0,6.5,2.9,6.5,6.5v41.3c0,3.6-2.9,6.5-6.5,6.5h-53.8c-3.6,0-6.5-2.9-6.5-6.5v-41.3
		C209.8,358.3,212.7,355.4,216.3,355.4z"/>
	<path class="st3" d="M294.2,355.4H348c3.6,0,6.5,2.9,6.5,6.5v41.3c0,3.6-2.9,6.5-6.5,6.5h-53.8c-3.6,0-6.5-2.9-6.5-6.5v-41.3
		C287.7,358.3,290.6,355.4,294.2,355.4z"/>
	<path class="st5" d="M372.1,355.4h53.8c3.6,0,6.5,2.9,6.5,6.5v41.3c0,3.6-2.9,6.5-6.5,6.5h-53.8c-3.6,0-6.5-2.9-6.5-6.5v-41.3
		C365.6,358.3,368.5,355.4,372.1,355.4z"/>
	<path class="st5" d="M450,355.4h53.8c3.6,0,6.5,2.9,6.5,6.5v41.3c0,3.6-2.9,6.5-6.5,6.5H450c-3.6,0-6.5-2.9-6.5-6.5v-41.3
		C443.5,358.3,446.4,355.4,450,355.4z"/>
	<path class="st3" d="M527.9,355.4h53.8c3.6,0,6.5,2.9,6.5,6.5v41.3c0,3.6-2.9,6.5-6.5,6.5h-53.8c-3.6,0-6.5-2.9-6.5-6.5v-41.3
		C521.4,358.3,524.3,355.4,527.9,355.4z"/>
	<path class="st5" d="M216.3,446.5h53.8c3.6,0,6.5,2.9,6.5,6.5v41.3c0,3.6-2.9,6.5-6.5,6.5h-53.8c-3.6,0-6.5-2.9-6.5-6.5V453
		C209.8,449.4,212.7,446.5,216.3,446.5z"/>
	<path class="st5" d="M294.2,446.5H348c3.6,0,6.5,2.9,6.5,6.5v41.3c0,3.6-2.9,6.5-6.5,6.5h-53.8c-3.6,0-6.5-2.9-6.5-6.5V453
		C287.7,449.4,290.6,446.5,294.2,446.5z"/>
	<path class="st3" d="M372.1,446.5h53.8c3.6,0,6.5,2.9,6.5,6.5v41.3c0,3.6-2.9,6.5-6.5,6.5h-53.8c-3.6,0-6.5-2.9-6.5-6.5V453
		C365.6,449.4,368.5,446.5,372.1,446.5z"/>
	<path class="st5" d="M450,446.5h53.8c3.6,0,6.5,2.9,6.5,6.5v41.3c0,3.6-2.9,6.5-6.5,6.5H450c-3.6,0-6.5-2.9-6.5-6.5V453
		C443.5,449.4,446.4,446.5,450,446.5z"/>
	<path class="st5" d="M527.9,446.5h53.8c3.6,0,6.5,2.9,6.5,6.5v41.3c0,3.6-2.9,6.5-6.5,6.5h-53.8c-3.6,0-6.5-2.9-6.5-6.5V453
		C521.4,449.4,524.3,446.5,527.9,446.5z"/>
	<path class="st5" d="M216.3,537.7h53.8c3.6,0,6.5,2.9,6.5,6.5v41.3c0,3.6-2.9,6.5-6.5,6.5h-53.8c-3.6,0-6.5-2.9-6.5-6.5v-41.3
		C209.8,540.5,212.7,537.7,216.3,537.7z"/>
	<path class="st5" d="M294.2,537.7H348c3.6,0,6.5,2.9,6.5,6.5v41.3c0,3.6-2.9,6.5-6.5,6.5h-53.8c-3.6,0-6.5-2.9-6.5-6.5v-41.3
		C287.7,540.5,290.6,537.7,294.2,537.7z"/>
	<path class="st5" d="M372.1,537.7h53.8c3.6,0,6.5,2.9,6.5,6.5v41.3c0,3.6-2.9,6.5-6.5,6.5h-53.8c-3.6,0-6.5-2.9-6.5-6.5v-41.3
		C365.6,540.5,368.5,537.7,372.1,537.7z"/>
	<path class="st6" d="M450,537.7h53.8c3.6,0,6.5,2.9,6.5,6.5v41.3c0,3.6-2.9,6.5-6.5,6.5H450c-3.6,0-6.5-2.9-6.5-6.5v-41.3
		C443.5,540.5,446.4,537.7,450,537.7z"/>
	<path class="st5" d="M527.9,537.7h53.8c3.6,0,6.5,2.9,6.5,6.5v41.3c0,3.6-2.9,6.5-6.5,6.5h-53.8c-3.6,0-6.5-2.9-6.5-6.5v-41.3
		C521.4,540.5,524.3,537.7,527.9,537.7z"/>
	<path class="st7" d="M369.9,345.4l-3.5-3.5c-0.7-0.7-1.9-0.7-2.6,0c0,0,0,0,0,0l-22.1,21.9l-9.3-9.4c-0.7-0.7-1.9-0.7-2.6,0
		c0,0,0,0,0,0l-3.6,3.5c-0.7,0.7-0.7,1.9,0,2.7l14.2,14.3c0.7,0.7,1.9,0.7,2.7,0l26.9-26.7C370.7,347.4,370.7,346.2,369.9,345.4
		C369.9,345.5,369.9,345.4,369.9,345.4z"/>
	<path class="st7" d="M606.4,345.4l-3.5-3.5c-0.7-0.7-1.9-0.7-2.6,0c0,0,0,0,0,0l-22.1,21.9l-9.3-9.4c-0.7-0.7-1.9-0.7-2.6,0
		c0,0,0,0,0,0l-3.6,3.5c-0.7,0.7-0.7,1.9,0,2.7l14.2,14.3c0.7,0.7,1.9,0.7,2.7,0l26.9-26.7C607.1,347.4,607.1,346.2,606.4,345.4
		C606.4,345.5,606.4,345.4,606.4,345.4z"/>
	<path class="st7" d="M447.8,435.9l-3.5-3.5c-0.7-0.7-1.9-0.7-2.6,0c0,0,0,0,0,0l-22.1,21.9l-9.3-9.4c-0.7-0.7-1.9-0.7-2.6,0
		c0,0,0,0,0,0l-3.6,3.5c-0.7,0.7-0.7,1.9,0,2.7l14.2,14.3c0.7,0.7,1.9,0.7,2.7,0l26.9-26.7C448.6,437.8,448.6,436.6,447.8,435.9
		C447.8,435.9,447.8,435.9,447.8,435.9z"/>
	<path class="st7" d="M525,530.4l-3.5-3.5c-0.7-0.7-1.9-0.7-2.6,0c0,0,0,0,0,0l-22.1,21.9l-9.3-9.4c-0.7-0.7-1.9-0.7-2.6,0
		c0,0,0,0,0,0l-3.6,3.5c-0.7,0.7-0.7,1.9,0,2.7l14.2,14.3c0.7,0.7,1.9,0.7,2.7,0l26.9-26.7C525.7,532.3,525.7,531.2,525,530.4z"/>
	<path class="st8" d="M706.3,617.9c-2.1-3.8,0.3-8.5,3-11.9s6-7,5.9-11.3c-0.1-6.3-6.7-10-12.1-13.3c-3.9-2.5-7.6-5.4-10.8-8.7
		c-1.4-1.3-2.5-2.8-3.3-4.5c-1.1-2.4-1.1-5.2-1-7.9c0.2-8.9,0.7-17.9,1.3-26.8"/>
	<path class="st9" d="M679.3,533.1c0.2-3.3,2-6.3,4.9-8l2.2,4.3l-0.1-5.2c1-0.3,2.1-0.4,3.2-0.4c5.4,0.3,9.5,4.8,9.3,10.2
		c-0.3,5.4-4.8,9.5-10.2,9.3C683.2,542.9,679,538.4,679.3,533.1z"/>
	<path class="st9" d="M696.7,599.1c2.5,4.8,8.3,6.7,13.1,4.2s6.7-8.3,4.2-13.1c-2.5-4.8-8.3-6.7-13.1-4.2c-2.2,1.1-3.8,3-4.7,5.3
		l6.1,5l-6.7-1.6C695.6,596.2,696,597.7,696.7,599.1z"/>
	<path class="st9" d="M701.5,580.2c5.4,0.3,9.9-3.9,10.2-9.2c0.2-4.6-2.7-8.7-7.2-9.9l0.1,4l-2.2-4.4l0,0c-5.4-0.3-9.9,3.9-10.2,9.2
		c0,0,0,0,0,0c-0.1,1.1,0.1,2.3,0.4,3.3C693.9,577.2,697.4,580,701.5,580.2z"/>
	<path class="st9" d="M677.8,564.4c5.4,0.2,9.9-4,10.1-9.4c0.2-5.4-4-9.9-9.4-10.1c-1.8-0.1-3.5,0.3-5,1.2l1.7,4.7l-3.5-3.4
		c-1.9,1.7-3,4.2-3.2,6.7c0,0.9,0,1.8,0.2,2.7C669.7,561.1,673.4,564.2,677.8,564.4z"/>
	<path class="st10" d="M680.6,535.7c2.3,0.2,4.4,0.9,6.7,1.1c2.3,0.1,4.7-0.4,6.2-2.2c0.8-0.9,1.2-2.1,1.8-3.2
		c0.6-1,1.5-1.8,2.5-2.3c2.3,4.9,0.3,10.7-4.6,13c-4.9,2.3-10.7,0.3-13-4.6c-0.3-0.6-0.5-1.3-0.7-1.9
		C679.8,535.6,680.2,535.6,680.6,535.7z"/>
	<path class="st10" d="M677.8,564.4c5.4,0.3,9.9-3.9,10.2-9.2c0.1-1.6-0.2-3.2-0.9-4.7c-0.8,0.5-1.4,1.2-2,2
		c-0.7,1.1-1.1,2.3-1.9,3.2c-1.5,1.8-4.1,2.4-6.5,2.3c-2.4-0.1-4.6-0.8-7-1c-0.3,0-0.7,0-1-0.1C669.8,561.1,673.5,564.2,677.8,564.4
		z"/>
	<path class="st10" d="M701.5,580.2c5.4,0.3,9.9-3.9,10.2-9.2c0.1-1.6-0.2-3.1-0.9-4.5c-0.8,0.5-1.5,1.2-2.1,2
		c-0.8,1.1-1.2,2.3-2.1,3.3c-1.6,1.8-4.4,2.5-6.9,2.4c-2.5-0.1-4.8-0.6-7.1-0.8C693.9,577.2,697.4,580,701.5,580.2z"/>
	<path class="st10" d="M696.7,599.1c2.2,4.9,8,7.1,12.9,4.9c4.9-2.2,7.1-8,4.9-12.9l0,0c-0.8,0.5-1.5,1.2-2.1,1.9
		c-0.9,1.1-1.5,2.4-2.6,3.5c-2,2-5.2,2.8-8.1,2.8C700,599.4,698.3,599.3,696.7,599.1z"/>
	<path class="st11" d="M721.1,613.5c0,0-7.7-0.2-10-1.9c-2.3-1.7-11.8-3.6-12.4-1c-0.6,2.6-11.6,13.2-2.9,13.3
		c8.7,0,20.2-1.4,22.5-2.8C720.6,619.7,721.1,613.5,721.1,613.5z"/>
	<path class="st12" d="M695.6,623c8.7,0.1,20.2-1.4,22.5-2.8c1.8-1.1,2.5-4.9,2.7-6.7h0.3c0,0-0.5,6.2-2.8,7.7
		c-2.3,1.4-13.8,2.8-22.5,2.8c-2.5,0-3.4-0.9-3.3-2.2C692.7,622.5,693.7,623,695.6,623z"/>
	<path class="st8" d="M130.4,614.5c-3.1-5.6,0.4-12.6,4.4-17.6c4-5,8.8-10.3,8.7-16.7c-0.2-9.2-9.9-14.7-17.8-19.6
		c-5.8-3.6-11.2-7.9-16-12.8c-2-1.9-3.6-4.1-4.9-6.6c-1.6-3.6-1.6-7.7-1.5-11.7c0.3-13.2,1-26.3,1.9-39.5"/>
	<path class="st9" d="M90.5,489.4c0.2-4.9,2.9-9.4,7.2-11.8l3.2,6.4l-0.1-7.7c7.6-2.2,15.6,2.1,17.9,9.7c2.2,7.6-2.1,15.6-9.7,17.9
		c-7.6,2.2-15.6-2.1-17.9-9.7C90.6,492.5,90.4,490.9,90.5,489.4L90.5,489.4z"/>
	<path class="st9" d="M116.1,586.8c3.6,7.1,12.3,9.8,19.4,6.2c7.1-3.6,9.8-12.3,6.2-19.4c-3.6-7.1-12.3-9.8-19.4-6.2
		c-3.2,1.6-5.7,4.4-6.9,7.8l9,7.3l-9.9-2.3C114.5,582.5,115.1,584.8,116.1,586.8z"/>
	<path class="st9" d="M123.2,558.8c7.9,0.4,14.7-5.8,15-13.7c0.3-6.7-4-12.7-10.5-14.5l0.1,5.9l-3.3-6.4h0
		c-7.9-0.5-14.8,5.5-15.3,13.5c-0.5,7.9,5.5,14.8,13.5,15.3C122.9,558.8,123.1,558.8,123.2,558.8z"/>
	<path class="st9" d="M88.3,535.6c7.9,0.4,14.7-5.8,15.1-13.7c0.1-2.4-0.4-4.7-1.4-6.8c-3.4-7.2-11.9-10.3-19.1-6.9
		c-0.3,0.1-0.6,0.3-0.9,0.5l2.5,7l-5.2-5c-5.9,5.4-6.3,14.5-0.9,20.3C80.9,533.7,84.5,535.4,88.3,535.6L88.3,535.6z"/>
	<path class="st10" d="M92.4,493.2c3.3,0.4,6.6,1.4,9.9,1.6c3.3,0.2,7-0.6,9.1-3.2c1.1-1.4,1.7-3.2,2.7-4.7c0.9-1.4,2.2-2.6,3.6-3.4
		c3.6,7.1,0.8,15.8-6.3,19.4c-7.1,3.6-15.8,0.8-19.4-6.3c-0.6-1.1-1-2.3-1.2-3.5C91.3,493.1,91.9,493.1,92.4,493.2z"/>
	<path class="st10" d="M88.3,535.6c7.9,0.4,14.7-5.8,15.1-13.7c0.1-2.4-0.4-4.7-1.4-6.8c-1.1,0.8-2.1,1.8-2.9,2.9
		c-1,1.6-1.6,3.3-2.9,4.8c-2.2,2.6-6.1,3.5-9.5,3.3c-3.5-0.1-6.8-1.1-10.3-1.5c-0.5,0-1-0.1-1.5-0.1
		C76.4,530.8,81.9,535.3,88.3,535.6z"/>
	<path class="st10" d="M123.2,558.8c7.9,0.4,14.7-5.8,15.1-13.7c0.1-2.3-0.3-4.5-1.2-6.6c-1.2,0.8-2.2,1.8-3,2.9
		c-1.1,1.6-1.8,3.4-3.1,4.9c-2.4,2.7-6.5,3.7-10.2,3.6c-3.6-0.1-7-1-10.5-1.2C111.9,554.5,117.2,558.6,123.2,558.8z"/>
	<path class="st10" d="M116.1,586.8c3.6,7.1,12.3,9.8,19.4,6.2c6.5-3.4,9.5-11.1,6.9-18c-1.2,0.8-2.3,1.7-3.2,2.8
		c-1.4,1.7-2.3,3.6-3.9,5.1c-2.9,2.9-7.7,4.1-11.9,4.2C121,587.1,118.6,587,116.1,586.8z"/>
	<path class="st11" d="M152.1,608c0,0-11.4-0.3-14.8-2.8c-3.4-2.4-17.5-5.3-18.3-1.4s-17.1,19.5-4.2,19.6c12.8,0.1,29.8-2,33.2-4.1
		C151.3,617.2,152.1,608,152.1,608z"/>
	<path class="st12" d="M114.5,622c12.8,0.1,29.8-2,33.2-4.1c2.6-1.6,3.6-7.3,4-9.9h0.4c0,0-0.7,9.2-4.1,11.2
		c-3.4,2.1-20.4,4.2-33.2,4.1c-3.7,0-5-1.3-4.9-3.3C110.3,621.2,111.7,621.9,114.5,622z"/>
	<path class="st13" d="M601.2,579.8c-0.1,0.3-0.2,0.6-0.2,0.9c-1.1,7.3-7.5,12.7-9.8,19.6c-1.5,4.5-1.2,9.5,0.8,13.8
		c0.4,0.6,0.6,1.3,0.6,2c0,0.7-0.6,1.5-1.3,1.4c-1.7-0.1-3-1.4-4.4-2.3c-1.8-1.1-3.3-2.5-4.5-4.2c-1.2-1.7-1.7-3.8-1.3-5.9
		c0.8-3.8,3.7-7.2,4.6-11l2.4-9.8c0.3-1.9,1-3.6,1.9-5.2c0.4-0.6,1-1.1,1.6-1.4c0.4-0.1,0.8-0.1,1.2-0.1
		C595.7,577.9,598.6,578.9,601.2,579.8z"/>
	<path class="st14" d="M591.5,613.1c0.3-0.1,0.5,0,0.8,0.1c0.3,0.2,0.6,0.5,0.7,0.9c0.8,1.4,1.9,2.5,3.3,3.3
		c0.6,0.2,1.1,0.6,1.6,0.9c0.5,0.4,0.8,1,0.8,1.6c-0.1,0.9-1.1,1.4-2,1.7c-1.9,0.5-3.9,0.7-5.8,0.5c-0.7,0-1.4-0.2-2.1-0.6
		c-0.6-0.4-1.2-1-1.6-1.6c-1.5-2.1-3.2-4.1-5.1-5.8c-1-0.8-1.9-1.6-2.7-2.5c-0.8-0.9-1.2-2.2-1.1-3.4c0.3-1.8,2-3,3.1-4.5
		c1.7,2.2,3.5,4.5,4.5,7.1c0.3,1.1,0.8,2.1,1.3,3.1c0.5,0.8,1.2,1.8,2.1,1.2C590,614.4,590.2,613.3,591.5,613.1z"/>
	<path class="st15" d="M612.4,526.5c0.5,1.3,0.7,2.7,0.6,4.1l-0.1,10.4c0,2-0.1,4-0.3,6c-0.5,3.6-2,7-2.7,10.6
		c-0.6,3.4-0.5,6.9-1.5,10.2c-1.5,5.1-5.6,9.1-7.1,14.2c-0.1,0.3-0.2,0.6-0.4,0.8c-0.2,0.1-0.4,0.2-0.6,0.3
		c-1.2,0.1-2.3-0.1-3.3-0.6l-7.5-2.9c-0.5,0.2-0.9-0.4-0.8-0.9c0.1-0.6,0.3-1.1,0.7-1.5c0.9-1.2,1.7-2.4,2.4-3.7
		c2.1-4.2,3.3-8.7,3.5-13.4c0.2-4.6,0.1-9.3-0.4-13.9c-0.3-3.3-0.5-6.7-0.8-10c-0.1-1.6-0.2-3.3,0.7-4.6s2.4-1.9,3.9-2.3
		C603.2,527.7,607.8,526.8,612.4,526.5z"/>
	<path class="st10" d="M612.4,526.5c0.5,1.3,0.7,2.7,0.6,4.1l-0.1,10.4c0,2-0.1,4-0.3,6c-0.5,3.6-2,7-2.7,10.6
		c-0.6,3.4-0.5,6.9-1.5,10.2c-1.5,5.1-5.6,9.1-7.1,14.2c-0.1,0.3-0.2,0.6-0.4,0.8c-0.2,0.1-0.4,0.2-0.6,0.3
		c-1.2,0.1-2.3-0.1-3.3-0.6l-7.5-2.9c-0.5,0.2-0.9-0.4-0.8-0.9c0.1-0.6,0.3-1.1,0.7-1.5c0.9-1.2,1.7-2.4,2.4-3.7
		c2.1-4.2,3.3-8.7,3.5-13.4c0.2-4.6,0.1-9.3-0.4-13.9c-0.3-3.3-0.5-6.7-0.8-10c-0.1-1.6-0.2-3.3,0.7-4.6s2.4-1.9,3.9-2.3
		C603.2,527.7,607.8,526.8,612.4,526.5z"/>
	<path class="st13" d="M628.7,542.2c-1,1.5-1.9,3.1-2.5,4.8c-0.4,1.3-0.7,2.6-0.8,3.9c-1,6.1-2,12.3-1.6,18.5
		c-1.2,0.3-2.5,0-3.5-0.9c-0.9-0.8-1.7-1.8-2.3-2.9c-0.7-1.2-1.3-2.5-1.9-3.7c-1.2-2.9-1.8-6-1.8-9.1c0-0.3,0-0.5,0.1-0.7
		c0.1-0.2,0.2-0.3,0.4-0.4c4.1-3.9,6.4-9.2,8.7-14.3c0.8-1.7,1.4-3.4,1.9-5.3c0.4-1.8,0.4-3.9,1.6-5.3c1-1.3,2.8-1.9,4.4-2.1
		c1.2-0.2,2.4-0.2,3.6,0.1c1.3,0.4,4.3,1.9,4.4,3.4c0.2,1.5-2.5,3.4-3.4,4.4C633.4,535.6,631,538.8,628.7,542.2z"/>
	<path class="st14" d="M626.3,569.4c0.9,1.5,2.1,3.2,1.5,4.8c-0.6,1.6-2.9,2-4.3,1c-0.4-0.3-0.8-0.7-1.1-1
		c-3.8-4.3-7.3-8.9-10.4-13.7c-1.2-1.8-2.3-3.7-2.5-5.8c0-0.2,0-0.5,0.1-0.7c0.1-0.2,0.3-0.4,0.5-0.5c1.9-1.1,3.9-1.9,6-2.5
		c-0.1,2.4,0.6,4.7,1.8,6.8c0.9,1.5,1.7,3,2.3,4.6c0.5,1.2,1,1.3,2.2,1.3c1,0,1.7-0.1,2.2,0.9C625.3,566,625.3,567.8,626.3,569.4z"
		/>
	<path class="st15" d="M600.2,508.9c8.9,0.1,17.9,0.8,26.8,1.4l5.8,0.4c1.7,0.1,3.4,0.3,5.1,0.8c1.6,0.6,3.1,1.3,4.5,2.2
		c0.5,0.2,0.9,0.6,1.3,1c0.3,0.4,0.4,0.9,0.5,1.4c0.3,1,0.4,2.1,0.3,3.2c-0.2,0.8-0.5,1.5-0.9,2.2l-4.1,8c-1.3-0.4-2.3-1.3-3.6-1.8
		c-1.5-0.5-3.1-0.8-4.7-0.9l-4.2-0.4c-0.1-0.3-0.2-0.6-0.1-0.8c-3.7,1.3-7.4,2.5-11.1,3.8c-6.8,2.4-13.6,4.8-20.2,7.8
		c-1,0.4-2.1,0.9-3.1,0.5c-0.4-0.2-0.7-0.4-1-0.6c-1.6-1.5-2.7-3.6-3-5.8c-0.3-2.2-0.3-4.4,0.1-6.6c0.6-4.5,2-9.3,5.5-12.2
		C595.9,510.7,597.8,508.8,600.2,508.9z"/>
	<path class="st16" d="M635.8,516.7c-2,1-3.9,2.1-5.7,3.4c-0.3,0.2-0.5,0.4-0.8,0.6c-0.2,0.2-0.3,0.4-0.5,0.6
		c-0.9,1.2-1.6,2.5-2,3.9"/>
	<path class="st13" d="M543.7,505.9c-1.3,1.1-2,2.6-2.9,3.9c-2.1,3.3-5.2,6-7.3,9.4c-0.9,1.4-1.6,3-2.9,4.2c-1.5,1.4-3.6,1.9-5.7,2
		c-1.8,0.1-3.8,0-5.4,0.9c-1.4,0.8-2.4,2.1-3.3,3.5v0c-0.5,0.7-0.3,1.7,0.4,2.2c0.4,0.3,1,0.3,1.4,0.2c1.5-0.6,3-1,4.6-1.3
		c1.4-0.2,2.8-0.5,4.1-0.9c1.3-0.5,2.5-1.2,3.7-2c1-0.6,2-1.3,2.9-2c1.1-1,2.1-2.1,3.1-3.1c1.5-1.3,3.2-2.5,4.9-3.5
		c4.5-3.1,8.2-7.2,10.9-11.9c0.3-0.5,0.5-1,0.5-1.6c-0.1-0.5-0.3-1-0.7-1.4c-1.2-1.6-2.4-2.8-4.1-1.4
		C546.7,504.2,545,504.7,543.7,505.9z"/>
	<path class="st13" d="M578.7,472c0,0.4,0.2,0.9,0.4,1.2c0.5,0.5,1.2,0.4,1.9,0.3c1.8-0.2,3.6,0.4,4.9,1.7c1.2,1.2,1.7,3,1.9,4.7
		c0.3,1.4,0.3,2.9-0.1,4.3c-0.7,1.6-1.9,2.9-3.5,3.6c-1.6,0.7-3.3,1.1-5,1.2c-1.4,0.3-2.9,0.3-4.3,0c-1.7-0.4-3.2-1.4-4.7-2.2
		c-1.1-0.5-2.1-1.1-3.1-1.7c-1-0.7-1.7-1.7-2-2.8c-0.2-0.6,0-1.2,0.5-1.6c0.2-0.1,0.5-0.2,0.8-0.2c1.2-0.3,2.1-1.2,2.4-2.3
		c0.5-1.8-0.7-3.6-0.8-5.5c-0.1-0.5,0.1-1.1,0.3-1.6c0.4-0.5,0.9-0.9,1.6-1.1l3.5-1.6c1-0.6,2.1-1.1,3.3-1.5
		c1.1-0.3,1.2,0.5,1.4,1.4C578.3,469.5,578.5,470.7,578.7,472z"/>
	<path class="st10" d="M578.7,472c0,0.4,0.2,0.9,0.4,1.2c0.5,0.5,1.2,0.4,1.9,0.3c1.8-0.2,3.6,0.4,4.9,1.7c1.2,1.2,1.7,3,1.9,4.7
		c0.3,1.4,0.3,2.9-0.1,4.3c-0.7,1.6-1.9,2.9-3.5,3.6c-1.6,0.7-3.3,1.1-5,1.2c-1.4,0.3-2.9,0.3-4.3,0c-1.7-0.4-3.2-1.4-4.7-2.2
		c-1.1-0.5-2.1-1.1-3.1-1.7c-1-0.7-1.7-1.7-2-2.8c-0.2-0.6,0-1.2,0.5-1.6c0.2-0.1,0.5-0.2,0.8-0.2c1.2-0.3,2.1-1.2,2.4-2.3
		c0.5-1.8-0.7-3.6-0.8-5.5c-0.1-0.5,0.1-1.1,0.3-1.6c0.4-0.5,0.9-0.9,1.6-1.1l3.5-1.6c1-0.6,2.1-1.1,3.3-1.5
		c1.1-0.3,1.2,0.5,1.4,1.4C578.3,469.5,578.5,470.7,578.7,472z"/>
	<circle class="st13" cx="569.7" cy="466.2" r="8.7"/>
	<path class="st14" d="M579.7,474.1c1.3-0.6,2.7-0.9,4.1-1c1.4-0.1,2.8,0.5,3.8,1.5c0.8,1,1.1,2.2,1.7,3.3c1.3,2.1,3.8,3,5.8,4.5
		c0.5,0.3,0.9,0.7,1.2,1.2c0.7,1.1,0.5,2.4,0.5,3.7c0.1,3.1,0.9,6.1,2.6,8.8c1.6,2.6,3.4,5.1,5.5,7.4c0.5,0.5,0.9,1.1,1.2,1.8
		c0.5,1.2,0.3,2.6,1.1,3.6c-1.7-0.2-3.5,0-5.1,0.7c-2.5,1-2.6,4.7-3.8,7.2c-2.2,4.5-5.2,8.6-8.1,12.7c-0.8,1-1.4,2-1.9,3.2
		c-0.5-1.1-0.2-2.4-0.2-3.6c-0.1-2.7-1.7-5.1-2.1-7.8c-0.1-1.3-0.2-2.7-0.2-4c-0.1-2-0.6-4-1.3-5.9c-0.9-2-1.9-4-3.1-5.8
		c-0.6-1.1-1.4-2-2.3-2.8c-1.2-0.8-2.7-1-3.5-2.1c-0.2-0.4-0.4-0.8-0.7-1.1c-0.2-0.2-0.5-0.3-0.8-0.4c-1.4-0.7-2.8-1.4-4.1-2.3
		c-1.4-0.8-3-1.3-4.5-1c-2.8,3.3-6.1,6.3-9.6,8.8c-1.1,0.8-2.3,1.6-2.8,2.9c-1.7-0.8-3.3-2-4.6-3.4c-0.2-0.2-0.4-0.4-0.5-0.7
		c-0.4-1,0.7-1.9,1.5-2.6c3.1-2.4,5.5-5.5,6.9-9.2c0.9-2.4,1.5-5.1,3.5-6.6c0.6-0.4,1.3-0.8,1.8-1.3c0.5-0.7,1-1.4,1.4-2.2
		c0.9-1.2,2.4-1.7,3.9-1.3c0.8,0.3,1.6,0.7,2.3,1.1c1.9,0.9,4.1,0.7,6.3,0.5l8.1-0.8c0.3-0.9,0-1.9-0.6-2.6
		c-0.3-0.3-0.7-0.6-1.1-0.9C580.8,476.6,580,475.4,579.7,474.1z"/>
	<path class="st15" d="M574.3,451.2c2,0.7,3.6,2.3,4.4,4.3c0.2,0.8,0.6,1.7,0.9,2.4c0.6,0.9,1.4,1.8,2.3,2.5c0.8,0.8,1.4,1.9,1.3,3
		c-0.1,0.4-0.3,0.8-0.3,1.2c-0.2,1.8,1.8,3,2.4,4.7c0.8,2.2-1,4.9,0.1,7c0.4,0.8,1.2,1.4,1.6,2.1c0.5,0.7,0.5,1.9-0.3,2.4
		c-1.2,0.7-2.6-1.3-3.9-0.8c-0.3,0.1-0.6,0.4-0.9,0.6c-0.9,0.4-2-0.4-2.3-1.3c-0.2-1-0.2-2,0.1-3c0.2-1,0-2-0.6-2.8
		c-0.5-0.6-1.4-0.8-1.9-1.4c-1-1-0.8-2.6-0.7-4.1c0.2-2.9-0.3-6-2.4-8c-0.1-0.1-0.2-0.2-0.4-0.2c-0.1,0-0.3,0.1-0.4,0.2
		c-0.9,1-2,1.8-3.1,2.6c-0.3,0.2-0.7,0.4-1.1,0.4c-0.4,0-0.8-0.4-0.7-0.8c-1,0.5-1.9,1.1-2.6,1.9c-0.2-0.4-0.2-0.8-0.2-1.2
		c-0.4,0.8-0.8,1.5-1.4,2.1c-0.6,0.6-1.1,1.2-1.5,1.9c-0.5,0.7-0.6,1.5-0.4,2.3c0.8,2.2,4.8,1.7,5.6,3.9c0.2,0.5,0.2,1,0.4,1.5
		c0.4,0.9,1.4,1.4,2.2,2c0.8,0.6,1.6,1.7,1.1,2.6c-0.4,0.8-1.5,0.8-2.3,1c-1.5,0.4-2.7,1.3-3.5,2.6c-0.2,0.5-0.5,0.9-0.9,1.2
		c-0.4,0.2-0.7,0.3-1.1,0.3c-1.2,0.1-2.5,0.1-3.4-0.7c-1.1-1.1-0.6-3.2-1.7-4.4c-0.3-0.3-0.6-0.4-0.8-0.7c-0.5-0.7-0.7-1.5-0.6-2.3
		c0.1-2.3,1-4.6,0.8-6.9c-0.2-1.5-0.5-3.1-0.9-4.5c-0.7-3.5,0.2-7.2,2.5-10c1.9-2.2,4.4-3.1,7.2-3.5
		C569.3,451.2,571.7,450.3,574.3,451.2z"/>
</g>
</svg>
