<?xml version="1.0" encoding="utf-8"?>
<!-- Generator: Adobe Illustrator 23.1.1, SVG Export Plug-In . SVG Version: 6.00 Build 0)  -->
<svg version="1.1" id="bfbb5b39-9b4a-43f6-b630-7b09a59f4f63"
	 xmlns="http://www.w3.org/2000/svg" xmlns:xlink="http://www.w3.org/1999/xlink" x="0px" y="0px" viewBox="0 0 823 823"
	 style="enable-background:new 0 0 823 823;" xml:space="preserve">
<style type="text/css">
	.st0{fill:#F2F2F2;}
	.st1{fill:#3F3D56;}
	.st2{fill:#8338EC;}
	.st3{opacity:0.1;enable-background:new    ;}
	.st4{opacity:0.15;enable-background:new    ;}
	.st5{fill:url(#SVGID_1_);}
	.st6{fill:#2F2E41;}
	.st7{fill:#FBBEBE;}
</style>
<title>mobile user</title>
<g>
	<path class="st0" d="M129.9,319.5v24.7c21.6,0,39.1,17.5,39.1,39.1c0,21.6-17.5,39.1-39.1,39.1v24.7h127.7V319.5H129.9z"/>
	<circle class="st0" cx="129.9" cy="383.4" r="30.9"/>
	<polygon class="st0" points="598,414.3 547.9,383.4 547.9,622.2 598,622.2 	"/>
	<polygon class="st0" points="471,622.2 521.1,622.2 521.1,366.9 471,336 	"/>
	<polygon class="st0" points="444.3,319.5 193.7,165.1 193.7,304.4 274,304.4 274,465 193.7,465 193.7,622.2 444.3,622.2 	"/>
	<polygon class="st0" points="624.8,430.8 624.8,622.2 650.9,622.2 721.6,490.4 	"/>
	<path class="st1" d="M722.1,530.9c-41.6,31.1-53.3,85.7-53.3,85.7s55.7,4.2,97.3-26.9c41.6-31.1,53.3-85.7,53.3-85.7
		S763.7,499.8,722.1,530.9z"/>
	<path class="st2" d="M668.9,616c0,0-0.6-0.3-1.7-1c-0.9-0.5-2.1-1.3-3.6-2.3c-13.1-8.6-46.9-33.9-60.8-73
		c-17.4-48.9,3.1-100.9,3.1-100.9s44.7,25.2,63.8,70.3c0.8,1.9,1.6,3.9,2.3,6c15.1,42.6,1.5,87.4-2.2,98.4
		C669.2,615.2,668.9,616,668.9,616z"/>
	<path class="st1" d="M669.1,617.6l-0.6-0.5c-0.5-0.3-45.6-33.5-57.2-83.7c-11.6-50.3,14.4-99.8,14.7-100.3l0.4-0.7l0.6,0.5
		c0.5,0.3,45.6,33.5,57.2,83.7l0,0c11.6,50.3-14.4,99.8-14.7,100.3L669.1,617.6z M626.8,434.4c-3.1,6.2-24.9,52.2-14.2,98.7
		c10.7,46.5,50.5,78.2,56,82.5c3.1-6.2,24.9-52.2,14.2-98.7l0,0C672.1,470.4,632.4,438.6,626.8,434.4z"/>
	<path class="st3" d="M669.8,613.5c-1,0.6-1.9,1.1-2.6,1.5c-1.6,0.9-2.5,1.3-2.5,1.3s-0.4-1.3-1.1-3.6c-3.5-12.7-13.6-56.8,3.3-97.3
		c0.9-2.1,1.8-4.2,2.8-6.2c0.8,1.9,1.6,3.9,2.3,6C687.1,557.7,673.6,602.6,669.8,613.5z"/>
	<path class="st2" d="M739.5,545.4c-19.9,47.9-70,72.7-70,72.7s-17.7-53,2.2-100.9s70-72.7,70-72.7S759.4,497.5,739.5,545.4z"/>
	
		<rect x="613.4" y="531" transform="matrix(0.3868 -0.9221 0.9221 0.3868 -57.5973 976.7166)" class="st1" width="184.4" height="1.4"/>
	<path class="st1" d="M811.9,632.2c0,6.4-37,12.3-98.1,16.8c-11.1,0.8-23,1.6-35.7,2.3c-10.9,0.6-22.4,1.2-34.3,1.8
		c-11.6,0.5-23.6,1-36.1,1.5c-39.4,1.4-83,2.5-129.3,3c-11.2,0.1-22.6,0.2-34.2,0.3c-12,0.1-24.2,0.1-36.5,0.1
		c-223.2,0-404.1-11.5-404.1-25.7s180.9-25.7,404.1-25.7c96.1,0,184.3,2.1,253.7,5.7c2.6,0.1,5.1,0.3,7.6,0.4c0,0,0,0,0,0
		C756.4,617.3,811.9,624.3,811.9,632.2z"/>
	<path class="st4" d="M811.9,632.2c0,6.4-37,12.3-98.1,16.8c-11.1,0.8-23,1.6-35.7,2.3c-10.9,0.6-22.4,1.2-34.3,1.8
		c-11.6,0.5-23.6,1-36.1,1.5c-39.4,1.4-83,2.5-129.3,3c-11.2,0.1-22.6,0.2-34.2,0.3c-12,0.1-24.2,0.1-36.5,0.1
		c-223.2,0-404.1-11.5-404.1-25.7s180.9-25.7,404.1-25.7c96.1,0,184.3,2.1,253.7,5.7c2.6,0.1,5.1,0.3,7.6,0.4c0,0,0,0,0,0
		C756.4,617.3,811.9,624.3,811.9,632.2z"/>
	<path class="st1" d="M780.8,627.7c0,5.4-34.5,10.3-91.5,14.1c-10.4,0.7-21.5,1.3-33.2,1.9c-10.2,0.5-20.8,1-32,1.5
		c-10.8,0.4-22,0.9-33.7,1.2c-36.8,1.2-77.4,2.1-120.6,2.5c-10.5,0.1-21.1,0.2-31.8,0.2c-11.2,0.1-22.5,0.1-34,0.1
		c-208.1,0-376.8-9.6-376.8-21.5c0-11.9,168.7-21.5,376.8-21.5c46,0,90.1,0.5,130.9,1.3h0.1c38.6,0.8,74.1,2,105.6,3.4
		c2.4,0.1,4.7,0.2,7.1,0.3c0,0,0,0,0,0c14.4,0.7,27.9,1.5,40.3,2.3c0.1,0,0.3,0,0.4,0C745.9,617.3,780.8,622.2,780.8,627.7z"/>
	<path class="st3" d="M687.9,613.5c-5.1,33.2-37.3,22-76.2,22c-41.1,0-74.7,12.4-76.8-28.1c38.6,0.8,74.1,2,105.6,3.4
		c2.4,0.1,4.7,0.2,7.1,0.3c0,0,0,0,0,0C662.1,611.9,675.5,612.7,687.9,613.5z"/>
	<path class="st2" d="M221.4,603.4c0,12-7.1,16.1-15.9,16.1c-0.2,0-0.4,0-0.6,0c-0.4,0-0.8,0-1.2-0.1c-7.9-0.6-14.1-4.9-14.1-16.1
		c0-11.5,14.7-26,15.8-27.1l0,0c0,0,0.1-0.1,0.1-0.1S221.4,591.5,221.4,603.4z"/>
	<path class="st1" d="M204.9,617.7l5.8-8.1l-5.8,9l0,0.9c-0.4,0-0.8,0-1.2-0.1l0.6-12l0-0.1l0,0l0.1-1.1l-5.8-9l5.9,8.2l0,0.2l0.5-9
		l-5-9.3l5.1,7.7l0.5-18.7l0-0.1v0.1l-0.1,14.8l5-5.9l-5,7.1l-0.1,8.1l4.6-7.8l-4.7,9l-0.1,4.5l6.7-10.8l-6.8,12.4L204.9,617.7z"/>
	<path class="st1" d="M534.9,595c0-45.5,34.4-82.4,76.9-82.4s76.9,36.9,76.9,82.4c0,45.5-34.4,32.3-76.9,32.3S534.9,640.5,534.9,595
		z"/>
	<rect x="107.5" y="540.8" class="st1" width="1.4" height="92.8"/>
	<circle class="st1" cx="108.2" cy="540.8" r="13.1"/>
	<path class="st1" d="M108.2,598c0,0-1.9-40.3-40.3-35.6"/>
	
		<linearGradient id="SVGID_1_" gradientUnits="userSpaceOnUse" x1="446.8673" y1="172.3461" x2="446.8673" y2="207.7393" gradientTransform="matrix(1 0 0 -1 -5.7341 732)">
		<stop  offset="0" style="stop-color:#808080;stop-opacity:0.25"/>
		<stop  offset="0.5351" style="stop-color:#808080;stop-opacity:0.12"/>
		<stop  offset="1" style="stop-color:#808080;stop-opacity:0.1"/>
	</linearGradient>
	<path class="st5" d="M490.3,556c0.3,1.2,0.7,2.4,1.1,3.6c-1.8-1.8-3.6-3.7-5.5-5.4c0.7,0.2,1.5,0.5,2.2,0.7
		C488.9,555.2,489.6,555.6,490.3,556z M481.4,550c-10.8-9.4-23.3-16.7-34.4-25.8c6,3,11.9,6.4,17.8,9.8c6.9,3.9,13.9,7.7,21,11.4
		C484.6,547.2,483.1,548.8,481.4,550z M486,526.4c0.2-0.2,0.3-0.4,0.5-0.5c0,1.3,0,2.6,0,3.7c-1-0.3-1.9-0.7-2.9-1
		C484.5,527.9,485.3,527.2,486,526.4L486,526.4z M390.9,551.8c4.5-5,8.3-10.5,11.5-16.4c4.3,7.5,11.3,12.9,17.2,19.2
		C410,553.3,400.5,552.2,390.9,551.8z"/>
	<path class="st2" d="M84.1,621.3c0,12-7.1,16.1-15.9,16.1c-0.2,0-0.4,0-0.6,0c-0.4,0-0.8,0-1.2-0.1c-7.9-0.6-14.1-4.9-14.1-16.1
		c0-11.5,14.7-26,15.8-27.1l0,0c0,0,0.1-0.1,0.1-0.1S84.1,609.3,84.1,621.3z"/>
	<path class="st1" d="M67.6,635.6l5.8-8.1l-5.8,9l0,0.9c-0.4,0-0.8,0-1.2-0.1l0.6-12l0-0.1l0,0l0.1-1.1l-5.8-9l5.9,8.2l0,0.2l0.5-9
		l-5-9.3l5.1,7.7l0.5-18.7l0-0.1v0.1l-0.1,14.8l5-5.9l-5,7.1l-0.1,8.1l4.6-7.8l-4.7,9l-0.1,4.5l6.7-10.8l-6.8,12.4L67.6,635.6z"/>
	<circle class="st2" cx="92.1" cy="519.3" r="6.9"/>
	<path class="st6" d="M533.5,423.2c0,0,24.9-5.5,27.6,16.5c2.7,22-13.2,26.1-13.2,26.1l-10.1,2.7l-39.1-10.3l5.5-15.8L533.5,423.2z"
		/>
	<circle class="st6" cx="524.5" cy="390.8" r="33.7"/>
	<polygon class="st6" points="406.3,460.6 413.1,462 436.4,496.4 426.1,497.8 	"/>
	<path class="st7" d="M240.9,600.1c1.8,6.1,4.1,12,6.8,17.7c7.7-1.6,15.3-3.8,22.7-6.5c0.2-0.1-4.2-5.9-4.7-6.4
		c-1.8-1.8-4.1-3.9-6.4-4.9c-2.4-1-5.3-0.2-7.8-0.1C247.9,600.1,244.4,600.2,240.9,600.1z"/>
	<path class="st6" d="M259.3,609.3c-3.9-1.2-6.2-5.1-7.8-8.8c-1.6-3.7-2.8-7.8-5.8-10.6c-1.1,0.1-2.1,1-2.6,2s-0.9,2.1-1.6,3.1
		c-1.2,1.8-3.4,2.7-5,4.2c-1.6,1.6-2.5,3.8-4.2,5.4c-2.1,1.9-5.1,2.4-7.9,3c-4.3,1-8.5,2.5-12.4,4.6c-1.4,0.9-3,1.6-4.6,2.1
		c-1.8,0.3-3.6,0.4-5.4,0.2l-12.3-0.9c-1.1-0.1-2.2-0.1-3.3,0.1c-2.5,0.7-4.1,3.5-3.9,6.2c0.2,2.6,1.8,5,3.9,6.6
		c2.1,1.5,4.5,2.7,7,3.6c10.7,4.1,21.8,7.2,33.1,9.4l0,2.4c7.8,3.8,16.4,5.9,25.2,5.9c0.6,0,1.3-0.1,1.9-0.3
		c0.9-0.5,1.3-1.5,1.6-2.4c3-8.6,4.7-17.7,5.1-26.8c0.2-2.3,0-4.6-0.5-6.9c-0.7-2.2,1.6-1.3-0.5-2.2"/>
	<path class="st6" d="M495.7,562.8c-36.5,2.2-72.7-8.5-109.3-9.7c-4.5-0.1-9.1-0.1-13.6,0.9c-4.7,1.1-9.1,3.2-13.4,5.2
		c-19.6,9.1-39.9,16.7-60.2,24.2l-23.3,8.7c-4.7,1.7-9.5,3.5-14.4,3.2c-2.2-0.1-4.9-0.5-6.2,1.4c-3.8,5.6-2,13.9,0.5,20.2
		c0.8,2,2.2,4.3,4.4,4.5c1.5,0.2,3-0.7,4.4-1.1c4.2-1.1,8.5,1.7,12.8,2.2c5.4,0.6,10.4-2.5,15.5-4.4c8.4-3.1,17.7-3,26.5-4.5
		c14.9-2.5,28.7-9.4,41.5-17.3c4.9-3,9.9-6.2,15.5-7.3c6.5-1.3,13.1,0.4,19.5,2.2c15.2,4.3,30.1,9.4,44.7,15.2
		c7.7,3.1,15.3,6.4,23.4,8.5c17.3,4.6,35.7,3.5,52.3-3.1c5.8-2.3,12.2-6.4,12.5-12.7c0.2-3.6-2.6-6.8-4.5-9.8
		c-1.2-2-2.4-3.9-3.7-5.9C514.5,574.3,506.8,562.1,495.7,562.8z"/>
	<path class="st3" d="M495.7,562.8c-36.5,2.2-72.7-8.5-109.3-9.7c-4.5-0.1-9.1-0.1-13.6,0.9c-4.7,1.1-9.1,3.2-13.4,5.2
		c-19.6,9.1-39.9,16.7-60.2,24.2l-23.3,8.7c-4.7,1.7-9.5,3.5-14.4,3.2c-2.2-0.1-4.9-0.5-6.2,1.4c-3.8,5.6-2,13.9,0.5,20.2
		c0.8,2,2.2,4.3,4.4,4.5c1.5,0.2,3-0.7,4.4-1.1c4.2-1.1,8.5,1.7,12.8,2.2c5.4,0.6,10.4-2.5,15.5-4.4c8.4-3.1,17.7-3,26.5-4.5
		c14.9-2.5,28.7-9.4,41.5-17.3c4.9-3,9.9-6.2,15.5-7.3c6.5-1.3,13.1,0.4,19.5,2.2c15.2,4.3,30.1,9.4,44.7,15.2
		c7.7,3.1,15.3,6.4,23.4,8.5c17.3,4.6,35.7,3.5,52.3-3.1c5.8-2.3,12.2-6.4,12.5-12.7c0.2-3.6-2.6-6.8-4.5-9.8
		c-1.2-2-2.4-3.9-3.7-5.9C514.5,574.3,506.8,562.1,495.7,562.8z"/>
	<path class="st7" d="M311.1,601.9c5.7,2,11.5,3.7,17.3,5.4c3.3-5.3,9.4-9.1,10.7-15.2c0.1-0.3,0.1-0.6,0-0.8
		c-0.1-0.3-0.4-0.5-0.7-0.6c-4.2-2.3-8.8-3.7-13.6-4c-3.8-0.2-5.5,3.7-7.2,6.4C317,594.3,312.6,602.4,311.1,601.9z"/>
	<path class="st6" d="M319.1,598c-3.4-0.7-6.7-2.5-8.4-5.5c-0.8-1.4-1.7-3.3-3.3-3.2c-1.5,0.1-2.2,1.9-2.5,3.4
		c-1.3,5.5-2.5,11.1-4.7,16.3c-2.2,5.2-5.5,10.1-10.1,13.3c-2.1,1.5-4.5,2.6-6.6,4.1c-1.9,1.4-3.5,3.1-5.5,4.2
		c-1.4,0.6-2.8,1.2-4.2,1.6c-2.1,0.7-4.2,1.7-6.1,3c-1.7,1-3.1,2.3-4.1,4c-1,1.7-1.2,3.8-0.3,5.5c0.9,1.5,2.4,2.5,4.1,2.8
		c1.7,0.3,3.4,0.3,5,0.1c6.7-0.5,13.3-1.1,20-1.7c2.8-0.2,5.6-0.6,8.4-1.2c1.5-0.4,2.9-0.8,4.3-1.2c2.5-0.6,5-1,7.6-1.1
		c0.7-0.1,1.5,0,2.2,0.2c1.5,0.5,2.6,2,4.2,2.3c1,0.1,2.1,0,3-0.4c4.8-1.3,9.8-1.3,14.8-1.5c2.2-0.1,4.7-0.5,5.7-2.5
		c1.3-2.4-0.8-5.2-1.6-7.8c-0.4-1.7-0.6-3.4-0.7-5.1c-0.4-4.3-1.6-8.4-3.7-12.1c-1.7-3.1-4-6.6-2.8-9.9c0.4-1.1,1.2-2.2,1.1-3.4
		C334.5,596.8,322.1,598.6,319.1,598z"/>
	<path class="st7" d="M440.9,504.2c-6.5-2.9-11.7-8-14.6-14.5c-0.6-1.4-1.1-2.8-1.7-4.2c-1.9-4.7-4.9-8.8-8.7-12.1
		c-1-0.8-2.1-1.6-3.2-1.4c-1.1,0.2-2,1.3-2.4,2.5c-0.3,1.3-0.4,2.6-0.2,3.9c0.3,3.1,0.9,6.1,1.6,9.1l1.8,8.1
		c0.2,1.2,0.6,2.5,1.1,3.6c0.8,1.4,1.8,2.6,3,3.6c1.6,1.5,3.3,2.9,4.9,4.4c2.3,2.2,5.3,3.6,8.6,3.8c7.3,1.3,14.6,3.3,20.8,8
		c-0.1-0.1,0-5.4-0.1-6c-0.3-1.6-0.5-3.2-1.6-4.3C447.7,506.2,443.8,505.5,440.9,504.2z"/>
	<path class="st3" d="M440.9,504.2c-6.5-2.9-11.7-8-14.6-14.5c-0.6-1.4-1.1-2.8-1.7-4.2c-1.9-4.7-4.9-8.8-8.7-12.1
		c-1-0.8-2.1-1.6-3.2-1.4c-1.1,0.2-2,1.3-2.4,2.5c-0.3,1.3-0.4,2.6-0.2,3.9c0.3,3.1,0.9,6.1,1.6,9.1l1.8,8.1
		c0.2,1.2,0.6,2.5,1.1,3.6c0.8,1.4,1.8,2.6,3,3.6c1.6,1.5,3.3,2.9,4.9,4.4c2.3,2.2,5.3,3.6,8.6,3.8c7.3,1.3,14.6,3.3,20.8,8
		c-0.1-0.1,0-5.4-0.1-6c-0.3-1.6-0.5-3.2-1.6-4.3C447.7,506.2,443.8,505.5,440.9,504.2z"/>
	<ellipse class="st6" cx="515.3" cy="433.5" rx="8.9" ry="8.9"/>
	<path class="st6" d="M509.8,428.1c-2.4-0.3-5.1-0.5-7,1c-1,0.9-1.8,2-2.4,3.3c-1.9,3.5-3.7,7-4.6,10.9c-0.8,3.3-0.9,6.7-1.9,9.9
		c-1.8,6-6.5,11-7,17.2c-0.2,2.8,0.2,6-1.8,7.9c-0.5,0.4-1,0.8-1.6,1.1c-1.4,0.9-2.6,2.2-3.5,3.6c-0.8,1.2-1.3,2.6-2.5,3.4
		c-1.8,1.3-4.8,1.2-5.7,3.3c-0.9,2.1,1.4,4.5,0.9,6.8c-0.4,1.8-2.5,2.7-3.9,3.9c-1.8,1.6-2.6,4-3.4,6.3c-6,1.1-12.2-0.4-17-4.2
		c2.5,6.1,2.5,12.9,2.6,19.5c0,2.1,0,4.5-1.6,6c7.1,0.2,14,2.1,20.9,3.6c3,0.7,6.3,1.3,9.1,0c1.6-0.8,3-2,4.2-3.3
		c3.8-3.8,7.7-8,8.6-13.3c0.5-3,0-6,0.2-9c0.2-3.7,1.3-7.3,2.3-10.9c2-7.4,3.3-14.9,4-22.5c0.4-4.7,4.5-8.5,6.6-12.6
		c4-7.9,8.1-16.1,8.4-25C513.7,432,512.8,428.4,509.8,428.1z"/>
	<path class="st3" d="M509.8,428.1c-2.4-0.3-5.1-0.5-7,1c-1,0.9-1.8,2-2.4,3.3c-1.9,3.5-3.7,7-4.6,10.9c-0.8,3.3-0.9,6.7-1.9,9.9
		c-1.8,6-6.5,11-7,17.2c-0.2,2.8,0.2,6-1.8,7.9c-0.5,0.4-1,0.8-1.6,1.1c-1.4,0.9-2.6,2.2-3.5,3.6c-0.8,1.2-1.3,2.6-2.5,3.4
		c-1.8,1.3-4.8,1.2-5.7,3.3c-0.9,2.1,1.4,4.5,0.9,6.8c-0.4,1.8-2.5,2.7-3.9,3.9c-1.8,1.6-2.6,4-3.4,6.3c-6,1.1-12.2-0.4-17-4.2
		c2.5,6.1,2.5,12.9,2.6,19.5c0,2.1,0,4.5-1.6,6c7.1,0.2,14,2.1,20.9,3.6c3,0.7,6.3,1.3,9.1,0c1.6-0.8,3-2,4.2-3.3
		c3.8-3.8,7.7-8,8.6-13.3c0.5-3,0-6,0.2-9c0.2-3.7,1.3-7.3,2.3-10.9c2-7.4,3.3-14.9,4-22.5c0.4-4.7,4.5-8.5,6.6-12.6
		c4-7.9,8.1-16.1,8.4-25C513.7,432,512.8,428.4,509.8,428.1z"/>
	<path class="st6" d="M501.5,570.5c-7.6-3.6-13.2-10.4-19.3-16.2c-11.7-11-26.1-18.8-38.5-29.2c-8.2-6.9-15.5-14.8-24.5-20.6
		c-7.9-5-16.9-8.2-26.2-9.2c-1.1-0.2-2.2-0.1-3.2,0.2c-1.2,0.5-2.2,1.3-3,2.4c-4,4.5-7.5,9.4-10.6,14.5
		c-15.7,26.6-37.9,48.9-56.3,73.6c-1.2,1.2-1.3,3.1-0.2,4.5l3.7,7.3c2.1,4.1,5.5,8.9,10,8.1c2.1-0.4,3.7-1.9,5.2-3.3l16.8-16.1
		l17.6-16.9c10.3-9.9,20.8-20,27.6-32.6c5.3,9.1,14.6,15.1,21,23.5c2.4,3.2,4.4,6.7,6.6,10c3.5,5.4,7.5,10.5,11.4,15.5l20.2,25.8
		c2.8,3.5,5.6,7.1,9.4,9.5c4.8,3,10.6,3.8,16.3,4.3c7.6,0.7,15.2,1,22.9,0.8c5.8-0.1,11.8-0.5,17-3.1c5.2-2.6,9.5-7.9,9.2-13.7
		c-0.1-3-1.5-5.9-2.9-8.6C524.5,588,515.1,577,501.5,570.5z"/>
	<ellipse class="st6" cx="520.8" cy="439.7" rx="6.8" ry="6.9"/>
	<path class="st7" d="M519.3,434.5c1.7,2.9,1.7,6.6,0.8,9.9s-2.7,6.2-4.4,9.1c-1.7,2.9-3.4,5.7-5.7,8.2c10.6,0.5,20.8-3.6,30.1-8.7
		c7.5-4,15-9,19-16.6c-2.3,0.7-4.9,0-7-1.3c-2-1.4-3.8-3.1-5.4-5l-5.3-6c-1.2-1.3-2.3-2.7-3.3-4.3c-1.1-2.1-1.6-4.5-1.4-6.9
		c-2.1,2.2-4.5,4.2-7,5.8c-3.8,2.5-8,4.2-11.7,6.7c-1.3,0.9-4.3,2.3-3.6,4C515.1,431.2,518.2,432.6,519.3,434.5z"/>
	<path class="st3" d="M519.3,434.5c1.7,2.9,1.7,6.6,0.8,9.9s-2.7,6.2-4.4,9.1c-1.7,2.9-3.4,5.7-5.7,8.2c10.6,0.5,20.8-3.6,30.1-8.7
		c7.5-4,15-9,19-16.6c-2.3,0.7-4.9,0-7-1.3c-2-1.4-3.8-3.1-5.4-5l-5.3-6c-1.2-1.3-2.3-2.7-3.3-4.3c-1.1-2.1-1.6-4.5-1.4-6.9
		c-2.1,2.2-4.5,4.2-7,5.8c-3.8,2.5-8,4.2-11.7,6.7c-1.3,0.9-4.3,2.3-3.6,4C515.1,431.2,518.2,432.6,519.3,434.5z"/>
	<path class="st2" d="M519.4,435.5c-2,3.3-2.4,7.3,0,10.3c0.3,0.4,1.4,2.7,1.9,2.7c0.5,0,0.9-0.3,1.2-0.6c2.6-2.3,4.4-5.3,6.7-8
		c2.3-2.6,5.1-5.1,8.5-5.6c4.1-0.6,8.1,1.5,11.7,3.7c1.5,0.9,3.1,1.8,4,3.3c0.8,1.4,1.2,2.9,1.3,4.5c1.2,9.4,1.2,18.9,1.2,28.4
		c0,6.9,0,13.8-1.3,20.5c-0.7,3.5-1.7,6.9-2.2,10.4c-0.3,3.1-0.5,6.2-0.4,9.3l0,13.1c-0.1,2.4,0.1,4.8,0.5,7.2
		c0.6,2.9,2,5.5,2.9,8.3c0.9,3.2,1.6,6.5,1.9,9.8l1.8,13.5c0.6,4.3,1,8.9-1.6,12.3c-1.2,1.6-2.7,2.8-3.9,4.3c-4.4,5.8-3,14-4.8,21
		c-1.5,5.2-4.4,9.7-8.6,13.1c-3.2,2.7-7.2,4.8-11.3,4c-5.5-1-8.8-6.7-10.3-12.2c-1.5-5.4-2-11.3-5.3-15.9c-2.6-3.7-6.8-6.1-10.5-8.7
		c-3.7-2.7-7.3-6.1-8.1-10.6c-0.4-2-0.1-4-0.3-6c-0.6-5.1-4-9.5-8.7-11.5c-2.8-1.1-6.3-1.5-7.9-4.1c4.1-2.3,6.8-6.6,8.2-11
		c1.4-4.5,1.7-9.2,2-14l0.9-15.7c0.4-7,0.6-14,3.7-20.3c1.4-2.8,3.1-5.5,4.5-8.3c1.9-3.9,3.5-8,4.9-12.1c2.2-6.4,4.5-12.9,6.5-19.4
		c1-3.1,1.9-6.3,3.6-9C513.8,439.7,516.3,436.1,519.4,435.5z"/>
	<path class="st6" d="M484.5,537.7l4.2,0.1l0.9-6.3c0.1-1.3,0.4-2.5,0.9-3.7c0.7-1.2,1.5-2.4,2.4-3.5c4.1-5.8,3.8-13.5,4.8-20.5
		c1.4-9.4,5.3-18.1,9.1-26.8l8.1-18c1.6-3.1,2.4-6.5,2.2-9.9c0.1-2.8,0.9-12.9,1-15.7c0-1-2.3-0.5-2.7-1.4c-1-2-2.4,3.4-4.3,4.6
		c-1.9,1.2-2.9,3.3-3.7,5.4c-1.7,4.5-2.8,9.3-4.4,13.9c-1.6,4.6-3.9,9.1-7.5,12.3c-1.7,1.4-3.6,2.6-5.1,4.1c-5,5-5.5,12.8-5.7,19.9
		C484.4,496.5,483.6,537.7,484.5,537.7z"/>
	<path class="st6" d="M544.4,428c-4,1.6-6.3,6-7.4,10.2c-1.1,4.2-1.6,8.7-3.8,12.5c-5.1,8.8-18,11.4-21.6,20.9
		c-1.2,3.1-1.1,6.5-1.4,9.9c-0.6,6.8-2.9,13.4-3.6,20.3c-0.5,5.3-0.1,10.6,0.4,15.9l4.5,53.9c0.7,7.8,0.6,16.2-1.4,23.7
		c4.6,0.9,9.3-0.3,13.6-2.2c4.2-1.9,8.1-4.6,12.2-6.8c7-3.9,14.8-6.6,20.9-11.8c1.1-0.9,2.1-1.9,2.8-3.1c1.2-2.1,1.3-4.7,1.9-7.1
		c0.5-1.9,1.2-3.8,2-5.6c2.3-5.4,4.2-11,5.9-16.6c1.1-3.7,2-7.6,2.7-11.4c0.5-3.1,0.8-6.2,1-9.3c0.3-4.9,1.3-9.6,2.9-14.2
		c3.9-11,6.2-22.5,6.6-34.1c0.1-1.7,0-3.4-0.3-5c-0.5-2-1.7-3.8-2.7-5.7c-1.9-3.5-3-7.4-4.8-11c-4-8.1-11.1-14.3-18.5-19.4
		C552.8,429.2,548.5,426.4,544.4,428z"/>
	<path class="st7" d="M449.9,516c-3.1-1.8-6.3-3.8-8.6-6.5c-1.1-1.3-2.1-2.8-3.2-4.1c-2.8-3.2-6.7-5.1-10.8-6.2
		c-4.1-1-8.3-1.2-12.5-1.2c-2.8,0-5.7,0-8.3,1s-5,3.1-5.5,5.9c-0.6,3.4,1.6,6.6,4.2,8.8c2.4,2,5.3,3.4,8.4,4.1
		c2.5,0.4,5.1,0.7,7.6,0.9c15,1.6,28.3,9.7,41.4,17.1c11.5,6.5,23.3,12.6,35.2,18.3c0.5-3.6,0.7-7.2,0.6-10.8
		c-0.1-2.7-0.2-6.8-2.7-8.4c-3-1.8-7.9-2.3-11.2-3.4c-7.7-2.5-15.2-5.6-22.5-9.1C457.8,520.4,453.8,518.2,449.9,516z"/>
	<ellipse class="st7" cx="515.3" cy="404.6" rx="26.7" ry="26.8"/>
	<path class="st6" d="M552,458.4c-2.4,2.8-3.6,6.4-5.2,9.6c-3.3,6.8-8.5,12.6-11,19.7c-2.7,7.5-2.6,16.4-8,22.2
		c-0.9,1-2.1,2-2.3,3.4c-0.2,0.8,0,1.7-0.3,2.4c-0.8,2.1-4.3,2.2-4.9,4.4c-0.2,0.6-0.1,1.3-0.3,2c-0.5,1.4-2.4,1.6-3.6,2.5
		c-2.6,1.8-2.1,5.8-3.9,8.4c-1.5,2-4.2,2.7-6.7,2.3c-2.4-0.3-4.7-1.5-6.9-2.6c-0.8-0.4-1.6-0.7-2.5-0.8c-1,0-2,0.4-2.9,1
		c-4.9,3.1-7.2,9.3-7.2,15.2s2,11.5,4.1,17c0.3,0.9,0.7,1.8,1.4,2.5c1.6,1.7,4.5,1.4,6.6,0.5s4.1-2.5,6.5-2.9
		c4.1-0.7,8.2,2.1,12.3,1.9c3.1-0.2,5.8-2,8.3-3.7c4.1-2.8,8.2-5.6,11.2-9.5c1.8-2.4,3.2-5.1,4.8-7.7c2.1-3.1,4.3-6.1,6.7-9
		l15.4-18.8c3.7-4,6.2-9,7.4-14.3c1.5-5,2.9-10.1,3.2-15.3c0.2-4.3-0.4-8.6-1.1-12.8c-0.7-4.2-1.5-8.4-3.3-12.2
		C566.4,456.8,558.3,451.1,552,458.4z"/>
	<circle class="st6" cx="561" cy="346.4" r="33.7"/>
	<path class="st6" d="M590,374.3c-15.1,10.9-36.1,7.5-47-7.6c-2.2-3.1-3.9-6.5-5-10.1c2.3,18.4,19.1,31.5,37.6,29.2
		s31.5-19.1,29.2-37.6c-0.2-1.8-0.6-3.6-1.1-5.4C605.2,355,600,367.1,590,374.3z"/>
	<circle class="st6" cx="533.5" cy="396.4" r="24.7"/>
	<ellipse class="st6" cx="512.7" cy="387.1" rx="21.9" ry="17.1"/>
	
		<ellipse transform="matrix(0.7759 -0.6309 0.6309 0.7759 -145.0517 419.5232)" class="st7" cx="517.9" cy="413.9" rx="3.4" ry="5.1"/>
	<path class="st2" d="M493.9,632.2c0,12-7.1,16.1-15.9,16.1c-0.2,0-0.4,0-0.6,0c-0.4,0-0.8,0-1.2-0.1c-7.9-0.6-14.1-4.9-14.1-16.1
		c0-11.5,14.7-26,15.8-27.1l0,0c0,0,0.1-0.1,0.1-0.1S493.9,620.3,493.9,632.2z"/>
	<path class="st1" d="M477.4,646.5l5.8-8.1l-5.8,9l0,0.9c-0.4,0-0.8,0-1.2-0.1l0.6-12l0-0.1l0,0l0.1-1.1l-5.8-9l5.9,8.2l0,0.2l0.5-9
		l-5-9.3l5.1,7.7l0.5-18.7l0-0.1v0.1l-0.1,14.8l5-5.9l-5,7.1l-0.1,8.1l4.6-7.8l-4.7,9l-0.1,4.5l6.7-10.8l-6.8,12.4L477.4,646.5z"/>
</g>
</svg>
