<?xml version="1.0" encoding="utf-8"?>
<!-- Generator: Adobe Illustrator 23.1.1, SVG Export Plug-In . SVG Version: 6.00 Build 0)  -->
<svg version="1.1" id="f89af28b-111d-4872-814f-cbbc169855b4"
	 xmlns="http://www.w3.org/2000/svg" xmlns:xlink="http://www.w3.org/1999/xlink" x="0px" y="0px" viewBox="0 0 823 823"
	 style="enable-background:new 0 0 823 823;" xml:space="preserve">
<style type="text/css">
	.st0{fill:#3F3D56;}
	.st1{fill:#F9A825;}
	.st2{fill:#8338EC;}
	.st3{clip-path:url(#SVGID_2_);}
	.st4{fill:#3AD29F;}
	.st5{fill:url(#SVGID_3_);}
	.st6{fill:#FFFFFF;}
	.st7{opacity:0.2;fill:#FFFFFF;enable-background:new    ;}
	.st8{fill:#FF6584;}
</style>
<title>movie_night</title>
<g>
	<path class="st0" d="M18.9,357.1h267.5c7.3,0,13.1,5.9,13.1,13.1l0,0v20.9l0,0H5.8l0,0v-20.9C5.8,363,11.7,357.1,18.9,357.1z"/>
	<path class="st1" d="M281.3,354.7c-1.3,0-2.6,0.2-3.9,0.7c-1-3.9-4.9-6.3-8.8-5.3c-3.2,0.8-5.5,3.7-5.5,7.1c0,0,0,0.1,0,0.1
		c-0.9,0.1-1.8,0.3-2.7,0.6c-0.5-2-1.8-3.7-3.6-4.6c2.3-1.3,4.2-3.3,5.3-5.7c5.9-0.1,10.7-4.4,10.7-9.7c0-5.4-4.9-9.7-10.9-9.7
		c-1.3,0-2.6,0.2-3.9,0.7c-0.9-3.9-4.8-6.3-8.7-5.4s-6.3,4.8-5.4,8.7c0,0.2,0.1,0.4,0.2,0.6c-0.3,0.2-0.6,0.4-0.8,0.7
		c-1.4-1.2-3.2-1.8-5-1.7c-2.2-6.3-9.1-9.6-15.4-7.4c-4.8,1.7-8,6.1-8.1,11.2c-1,0.1-1.9,0.3-2.9,0.6c-0.1-0.4-0.2-0.8-0.4-1.2
		c1.9-1.7,3.1-4.2,3.1-6.7c0-5.4-4.9-9.7-10.9-9.7c-1.3,0-2.6,0.2-3.9,0.7c-0.9-3.9-4.8-6.3-8.7-5.4c-3.9,0.9-6.3,4.8-5.4,8.7
		c0,0.2,0.1,0.4,0.2,0.6c-3.1,2.2-5,5.6-5.2,9.4c-0.1,0.1-0.2,0.2-0.3,0.3c0.2-0.7,0.3-1.4,0.3-2.1c0-5.4-4.9-9.7-10.9-9.7
		c-1.3,0-2.6,0.2-3.9,0.7c-0.9-3.9-4.8-6.3-8.7-5.4c-3.9,0.9-6.3,4.8-5.4,8.7c0,0.2,0.1,0.4,0.2,0.6c-5.5,3.8-6.9,11.3-3.1,16.8
		c0.8,1.2,1.9,2.2,3.1,3.1c-0.5,1.4-0.5,2.9,0,4.4c-1.2,0.8-2.3,1.9-3.1,3.1c-1.1-3.9-5-6.1-8.9-5.1c-2.9,0.8-5,3.3-5.3,6.3
		c-1-0.6-2-1-3.1-1.3c2-1.3,3.5-3.1,4.5-5.3c5.9-0.1,10.7-4.4,10.7-9.7c0-5.4-4.9-9.7-10.9-9.7c-1.3,0-2.6,0.2-3.9,0.7
		c-0.9-3.9-4.8-6.3-8.7-5.4s-6.3,4.8-5.4,8.7c0,0.2,0.1,0.4,0.2,0.6c-0.2,0.1-0.3,0.2-0.4,0.4c-0.4,0-0.7-0.1-1.1-0.1
		c-1.3,0-2.6,0.2-3.9,0.7c0-0.2-0.1-0.4-0.2-0.5c0.8-3.9-1.6-7.7-5.5-8.5c-0.6-0.1-1.3-0.2-2-0.1c-2.3-6.3-9.2-9.6-15.5-7.3
		c-6.3,2.3-9.6,9.2-7.3,15.5c0.7,2.1,2.1,3.9,3.8,5.3c-0.8,0.1-1.7,0.3-2.5,0.5c-0.9-3.9-4.8-6.3-8.7-5.3c-1,0.3-2,0.7-2.8,1.4
		c-2.2-2.6-5.4-4.1-8.8-4c-1.3,0-2.6,0.2-3.9,0.7c-0.9-3.9-4.8-6.3-8.7-5.4c-3.9,0.9-6.3,4.8-5.4,8.7c0,0.2,0.1,0.4,0.2,0.6
		c-3.3,2.3-5.2,6-5.2,10c0,0,0,0.1,0,0.1c-1.7-0.3-3.5-0.1-5.1,0.6c-0.9-3.9-4.8-6.3-8.7-5.4c-3.9,0.9-6.3,4.8-5.4,8.7
		c0,0.2,0.1,0.4,0.2,0.6c-5.5,3.7-7,11.3-3.2,16.8c2.8,4.2,7.9,6.1,12.8,5c1.1,6.6,7.4,11,14,9.9c3.9-0.7,7.2-3.2,8.9-6.8
		c2.9,6,10.1,8.6,16.1,5.8c2.7-1.3,4.8-3.4,5.9-6.1c1.4,0,2.8-0.3,4.2-0.8c2.2,6.3,9.1,9.6,15.4,7.4c3.2-1.1,5.8-3.5,7.1-6.6
		c1.8,0,3.5-0.5,5.1-1.3c3.3,5.8,10.7,7.9,16.5,4.6c2.3-1.3,4.1-3.3,5.1-5.7c0.7,0,1.3-0.1,1.9-0.2c2.6,6.2,9.6,9.1,15.8,6.6
		c2.9-1.2,5.2-3.5,6.5-6.4c1,0,1.9-0.2,2.8-0.4c5,1.4,10.3-0.6,13.1-5c-1.7,6.5,2.2,13.1,8.7,14.8c5.8,1.5,11.8-1.4,14.2-6.9
		c1.8,0,3.5-0.5,5.1-1.3c3.3,5.8,10.7,7.9,16.5,4.6c2.3-1.3,4.1-3.3,5.1-5.7c1.8,0,3.5-0.5,5.1-1.3c3.2,5.8,10.6,7.8,16.4,4.6
		c0.6-0.3,1.1-0.7,1.6-1.1c1.2,6.6,7.5,10.9,14,9.7c3-0.6,5.7-2.2,7.6-4.7c5.3,4,12.9,3,16.9-2.2c0.6-0.8,1.1-1.7,1.5-2.6
		c5.9-0.1,10.7-4.4,10.7-9.7C292.2,359,287.3,354.7,281.3,354.7z M64.4,349.7c0,0.1,0,0.1,0,0.2c-0.1,0-0.2,0-0.3,0
		c-0.4,0-0.7,0-1.1,0.1c0,0,0-0.1,0.1-0.1C63.5,349.8,63.9,349.7,64.4,349.7z M165.8,345.6c0-0.1-0.1-0.3-0.1-0.4
		c1.9-1.3,3.3-3.1,4.2-5.1c3.2,0,6.3-1.4,8.4-3.8c-0.1,0.5-0.1,0.9-0.1,1.4c0,0.7,0.1,1.5,0.4,2.2c-2.1,1.5-3.7,3.5-4.5,5.9
		C171.4,344.8,168.4,344.7,165.8,345.6L165.8,345.6z M238.5,346.5c0-0.1,0-0.3,0-0.4c0.3,0,0.6,0,0.9-0.1c0.5,1.6,1.3,3,2.3,4.3
		c-0.2,0.1-0.5,0.1-0.7,0.2C240.6,348.9,239.7,347.5,238.5,346.5z"/>
	<path class="st0" d="M30.2,369.3c-14,0-25.3,11.3-25.3,25.3c0,0.5,0,0.9,0,1.4l16.4,226c0.7,13.5,11.8,24,25.3,24h211.9
		c13.5,0,24.6-10.5,25.3-24l16.4-226c0.8-14-10-25.9-23.9-26.7c-0.5,0-0.9,0-1.4,0L30.2,369.3z"/>
	<rect x="42.2" y="369.3" class="st2" width="14.6" height="276.7"/>
	<rect x="83.5" y="369.3" class="st2" width="14.6" height="276.7"/>
	<rect x="124.7" y="369.3" class="st2" width="14.6" height="276.7"/>
	<rect x="166" y="369.3" class="st2" width="14.6" height="276.7"/>
	<rect x="207.3" y="369.3" class="st2" width="14.6" height="276.7"/>
	<rect x="248.5" y="369.3" class="st2" width="14.6" height="276.7"/>
	<path id="a971f948-84ae-4583-a462-a09341ab7c50" class="st0" d="M500.7,255.8l-6.3-15.5l-84.7,34.8c-3.9,1.6-6.5,5.4-6.5,9.7v91.5
		H420V289L500.7,255.8z"/>
	<g>
		<defs>
			<path id="SVGID_1_" d="M500.7,255.8l-6.3-15.5l-84.7,34.8c-3.9,1.6-6.5,5.4-6.5,9.7v91.5H420V289L500.7,255.8z"/>
		</defs>
		<clipPath id="SVGID_2_">
			<use xlink:href="#SVGID_1_"  style="overflow:visible;"/>
		</clipPath>
		<g class="st3">
			<rect x="471.6" y="223.5" class="st2" width="18.2" height="57.7"/>
			<rect x="442.8" y="235.7" class="st2" width="18.2" height="57.7"/>
			<polygon class="st2" points="432.9,285.1 420,288.9 414.6,227.3 432.9,227.3 			"/>
			<rect x="385.8" y="291.9" class="st2" width="57.7" height="18.2"/>
			<rect x="385.8" y="317" class="st2" width="57.7" height="18.2"/>
			<rect x="385.8" y="342.1" class="st2" width="57.7" height="18.2"/>
		</g>
	</g>
	<polygon class="st0" points="471.6,646 359.9,646 332.6,372.4 495.9,372.4 	"/>
	<rect x="321.2" y="367.9" class="st0" width="186.9" height="18.2"/>
	<circle class="st4" cx="698.2" cy="240" r="62.8"/>
	
		<linearGradient id="SVGID_3_" gradientUnits="userSpaceOnUse" x1="874.8513" y1="80.8734" x2="874.8513" y2="19.0891" gradientTransform="matrix(1 0 0 1 -166.4459 190.0283)">
		<stop  offset="0" style="stop-color:#000000;stop-opacity:0.12"/>
		<stop  offset="0.55" style="stop-color:#000000;stop-opacity:9.000000e-02"/>
		<stop  offset="1" style="stop-color:#000000;stop-opacity:2.000000e-02"/>
	</linearGradient>
	<polygon class="st5" points="739.8,240 677,270.9 677,240 677,209.1 	"/>
	<polygon class="st6" points="736.1,240 680.7,267.2 680.7,240 680.7,212.8 	"/>
	<path class="st7" d="M640.6,247.2c0-34.7,28.2-62.8,62.9-62.8c18.7,0,36.4,8.4,48.4,22.8c-18-29.7-56.7-39.1-86.3-21
		c-29.7,18-39.1,56.7-21,86.3c1.6,2.6,3.4,5.1,5.4,7.5C643.8,270.2,640.6,258.8,640.6,247.2z"/>
	<path class="st0" d="M687.2,566c-1.5,0-2.8,1.2-2.8,2.8v74.4c0,1.5,1.2,2.8,2.8,2.8h128.1c1.5,0,2.8-1.2,2.8-2.8v-74.4
		c0-1.5-1.2-2.8-2.8-2.8H687.2z"/>
	<path class="st8" d="M701.5,572.6c-2.8,0-5.1,2.3-5.1,5.1v56.5c0,2.8,2.3,5.1,5.1,5.1H801c2.8,0,5.1-2.3,5.1-5.1v-56.5
		c0-2.8-2.3-5.1-5.1-5.1L701.5,572.6z"/>
	<rect x="621.9" y="590.6" class="st0" width="66.7" height="15.5"/>
	<path class="st0" d="M505.8,566c-1.5,0-2.8,1.2-2.8,2.8v74.4c0,1.5,1.2,2.8,2.8,2.8h128.1c1.5,0,2.8-1.2,2.8-2.8v-74.4
		c0-1.5-1.2-2.8-2.8-2.8H505.8z"/>
	<path class="st2" d="M520.1,572.6c-2.8,0-5.1,2.3-5.1,5.1v56.5c0,2.8,2.3,5.1,5.1,5.1h99.5c2.8,0,5.1-2.3,5.1-5.1v-56.5
		c0-2.8-2.3-5.1-5.1-5.1L520.1,572.6z"/>
</g>
</svg>
