<?xml version="1.0" encoding="utf-8"?>
<!-- Generator: Adobe Illustrator 23.1.1, SVG Export Plug-In . SVG Version: 6.00 Build 0)  -->
<svg version="1.1" id="a1446b94-79a8-45dc-beee-b314ae1acdc1"
	 xmlns="http://www.w3.org/2000/svg" xmlns:xlink="http://www.w3.org/1999/xlink" x="0px" y="0px" viewBox="0 0 823 823"
	 style="enable-background:new 0 0 823 823;" xml:space="preserve">
<style type="text/css">
	.st0{fill:#9F616A;}
	.st1{fill:#3F3D56;}
	.st2{fill:#FFFFFF;}
	.st3{fill:#8338EC;}
	.st4{fill:#E5E5E5;}
	.st5{opacity:0.2;enable-background:new    ;}
</style>
<g>
	<path class="st0" d="M556.4,686.4l6.8,130.3c0,0-287.1-273.3-322.9-353.2s31.6-277.7,31.6-277.7l149.4,82.1L556.4,686.4z"/>
	<path class="st0" d="M116.2,131L72,135.2c0,0-23.1,50.5,48.4,54.7L116.2,131z"/>
	<path class="st0" d="M116.2,208.9L72,213.1c0,0-23.1,50.5,48.4,54.7L116.2,208.9z"/>
	<path class="st0" d="M116.2,293L72,297.2c0,0-23.1,50.5,48.4,54.7L116.2,293z"/>
	<path class="st0" d="M128.8,377.2l-44.2,4.2c0,0-23.1,50.5,48.4,54.7L128.8,377.2z"/>
	<path class="st1" d="M94.7,151.3H98V59.5c0-29.4,23.8-53.2,53.2-53.2l0,0h194.6c29.4,0,53.2,23.8,53.2,53.2c0,0,0,0,0,0v503.9
		c0,29.4-23.8,53.2-53.2,53.2l0,0H151.2c-29.4,0-53.2-23.8-53.2-53.2l0,0V216.7h-3.4V151.3z"/>
	<path class="st2" d="M149,20.1h25.4c-3.9,9.6,0.7,20.7,10.3,24.6c2.3,0.9,4.7,1.4,7.1,1.4h111.5c10.4,0,18.9-8.4,18.9-18.9
		c0-2.4-0.5-4.9-1.4-7.1h23.7c21.9,0,39.7,17.8,39.7,39.7l0,0V563c0,21.9-17.8,39.7-39.7,39.7H149c-21.9,0-39.7-17.8-39.7-39.7l0,0
		V59.8C109.3,37.9,127.1,20.1,149,20.1C149,20.1,149,20.1,149,20.1z"/>
	<rect x="204.9" y="161.1" class="st3" width="83.8" height="20.2"/>
	<rect x="200.9" y="248" class="st4" width="91.8" height="20.2"/>
	<rect x="144.4" y="291.4" class="st4" width="204.8" height="20.2"/>
	<rect x="144.4" y="334.8" class="st4" width="204.8" height="20.2"/>
	<path class="st0" d="M754.6,754.2L519.1,485.6L510.7,313l-88.4-147.3l-25.2-63.1c0,0-58.9,6.3-10.5,126.2l20,64.2l0,0
		c-18,38.8-27.4,81.1-27.4,123.9V564c0,34.6,165,223.2,184.2,252l0,0L754.6,754.2z"/>
	<polygon class="st5" points="404,178.2 421.5,169.6 421,168.4 404.7,176.4 380.2,112.1 378.9,112.6 	"/>
	
		<rect x="84.3" y="126.2" transform="matrix(0.3457 -0.9384 0.9384 0.3457 -75.7838 171.384)" class="st5" width="1.4" height="27.7"/>
	
		<rect x="84.3" y="204.9" transform="matrix(0.3457 -0.9384 0.9384 0.3457 -149.6666 222.9041)" class="st5" width="1.4" height="27.7"/>
	
		<rect x="84.3" y="289.1" transform="matrix(0.3457 -0.9384 0.9384 0.3457 -228.6447 277.9774)" class="st5" width="1.4" height="27.7"/>
	
		<rect x="91.2" y="378.3" transform="matrix(0.4327 -0.9015 0.9015 0.4327 -295.2736 301.4529)" class="st5" width="1.4" height="14.1"/>
	<circle class="st3" cx="246.9" cy="470.8" r="58.7"/>
	<polygon class="st2" points="241.3,495.6 223.7,473 233.9,465.1 242.3,475.8 270.4,446.1 279.7,455 	"/>
</g>
</svg>
